<?xml version="1.0" standalone="no"?>
<!DOCTYPE svg PUBLIC "-//W3C//DTD SVG 1.1//EN" "http://www.w3.org/Graphics/SVG/1.1/DTD/svg11.dtd" >
<!--
2013-9-30: Created.
-->
<svg>
<metadata>
Created by iconfont
</metadata>
<defs>

<font id="iconfont" horiz-adv-x="1024" >
  <font-face
    font-family="iconfont"
    font-weight="500"
    font-stretch="normal"
    units-per-em="1024"
    ascent="896"
    descent="-128"
  />
    <missing-glyph />
    
    <glyph glyph-name="zhongzuo" unicode="&#58902;" d="M108.544 323.584q0 77.824 29.184 147.456t80.896 123.392 121.344 87.552 149.504 41.984q10.24 3.072 21.504 3.072l162.816 0 0 81.92q1.024 20.48 16.384 30.72t39.936-7.168q7.168-5.12 27.648-20.992t45.568-35.84 50.688-40.448 44.032-35.84q16.384-13.312 28.672-26.624t12.288-25.6q0-14.336-10.752-24.064t-26.112-22.016l-51.2-38.912q-26.624-19.456-50.688-36.864t-42.496-30.208-26.624-16.896q-15.36-9.216-26.112-11.776t-17.408 0.512-10.24 10.24-3.584 15.36l0 81.92-162.816 0-5.12 0q-50.176-5.12-93.184-26.112t-75.264-54.784-50.688-76.8-18.432-92.16q0-52.224 20.48-97.792t56.32-79.36 83.968-53.76 102.4-19.968l158.72 1.024q16.384 0 33.28-6.144t29.696-16.384 20.992-24.064 8.192-30.208q0-15.36-8.192-29.696t-22.016-24.576-30.72-16.384-33.28-6.144l-177.152 0-9.216 0q-4.096 0-9.216 1.024-80.896 7.168-151.04 41.472t-121.856 88.064-81.408 123.392-29.696 148.48z"  horiz-adv-x="1024" />

    
    <glyph glyph-name="shoucang" unicode="&#58880;" d="M281.53303-32.39895c-25.624986 0-50.501018 12.174029-66.544026 32.565043-14.54295 18.485965-19.864986 41.554022-14.602035 63.289958 3.644006 15.03703 35.325952 142.825984 50.326016 203.30496-46.522982 40.027955-143.173018 123.188019-147.206042 126.69399-37.387981 32.427008-41.397965 65.25696-38.167962 87.080038 5.347021 36.103987 30.872986 62.679962 66.617037 69.364019l2.381005 0.44503 214.680986 19.841024 78.381978 180.89001c6.044979 16.124006 14.564966 29.507994 25.342976 39.805952 16.134042 15.417037 36.653978 23.565005 59.34295 23.565005l0.67799-0.002048c23.29897-0.172032 45.211955-10.169958 61.714022-28.150989 10.638029-11.590963 16.735027-23.882035 19.664998-29.790003l0.752026-1.516954 76.652954-183.51104 216.03799-20.608 3.168973-0.706048c13.595034-3.030016 31.045018-8.171008 45.446042-21.139968 10.863002-9.784013 23.813018-27.567002 23.813018-56.727962 0-32.011981-17.926042-52.00599-31.015014-66.604954-1.735987-1.935974-3.569971-3.979981-5.480038-6.175027l-1.154048-1.325978-1.239962-1.246003c-1.007002-1.010995-1.055027-1.060045-143.350989-129.17801 14.619034-69.505024 41.413018-197.642957 43.625984-213.520998 3.145011-22.42304-2.69097-43.50505-16.440013-59.317965-10.422989-11.987046-30.005965-26.276045-64.108954-26.276045-8.816026 0-20.312986 1.517978-44.534989 12.530995l-2.336973 1.063014L512.531046 87.33399c-56.04096-32.335974-177.973965-102.542029-195.439002-111.326003C305.964032-29.577011 294.013952-32.39895 281.53303-32.39895zM196.490957 451.203994c36.530995-31.446016 105.230029-90.554982 146.699981-126.232986l24.365978-20.963021-7.740006-31.195955c-0.377037-1.521971-27.010048-108.873011-44.128051-178.034995 47.157043 26.827981 120.028979 68.775014 170.746982 98.092032l26.159002 15.120998 194.361037-112.572006c-10.519962 51.373978-26.318029 126.87401-37.578035 180.240998l-6.213018 29.449011 22.367027 20.139008c1.239962 1.115955 95.806976 86.260019 140.576051 126.571008l-226.801971 21.63497-87.554048 209.610957-91.506995-211.180954L196.490957 451.203994z"  horiz-adv-x="1024" />

    
    <glyph glyph-name="xiazai" unicode="&#58932;" d="M389.842311 442.724609c0 0-54.207599 52.138474-127.760802 9.55461-65.813938-40.649815-54.193273-115.050316-54.193273-115.050316S61.690526 308.826016 61.690526 159.776352c3.281743-148.84091 158.777213-150.336984 158.777213-150.336984l309.799812 0.467651L386.531915 139.831091l79.646991-0.864694 0.013303 157.420309 102.108562 0.694825 0.732687-157.684322 77.813227-1.106194L530.266527 9.439368l262.197654 0c0 0 144.715963-0.148379 165.04087 141.442406 9.680477 154.855904-139.875724 185.378058-139.875724 185.378058s17.017582 229.233891-193.000666 255.367085C444.611705 610.012659 389.842311 442.724609 389.842311 442.724609z"  horiz-adv-x="1024" />

    
    <glyph glyph-name="shezhi" unicode="&#59015;" d="M962.496 363.04c-3.584 19.84-22.656 39.808-42.304 44.288l-14.72 3.392c-34.624 10.432-65.536 33.536-84.992 67.328-19.648 33.984-24.128 72.576-15.616 107.968 0 0 0 0 0 0l4.288 13.824c5.952 19.264-1.792 45.76-17.216 58.816 0 0-13.824 11.712-52.992 34.304-39.168 22.592-56.128 28.736-56.128 28.736-19.008 6.848-45.76 0.32-59.52-14.464L612.928 696.16C586.56 671.328 551.104 656.096 512 656.096c-39.232 0-74.88 15.36-101.248 40.384L400.832 707.168C387.136 721.952 360.32 728.48 341.312 721.632c0 0-17.024-6.144-56.256-28.736C245.952 670.304 232.128 658.656 232.128 658.656 216.768 645.6 209.024 619.168 214.976 599.84l4.288-14.016c8.448-35.328 3.904-73.856-15.68-107.776C184 444.128 152.896 420.96 118.08 410.592L103.808 407.328c-19.648-4.48-38.72-24.448-42.304-44.288 0 0-3.2-17.792-3.2-63.04 0-45.248 3.2-62.976 3.2-62.976 3.584-19.84 22.656-39.808 42.304-44.288l13.952-3.2c0 0 0 0 0 0 34.944-10.304 66.112-33.536 85.824-67.584 19.648-33.984 24.128-72.576 15.616-107.968 0 0 0 0 0 0l-4.224-13.76c-5.952-19.264 1.792-45.76 17.216-58.816 0 0 13.824-11.712 52.992-34.304 39.168-22.592 56.128-28.736 56.128-28.736 19.008-6.848 45.76-0.32 59.52 14.464l9.792 10.56c26.432 25.024 62.08 40.448 101.376 40.448 39.296 0 75.008-15.424 101.44-40.512 0 0 0 0 0.064 0l9.728-10.496c13.76-14.784 40.512-21.312 59.52-14.464 0 0 17.024 6.144 56.256 28.736 39.168 22.592 52.928 34.304 52.928 34.304 15.424 13.056 23.168 39.488 17.216 58.816l-4.352 14.208c-8.32 35.264-3.84 73.664 15.744 107.52 19.648 34.048 50.88 57.216 85.824 67.584 0 0 0 0.064 0 0.064l13.952 3.2c19.648 4.48 38.72 24.448 42.304 44.288 0 0 3.2 17.792 3.2 63.04C965.696 345.248 962.496 363.04 962.496 363.04zM512 119.072c-99.904 0-180.928 81.024-180.928 180.928S412.096 480.864 512 480.864s180.928-81.024 180.928-180.928S611.904 119.072 512 119.072z"  horiz-adv-x="1024" />

    
    <glyph glyph-name="tubiao15" unicode="&#58959;" d="M840.655667 703.881419c30.637211 0 55.523164-24.938145 55.523164-55.562052L896.178831 257.06915c0-30.561482-24.88493-55.373755-55.523164-55.373755l-136.680355 0c-35.389673 0-64.0252-28.626317-64.0252-63.938215 0 0 0-5.937507 0-15.249017-39.891412 32.374868-79.782825 64.811137-79.782825 64.811137-11.379711 9.313556-25.63505 14.376095-40.391833 14.376095l-336.448517 0c-30.574786 0-55.459716 24.812272-55.459716 55.373755L127.86722 648.319367c0 30.62493 24.88493 55.562052 55.459716 55.562052L840.655667 703.881419M840.655667 767.882058l-657.327708 0c-65.964458 0-119.48594-53.562416-119.48594-119.561668L63.84202 257.06915c0-65.874403 53.521481-119.374394 119.48594-119.374394l336.448517 0c0 0 139.181436-113.249613 158.064387-128.000256 8.87863-6.874901 15.256181-9.81193 19.508222-9.81193 4.752462 0 6.877971 3.750597 6.753122 9.81193-0.188297 11.375617-0.124849 128.000256-0.124849 128.000256l136.680355 0c66.089308 0 119.548365 53.499991 119.548365 119.374394L960.206078 648.319367C960.204031 714.319643 906.744975 767.882058 840.655667 767.882058L840.655667 767.882058zM752.120084 447.88193c0-26.56221-21.571306-47.999456-48.019923-47.999456-26.510019 0-48.019923 21.437247-48.019923 47.999456 0 26.563233 21.509905 47.999456 48.019923 47.999456C730.548778 495.881387 752.120084 474.44414 752.120084 447.88193zM560.042437 447.88193c0-26.56221-21.571306-47.999456-48.0189-47.999456-26.542766 0-48.019923 21.437247-48.019923 47.999456 0 26.563233 21.477157 47.999456 48.019923 47.999456C538.470108 495.881387 560.042437 474.44414 560.042437 447.88193zM367.96479 447.88193c0-26.56221-21.571306-47.999456-48.019923-47.999456-26.541743 0-48.0189 21.437247-48.0189 47.999456 0 26.563233 21.477157 47.999456 48.0189 47.999456C346.393484 495.881387 367.96479 474.44414 367.96479 447.88193z"  horiz-adv-x="1025" />

    
    <glyph glyph-name="unie611" unicode="&#59078;" d="M512 350.656c94.304 0 170.656 76.576 170.656 170.656 0 94.304-76.384 170.656-170.656 170.656s-170.656-76.384-170.656-170.656c0-94.08 76.384-170.656 170.656-170.656zM512 265.344c-113.696 0-341.344-56.96-341.344-170.656l0-85.344 682.656 0 0 85.344c0 113.696-227.616 170.656-341.344 170.656z"  horiz-adv-x="1024" />

    
    <glyph glyph-name="sousuo" unicode="&#59060;" d="M1006.144-157.984l-154.304 154.304c78.08 86.72 126.208 201.088 126.208 326.656C978.048 592.608 758.656 812 489.024 812S0 592.608 0 322.976s219.392-489.024 489.024-489.024c116.544 0 223.68 41.152 307.712 109.44L952.192-212 1006.144-157.984zM76.352 323.04c0 227.584 185.152 412.672 412.672 412.672s412.672-185.088 412.672-412.672-185.088-412.672-412.672-412.672S76.352 95.392 76.352 323.04z"  horiz-adv-x="1024" />

    
    <glyph glyph-name="htmal5icon18" unicode="&#58934;" d="M703.335746 345.733465l-153.069211 0 0-153.069211-76.535117 0 0 153.069211-153.069211 0 0 76.535117 153.069211 0 0 153.069211 76.535117 0 0-153.069211 153.069211 0L703.335746 345.733465zM511.998977 766.672516c-210.469526 0-382.672516-172.201967-382.672516-382.672516s172.20299-382.672516 382.672516-382.672516c210.469526 0 382.672516 172.201967 382.672516 382.672516S722.469526 766.672516 511.998977 766.672516z"  horiz-adv-x="1024" />

    
    <glyph glyph-name="chakan" unicode="&#58958;" d="M914.297945 896C314.456393 896 0 454.071569 0 383.980974c0-70.052544 314.456393-511.980974 914.297945-511.980974 599.8035 0 914.297945 441.928431 914.297945 511.980974C1828.633942 454.071569 1514.101446 896 914.297945 896zM914.297945-9.888596c-224.46494 0-406.388466 176.329977-406.388466 393.86957 0 217.539593 181.923526 393.86957 406.388466 393.86957 224.426889 0 406.388466-176.291925 406.388466-393.86957C1320.686411 166.441381 1138.762885-9.888596 914.297945-9.888596zM914.297945 383.980974c-37.252276 40.867155 60.653859 196.953811 0 196.953811-112.213444 0-203.194233-88.20304-203.194233-196.953811s90.980789-196.915759 203.194233-196.915759c112.175393 0 203.194233 88.164988 203.194233 196.915759C1117.492178 433.942403 945.918621 349.240088 914.297945 383.980974z"  horiz-adv-x="1829" />

    
    <glyph glyph-name="tianjia" unicode="&#58962;" d="M417.241325 896l189.561931 0 0-1024-189.561931 0 0 1024ZM0 478.780966l1024.022291 0 0-189.561931-1024.022291 0 0 189.561931Z"  horiz-adv-x="1025" />

    
    <glyph glyph-name="xuefen" unicode="&#58929;" d="M511.706311 831.979918c-247.272733 0-447.725114-200.453405-447.725114-447.725114s200.452381-447.725114 447.725114-447.725114 447.725114 200.453405 447.725114 447.725114S758.979044 831.979918 511.706311 831.979918zM637.84415 190.147944l-126.137839 59.162448L385.565403 190.147944l17.288758 138.243551-95.243201 101.685937 136.820132 26.28362 67.276243 122.001635 67.273173-122.001635 136.823202-26.28362-95.246271-101.685937L637.84415 190.147944z"  horiz-adv-x="1024" />

    
    <glyph glyph-name="zhuti" unicode="&#59306;" d="M876.572788 373.698377c-1.886977-12.375865-9.657964-30.331819-35.880185-45.48903-56.489572-32.697703-150.21828-83.990926-174.010149-96.958262-13.143345-24.431435-66.067718-122.221646-98.141204-178.503487-16.117073-28.124548-36.055171-34.041304-50.030463-34.041304-0.031722 0-0.031722 0-0.031722 0-14.613836 0-29.1806 6.460132-43.234687 19.218714-47.183626 42.643216-125.994576 117.105115-146.013515 136.083351-27.757181 4.732791-138.338718 23.743774-200.584388 35.752272-17.924231 3.533476-32.649608 14.07046-40.372499 29.084409-5.78782 11.256368-10.281157 30.05962 1.471514 55.658647 26.989701 59.047838 74.126254 157.557432 85.957721 182.196599-3.437286 27.117614-16.996093 135.060045-23.760147 198.905142-1.886977 17.460674 3.901867 35.096333 15.829524 48.351218 12.791327 14.278191 30.667463 21.48943 49.854455 19.426445 63.669088-6.332219 173.259042-19.426445 200.584388-22.705118 24.335245 11.879562 121.085776 58.936297 180.133613 86.34146 9.91379 4.573155 19.85828 6.92369 29.596062 6.92369 28.748764 0 52.172243-20.642133 58.328453-51.421136 12.599969-62.997799 30.93864-166.70272 35.639708-193.484689 18.851347-19.682271 91.953272-96.031147 135.060045-143.07151C872.72004 408.874527 879.307062 391.28594 876.572788 373.698377L876.572788 373.698377zM825.375755 396.914124C776.017604 450.685795 687.245791 543.022807 686.365748 543.982668c-2.942005 3.069919-4.956895 6.971785-5.676279 11.208273-0.207731 1.215688-22.193465 127.001509-36.551474 198.936865-0.799202 3.917216-4.285606 16.836457-16.196891 16.836457-3.453658 0-7.30743-1.006933-11.464099-2.942005-67.282383-31.179117-183.955662-88.180342-185.170327-88.771813-3.693112-1.790786-7.850805-2.558265-11.975752-2.01489-1.295506 0.224104-133.63765 16.165168-205.988468 23.424502-0.079818 0-0.207731 0-0.287549 0-7.30743 0-11.128455-2.89391-13.319353-5.40408-3.677762-4.124947-5.644557-9.91379-5.068436-15.110139 7.674796-72.623018 24.255427-202.934922 24.463158-204.325595 0.511653-4.109598-0.159636-8.266267-1.966795-11.960403-0.591471-1.215688-57.657164-120.04712-88.339977-187.201589-3.565199-7.754614-4.41352-14.214746-2.350534-18.131963 1.935072-3.725858 6.588045-5.820566 10.360975-6.53995 70.719668-13.718443 204.644867-36.519752 206.036563-36.727483 4.189416-0.671289 8.058536-2.686179 11.112082-5.580089 1.006933-0.87902 96.414887-91.281983 150.090367-139.889027 8.314363-7.563256 13.143345-8.106632 14.437827-8.106632 3.485381 0 8.314363 4.621251 12.727882 12.391215 36.343743 63.828724 100.011808 181.988868 100.636025 183.155437 1.983167 3.64604 5.004991 6.667863 8.650007 8.650007 1.134847 0.671289 114.418936 62.373583 178.6314 99.516528 8.698103 5.036713 14.278191 10.568706 14.94948 14.854313C834.681702 384.154519 831.49922 390.199189 825.375755 396.914124L825.375755 396.914124zM935.333076-39.670256c-4.157693-4.157693-9.689686-6.299473-15.141862-6.299473-5.548366 0-11.048637 2.142803-15.238053 6.299473l-171.915441 171.915441c-8.362458 8.394181-8.362458 21.98471 0 30.426987 8.394181 8.394181 21.98471 8.394181 30.379914 0l171.915441-171.915441C943.727257-17.684522 943.727257-31.275052 935.333076-39.670256L935.333076-39.670256z"  horiz-adv-x="1024" />

    
    <glyph glyph-name="fabu" unicode="&#58947;" d="M934.784072 125.312286c-4.919033-103.121636-90.146113-185.509041-194.157002-185.509041l-3.523243 0L284.933471-60.196755l-3.51915 0c-104.013959 0-189.285041 82.387405-194.19998 185.509041l-0.213871 0 0 9.457396L87.00047 633.627361l0 1.654686 0 9.411347 0.213871 0c4.91494 103.161544 90.186022 185.549973 194.19998 185.549973l359.013677 0 0-0.044002 27.604708 0-83.829244-70.850651L563.088562 759.348714l-41.425482 0-90.403986 0L281.414321 759.348714c-68.183915 0-123.728976-55.67809-123.728976-124.06769l0-23.833825 0-1.824555 0-124.658138L157.685345 162.920836l0-0.252757 0-27.898397c0-68.394716 55.54506-124.068713 123.728976-124.068713l149.844773 0 0 0 159.51911 0 0 0 149.848866 0c68.180845 0 123.724883 55.672974 123.724883 124.068713l0 25.65224 0 0.765433L864.351953 285.085176 864.351953 485.050464l70.685899 69.666686L935.037852 134.769682l0-9.457396L934.784072 125.312286 934.784072 125.312286zM690.674379 436.498678l-51.260477-54.102199c-17.004279-17.388019-60.044538-61.019749-73.65144-75.43711-13.657045-14.500249-24.976858-26.412556-33.9226-35.783994-8.948813-9.372461-14.332427-14.754029-15.986089-16.072047-4.327562-3.985778-9.203616-8.184403-14.759145-12.676717-5.510504-4.453429-11.275811-8.015557-17.253966-10.68434-5.978155-3.140527-14.71412-6.872524-26.248827-11.449773-11.533684-4.452405-23.574928-8.775874-36.211736-13.020548-12.592806-4.238534-24.550139-7.885598-35.830043-11.022031-11.320836-3.051499-19.759019-5.132904-25.314549-6.062066-11.489682-1.316995-19.162432 0.506537-23.023366 5.381567-3.855818 4.879124-4.91494 13.18837-3.220345 24.678052 0.890276 6.27696 2.883677 15.309684 6.108115 27.098171 3.176342 11.827373 6.613628 24.081465 10.216689 36.759205 3.647063 12.681834 7.166213 24.424272 10.556427 35.108612 3.437286 10.68434 6.191003 18.063401 8.353248 22.049179 2.543939 6.192026 5.430686 11.916401 8.651031 17.045211 3.180436 5.132904 7.757684 10.813277 13.740956 17.045211 2.539846 2.673899 8.522094 9.03477 17.934464 19.038612 9.367345 10.05296 48.720631 50.076512 62.794162 64.790632l46.728254 48.805566 51.901067 54.102199L703.608969 700.665173l120.758318-122.501008L690.674379 436.498678 690.674379 436.498678zM907.223367 664.751219c-6.360871-6.659677-12.085246-12.468986-17.130146-17.472953-5.048993-5.004991-9.457396-9.457396-13.18837-13.314237-4.239558-4.452405-8.185426-8.353248-11.916401-11.658528L744.822626 744.759437c6.404873 6.108115 13.953803 13.44215 22.729677 22.050202 8.775874 8.606005 16.110933 15.394618 21.920242 20.398586 7.502881 6.101975 15.181771 10.386558 23.192212 12.885472 7.29515 2.291183 14.46034 3.394307 21.542642 3.349281l1.948375 0c3.89982-0.168846 7.761778-0.546446 11.492752-1.182942-0.083911 0.040932-0.257873 0-0.341784 0.040932 0.083911 0 0.25685 0 0.341784-0.040932 16.155958-3.010567 33.072233-11.70253 47.448662-25.612331 7.971555-7.761778 14.45727-16.408715 19.162432-25.313525 6.957459-13.144368 10.261715-26.885324 9.626241-39.433104 0-1.52575 0.128937-3.096525 0.128937-4.666276 0-7.250124-1.356904-14.456247-4.02978-21.666462C917.316236 678.362214 913.031653 671.404756 907.223367 664.751219L907.223367 664.751219zM907.223367 664.751219"  horiz-adv-x="1024" />

    
    <glyph glyph-name="085shucezhongxin" unicode="&#58970;" d="M957.666734 96.919632c3.145643-18.946514-0.845251-35.967166-11.879562-51.110051s-26.012444-24.299429-44.935422-27.445072L787.314904 0.404462c-18.266016-3.170203-35.168987 0.774643-50.617841 11.808954-15.400758 11.057847-24.697495 26.03598-27.891234 44.959981l-96.444563 611.211583c-1.267876 9.437953-0.845251 18.429745 1.360997 26.951839 2.254344 8.499581 5.869684 16.410762 10.894118 23.642466 5.024433 7.277754 11.504008 13.240559 19.392676 17.983583 7.887644 4.718465 16.527418 8.052396 26.012444 9.954723l112.598474 17.936511c18.874883 3.169179 35.966143-0.938372 51.086515-12.278651 15.166421-11.362792 24.275893-26.505677 27.468608-45.405119L957.666734 96.919632 957.666734 96.919632zM529.814226 768.655683c18.922978 0 35.027771-6.597255 48.269353-19.885909 13.241582-13.218046 19.862373-29.300326 19.862373-48.245817l0-631.989815c0-18.946514-6.620791-35.027771-19.862373-48.244794-13.240559-13.288654-29.346375-19.885909-48.269353-19.885909l-98.416474 0c-18.875906 0-34.981722 6.596232-48.223305 19.885909-13.240559 13.217023-19.86135 29.299303-19.86135 48.244794L363.313098 700.523957c0 18.946514 5.071506 35.028794 15.119349 48.245817 10.141988 13.241582 24.885783 19.885909 44.512796 19.885909L529.814226 768.655683 529.814226 768.655683 529.814226 768.655683zM529.814226 291.805228c6.291287 0 11.692297 2.981914 16.104793 8.991792 4.367471 5.987365 6.621814 13.07683 6.621814 21.295002 0 8.827039-2.254344 16.057721-6.621814 21.763676-4.41352 5.65786-9.813506 8.499581-16.104793 8.499581l-98.416474 0c-6.291287 0-11.645225-2.840698-16.058744-8.499581-4.41352-5.704932-6.620791-12.936637-6.620791-21.763676 0-8.217149 2.207271-15.307637 6.620791-21.295002 4.41352-6.009877 9.767458-8.991792 16.058744-8.991792L529.814226 291.805228 529.814226 291.805228 529.814226 291.805228zM529.814226 411.962865c6.291287 0 11.692297 3.00545 16.104793 8.991792 4.367471 5.987365 6.621814 13.406335 6.621814 22.25691 0 8.804527-2.254344 16.057721-6.621814 21.74014-4.41352 5.65786-9.813506 8.498558-16.104793 8.498558l-98.416474 0c-6.291287 0-11.645225-2.839675-16.058744-8.498558-4.41352-5.682419-6.620791-12.936637-6.620791-21.74014 0-8.850575 2.207271-16.269545 6.620791-22.25691 4.41352-5.987365 9.767458-8.991792 16.058744-8.991792L529.814226 411.962865 529.814226 411.962865zM232.73104 768.655683c18.922978 0 35.168987-6.597255 48.739051-19.885909 13.570063-13.218046 20.332071-29.300326 20.332071-48.245817l0-631.989815c0-18.946514-6.760984-35.027771-20.332071-48.244794-13.570063-13.288654-29.816073-19.885909-48.739051-19.885909l-98.417497 0c-18.922978 0-35.122939 6.596232-48.691979 19.885909-13.570063 13.217023-20.331048 29.299303-20.331048 48.244794L65.290517 700.523957c0 18.946514 6.760984 35.028794 20.331048 48.245817 13.570063 13.241582 29.769001 19.885909 48.691979 19.885909L232.73104 768.655683 232.73104 768.655683 232.73104 768.655683zM138.117173 532.120502c-6.949272 0-12.583596-2.839675-16.997116-8.522094-4.41352-5.65786-6.667863-12.936637-6.667863-21.763676 0-8.170077 2.25332-15.284101 6.667863-21.270443 4.41352-5.987365 10.047844-9.016351 16.997116-9.016351l90.811262 0c6.949272 0 12.490475 3.028986 16.622586 9.016351 4.037966 5.987365 6.104021 13.100366 6.104021 21.270443 0 8.827039-2.066055 16.104793-6.104021 21.763676-4.13211 5.682419-9.673313 8.522094-16.622586 8.522094L138.117173 532.120502 138.117173 532.120502zM232.73104 235.037317c6.949272 0 12.443403 2.840698 16.57449 8.499581 4.085038 5.681396 6.104021 12.654204 6.104021 20.824281 0 8.828063-2.018983 15.918551-6.104021 21.295002-4.13211 5.376451-9.625218 8.052396-16.57449 8.052396l-94.613868 0c-6.949272 0-12.583596-2.675946-16.997116-8.052396-4.41352-5.376451-6.667863-12.466939-6.667863-21.295002 0-8.169053 2.25332-15.142885 6.667863-20.824281 4.41352-5.65786 10.047844-8.499581 16.997116-8.499581L232.73104 235.037317 232.73104 235.037317zM232.73104 351.391325c6.949272 0 12.443403 2.865257 16.57449 8.546653 4.085038 5.65786 6.104021 12.936637 6.104021 21.74014 0 8.827039-2.018983 16.104793-6.104021 21.763676-4.13211 5.682419-9.625218 8.522094-16.57449 8.522094l-94.613868 0c-6.949272 0-12.583596-2.839675-16.997116-8.522094-4.41352-5.65786-6.667863-12.936637-6.667863-21.763676 0-8.804527 2.25332-16.08228 6.667863-21.74014 4.41352-5.681396 10.047844-8.546653 16.997116-8.546653L232.73104 351.391325 232.73104 351.391325zM232.73104 351.391325"  horiz-adv-x="1024" />

    
    <glyph glyph-name="adjustable" unicode="&#58989;" d="M438.848 73.152v621.728q-84.576 0-156-41.728t-113.152-113.152-41.728-156 41.728-156 113.152-113.152 156-41.728zM877.728 384q0-119.424-58.848-220.288t-159.712-159.712-220.288-58.848-220.288 58.848-159.712 159.712-58.848 220.288 58.848 220.288 159.712 159.712 220.288 58.848 220.288-58.848 159.712-159.712 58.848-220.288z"  horiz-adv-x="1024" />

    
    <glyph glyph-name="shoucang1" unicode="&#58950;" d="M589.522824-6.023529C560.067765 9.456941 512.090353 9.366588 482.816-6.023529L275.847529-114.838588C216.967529-145.799529 178.386824-117.488941 189.590588-52.163765L229.104941 178.296471C234.736941 211.124706 219.828706 256.692706 196.126118 279.792941L28.702118 443.000471C-18.944 489.441882-3.915294 534.889412 61.650824 544.406588L293.044706 578.017882C325.993412 582.806588 364.724706 611.087059 379.392 640.752941L482.876235 850.432C512.331294 910.095059 560.188235 909.854118 589.492706 850.432L692.976941 640.752941C707.704471 610.906353 746.586353 582.776471 779.324235 578.017882L1010.718118 544.406588C1076.555294 534.829176 1091.132235 489.261176 1043.666824 443.000471L876.242824 279.792941C852.389647 256.542118 837.662118 210.913882 843.264 178.296471L882.778353-52.163765C894.012235-117.729882 855.160471-145.679059 796.521412-114.838588L589.522824-6.023529 589.522824-6.023529Z"  horiz-adv-x="1085" />

    
    <glyph glyph-name="xiaoxi" unicode="&#58985;" d="M631.324666 55.924963c-0.118704-65.960271-53.038984-119.394251-119.324666-119.394251-65.828264 0-119.205962 53.212946-119.324666 119.394251L631.324666 55.924963 631.324666 55.924963zM591.549777 751.919511c0 43.844577-35.616172 79.549777-79.549777 79.549777-43.844577 0-79.549777-35.616172-79.549777-79.549777 0-4.475941 0.37146-8.866948 1.084705-13.143345C323.686077 700.490188 233.573733 582.912305 233.573733 443.803038l0-109.521392c0 0 0-157.727301-38.750559-159.100578-23.101137 0-40.799218-17.807574-40.799218-39.774889 0-22.12081 17.805528-39.774889 39.769772-39.774889l318.206272 0 278.426267 0 39.781028 0c22.071691 0 39.768749 17.807574 39.768749 39.774889 0 22.12081-17.805528 39.774889-39.768749 39.774889-39.781028 0-39.781028 157.994384-39.781028 157.994384L790.426267 443.787688c0 139.288347-84.260056 256.917394-199.941751 295.089785C591.18548 743.121124 591.549777 747.478362 591.549777 751.919511z"  horiz-adv-x="1024" />

    
    <glyph glyph-name="huizhang" unicode="&#58897;" d="M615.568309 833.610044 404.585083 833.610044 241.372861 833.610044c-19.705807 0-35.933397-16.158005-35.933397-36.074613l0-143.41841c0-19.881816 13.119809-45.5228 29.29521-57.184397l162.03542-116.759237c5.901407-4.249791 11.416004-6.040576 16.016789-5.690606 2.072195-0.350994 4.214998-0.561795 6.392594-0.561795l179.63424 0c2.879584 0 5.690606 0.350994 8.377808 0.983397 5.040806-1.370207 11.4334 0.280386 18.388812 5.26798l162.03542 116.759237c16.175401 11.661597 29.29521 37.302581 29.29521 57.184397l0 143.41841c0 19.916609-16.228613 36.074613-35.93442 36.074613L615.568309 833.609021zM565.1275 770.592802c0 14.929014 11.977799 27.047006 26.976398 27.047006 14.893198 0 26.976398-11.977799 26.976398-27.047006l0-233.621828c0-14.963807-11.977799-27.081799-26.976398-27.081799-14.893198 0-26.976398 12.012591-26.976398 27.081799L565.1275 770.592802zM403.268088 770.592802c0 14.929014 11.977799 27.047006 26.976398 27.047006 14.893198 0 26.976398-11.977799 26.976398-27.047006l0-233.621828c0-14.963807-11.977799-27.081799-26.976398-27.081799-14.894222 0-26.976398 12.012591-26.976398 27.081799L403.268088 770.592802zM511.17368-65.610044c139.063219 0 251.782444 112.717178 251.782444 251.78142 0 139.062196-112.718201 251.780397-251.782444 251.780397-139.063219 0-251.78142-112.719224-251.78142-251.780397C259.39226 47.107133 372.111484-65.610044 511.17368-65.610044z"  horiz-adv-x="1024" />

    
    <glyph glyph-name="ai-book" unicode="&#58925;" d="M893.615 775.155c-19.081 0-31.801-12.72-31.801-31.801v-737.789c0-31.801-31.801-63.602-63.602-63.602l-559.702-0c-38.161 0-82.683 31.801-82.683 63.602v69.963c0 31.801 38.161 50.882 76.323 50.882h534.261c19.081 0 31.801 12.72 31.801 31.801v623.304c0 69.963-50.882 114.484-127.205 114.484h-432.497c-69.963 0-139.925-38.161-139.925-114.484v-782.311c0 0 0 0 0-6.36s0-6.36 0-12.72c6.36-57.242 63.602-101.764 120.845-108.124 0 0 6.36 0 6.36 0 0 0 0 0 6.36 0h566.062c69.963 0 127.205 57.242 127.205 120.845l0 750.509c0 12.72-12.72 31.801-31.801 31.801zM772.77 62.807h-521.54c-19.081 0-31.801-12.72-31.801-31.801s12.72-31.801 31.801-31.801h521.54c19.081 0 31.801 12.72 31.801 31.801s-12.72 31.801-31.801 31.801z"  horiz-adv-x="1024" />

    
    <glyph glyph-name="bi" unicode="&#58923;" d="M295.581454-35.441151 92.254451 167.884845l562.02665 562.031684 203.325996-203.325996L295.581454-35.441151 295.581454-35.441151zM295.581454-35.441151M988.661735 752.957819 880.643352 860.97016c-26.31967 26.31967-70.851666 24.461989-99.461973-4.153353L679.701633 755.337061l203.325996-203.325996L984.507375 653.489805C1013.111641 682.106153 1014.976371 726.639156 988.661735 752.957819L988.661735 752.957819zM988.661735 752.957819M73.372554 135.898491 1.485823-126.19971l262.070009 71.887738L73.372554 135.898491zM73.372554 135.898491"  horiz-adv-x="1024" />

    
    <glyph glyph-name="geren2" unicode="&#58933;" d="M936.896 110.208c9.28 14.336 17.664 29.056 25.472 44.224 1.856 3.648 3.52 7.36 5.312 11.072 5.952 12.288 11.392 24.832 16.32 37.632 1.984 5.184 3.904 10.368 5.76 15.616 4.096 11.904 7.68 23.936 10.944 36.16 1.536 5.888 3.2 11.712 4.544 17.6 2.816 12.608 4.992 25.472 6.848 38.464 0.832 5.568 1.92 11.008 2.56 16.64 2.048 18.56 3.328 37.312 3.328 56.32 0 278.976-227.008 505.984-505.984 505.984S6.016 662.976 6.016 384c0-19.072 1.28-37.824 3.328-56.32 0.64-5.632 1.728-11.072 2.56-16.704 1.92-12.928 4.032-25.728 6.848-38.336 1.344-6.016 3.008-11.84 4.544-17.664 3.264-12.224 6.848-24.32 10.944-36.16 1.792-5.248 3.712-10.432 5.696-15.616 4.928-12.8 10.432-25.344 16.32-37.632 1.792-3.712 3.456-7.424 5.312-11.072 7.744-15.168 16.192-29.888 25.408-44.096 0.32-0.576 0.64-1.152 1.024-1.664C178.432-30.016 334.592-121.984 512-121.984s333.632 92.032 423.936 230.656C936.256 109.184 936.576 109.696 936.896 110.208zM512 647.552c102.592 0 185.984-83.456 185.984-185.984 0-102.656-83.456-186.176-185.984-186.176S326.016 358.912 326.016 461.568C326.016 564.096 409.408 647.552 512 647.552zM204.416 67.2C257.216 187.904 377.152 268.736 512 268.736s254.784-80.896 307.648-201.472C739.968-10.112 631.552-57.984 512-57.984 392.448-57.984 284.032-10.112 204.416 67.2z"  horiz-adv-x="1024" />

    
    <glyph glyph-name="falv1" unicode="&#58905;" d="M-0.000575 357.667698l10.281013 0 0 0-10.281013 0 0 0ZM157.760839 207.405715l10.281013 0 0 0-10.281013 0 0 0ZM1669.856098 383.949426c0-0.002408-0.046962-0.003612-0.116802-0.006021L1517.099122 721.880239l0 32.868416L1237.02279 754.748655c0 47.904609-31.406581 82.514223-72.940044 82.514223-39.24197 0-72.936432-32.314508-72.936432-82.514223L818.204558 754.748655l-2.545568 0 0-38.283469L665.536689 383.944609c-0.054187 0.001204-0.089107 0.003612-0.087903 0.004817 0-0.065024 0.002408-0.130048 0.002408-0.195072l-0.002408-0.004817 0.002408 0c0.096332-98.435464 70.942363-188.03128 180.751002-188.03128 112.237405 0 180.632996 89.557283 180.754615 187.968664l0.003612 0-0.003612 0.008429c0 0.085494 0.002408 0.169785 0.002408 0.255279 0-0.002408-0.046962-0.003612-0.114394-0.006021L890.08134 687.950969l217.925451 0 0-641.22793L894.364493 46.723039c-81.921782 0-116.184601-40.491876-116.184601-115.985917l778.943897 0c0 64.825293-33.368138 115.985917-116.194235 115.985917l-113.802797 0-112.44211 0L1214.684646 688.014788l230.601514 0-136.791181-304.071383c-0.090311 0.002408-0.151723 0.004817-0.150518 0.006021 0-98.514938 70.870114-188.232372 180.753411-188.232372 112.237405 0 180.632996 89.557283 180.754615 187.968664l0.002408 0-0.002408 0.006021C1669.852486 383.777233 1669.856098 383.863931 1669.856098 383.949426zM948.807624 383.827807c-60.738415-0.031308-144.578405-0.031308-205.295146 0l102.721026 260.893054L948.807624 383.827807zM1386.470769 383.827807l102.59459 260.893054 102.57412-260.893054C1530.927555 383.797703 1447.161018 383.797703 1386.470769 383.827807z"  horiz-adv-x="1680" />

    
    <glyph glyph-name="tuichu" unicode="&#58957;" d="M1024 450.56L828.414771 270.33466899999996l0 116.73472L506.88 387.069389l0 126.98112 321.53472 0 0 116.73472L1024 450.56zM690.174771 854.014669L100.34944 854.014669l314.37056-133.12 0-630.78528 275.45472 0L690.17472 344.06528000000003l46.08 0 0-296.96L414.72 47.10527999999999 414.72-128 0 47.10522900000001 0 896l736.25472 0 0-339.97056-46.08 0L690.17472 854.01472 690.174771 854.014669zM690.174771 854.014669"  horiz-adv-x="1024" />

    
    <glyph glyph-name="shanchu" unicode="&#59574;" d="M549.554512 384.460478l271.784151 269.430599c5.525732 5.525732 8.288598 12.688718 8.288598 19.954032s-2.762866 14.4283-8.288598 19.954032c-11.051464 11.051464-28.8566 11.051464-39.908064 0L509.441791 424.163885 237.452983 693.799141c-11.051464 11.051464-28.8566 11.051464-39.908064 0-5.525732-5.525732-8.288598-12.688718-8.288598-19.954032s2.762866-14.4283 8.288598-19.954032l271.784151-269.430599L197.544919 115.029879c-5.525732-5.525732-8.288598-12.688718-8.288598-19.954032s2.762866-14.4283 8.288598-19.954032c5.525732-5.525732 12.688718-8.288598 19.954032-8.288598s14.4283 2.762866 19.954032 8.288598L509.441791 344.75707l271.988808-269.635255c5.525732-5.525732 12.688718-8.288598 19.954032-8.288598s14.4283 2.762866 19.954032 8.288598 8.288598 12.688718 8.288598 19.954032-2.762866 14.4283-8.288598 19.954032L549.554512 384.460478z"  horiz-adv-x="1024" />

    
    <glyph glyph-name="jingcha" unicode="&#58894;" d="M789.674649 566.820815c-93.897553 38.384216-181.067892 164.014494-277.676184 164.014494S328.220858 605.205031 234.323305 566.820815c-106.874099-43.689035-159.806659-48.596811-159.806659-79.424934 0-25.711592 47.267537-71.527057 62.542428-90.099041s12.67774-48.28675 13.663184-60.946071c129.492236-49.866734 361.27723-52.733015 361.27723-52.733015s231.784994 2.866281 361.278253 52.733015c0.985444 12.659321-1.611707 42.374086 13.663184 60.946071s62.541405 64.387449 62.541405 90.099041C949.481308 518.224004 896.549771 523.130757 789.674649 566.820815zM600.692506 457.848938c-12.037151-66.168002-47.344285-121.773438-88.693018-121.773438-35.399231 0-83.173304 54.746882-88.687902 121.773438-6.062066 73.678046 32.507368 121.773438 88.687902 121.773438S613.723288 529.480372 600.692506 457.848938zM168.899246 262.665561c7.442506-77.835739 158.225651-225.980801 343.175967-225.980801 185.009667 0 335.830675 148.240229 343.182107 226.055502-72.849168-34.751478-199.3687-57.744145-343.257831-57.744145C368.214734 204.996117 241.773997 227.956038 168.899246 262.665561z"  horiz-adv-x="1024" />

    
    <glyph glyph-name="ceshihuoke" unicode="&#59064;" d="M882.257254 624.473887l-33.44267-33.483602L749.728868 690.160935l33.463136 33.505092c18.21792 18.228153 47.856961 18.228153 66.064648 0l33.000602-33.042557C900.464941 672.395316 900.464941 642.723529 882.257254 624.473887zM535.681864 277.604808l-4.098341-4.055362-4.632507-4.854565-121.843022-22.11467 22.662139 121.212666 4.811586 4.843308 4.097318 4.117784 280.090163 280.384875 99.013061-99.107205L535.681864 277.604808zM364.764146 205.826018l198.612477 36.56273 253.257028 257.616312 0-297.204959c0-95.061053-77.0744-172.137499-172.137499-172.137499L300.223201 30.662603c-95.072309 0-172.136475 77.075423-172.136475 172.137499L128.086725 547.074076c0 95.062076 77.064166 172.137499 172.136475 172.137499l344.273974 0c19.720134 0 38.601156-3.488451 56.240909-9.592472L401.641031 405.88852 364.764146 205.826018z"  horiz-adv-x="1024" />

    
    <glyph glyph-name="luntanxuanze" unicode="&#59114;" d="M455.111111 725.333333 113.898894 725.333333C50.887908 725.333333 0 674.369519 0 611.50247L0 156.784364C0 93.685407 50.92022 42.953503 113.73349 42.953503L172.21302 42.953503C187.973689 42.953503 198.184505 30.337391 195.307292 14.77463L181.350827-60.715733C169.909817-122.600124 204.185998-145.96709 257.868999-113.123009L464.356153 13.20906C491.464903 29.794603 538.455068 42.953503 569.888996 42.953503L796.386503 42.953503C859.102066 42.953503 910.222222 93.917315 910.222222 156.784364L910.222222 611.50247C910.222222 674.601426 859.227961 725.333333 796.323328 725.333333L512.309988 725.333333 512.309988 811.219408C512.309988 826.893258 525.251726 839.599423 540.501248 839.599423L1052.603563 839.599423C1068.17317 839.599423 1080.794823 826.778422 1080.794823 810.910009L1080.794823 469.367854C1080.794823 453.523129 1068.194816 440.67844 1052.108743 440.67844L1023.9552 440.67844C992.56357 440.67844 967.115605 415.234213 967.115605 383.630279L967.115605 400.929573C967.115605 385.143677 956.280519 379.430502 943.28357 387.927708L910.919879 409.086589 910.919879 350.331489 931.15702 335.95588C982.49674 299.486367 1024.115769 320.887504 1024.115769 383.522142L1024.115769 355.687228C1024.115769 371.240522 1036.71387 383.848957 1052.797497 383.848957L1080.946773 383.848957C1112.333682 383.848957 1137.777778 409.246609 1137.777778 440.614906L1137.777778 839.234051C1137.777778 870.58502 1112.262372 896 1080.748174 896L512.140715 896C480.644124 896 455.111111 870.737286 455.111111 838.989346L455.111111 725.333333 455.111111 725.333333ZM170.666667 298.666667C170.666667 314.376098 183.465216 327.111111 199.305813 327.111111L540.249742 327.111111C556.066702 327.111111 568.888889 314.485623 568.888889 298.666667 568.888889 282.957235 556.09034 270.222222 540.249742 270.222222L199.305813 270.222222C183.488853 270.222222 170.666667 282.84771 170.666667 298.666667L170.666667 298.666667ZM170.666667 469.333333C170.666667 485.042765 183.617593 497.777778 198.877952 497.777778L711.34427 497.777778C726.924942 497.777778 739.555556 485.15229 739.555556 469.333333 739.555556 453.623902 726.604629 440.888889 711.34427 440.888889L198.877952 440.888889C183.29728 440.888889 170.666667 453.514377 170.666667 469.333333L170.666667 469.333333Z"  horiz-adv-x="1138" />

    
    <glyph glyph-name="shouye" unicode="&#59045;" d="M996.7104 454.02112 609.4336 857.1904C585.36448 882.22208 553.20064 896 518.72256 896S452.08064 882.22208 428.01664 857.1904L40.73984 454.02112c-39.9616-41.61536-34.816-77.58336-28.2112-92.61056 4.70528-10.65984 20.60288-39.9616 66.39616-39.9616l56.76544 0 0-310.15936c0-70.41536 50.56-136.71936 122.41408-136.71936l65.14688 0L422.9632-125.42976l0 72.87808 0 255.36c0 35.19488-5.32992 54.79936 30.61248 54.79936l65.14688 0 65.14688 0c35.93728 0 30.61248-19.60448 30.61248-54.79936l0-255.36 0-72.87808 99.71712 0 65.152 0c71.84896 0 122.40384 66.304 122.40384 136.71936l0 310.15936 56.77056 0c45.77792 0 61.68576 29.30176 66.39616 39.9616C1031.53664 376.43264 1036.672 412.40576 996.7104 454.02112z"  horiz-adv-x="1030" />

    
    <glyph glyph-name="dianpuzhenduan" unicode="&#58951;" d="M142.336 509.952c0 102.4 36.864 190.464 108.544 264.192C324.608 846.848 412.672 883.712 515.072 883.712 618.496 883.712 706.56 846.848 780.288 773.12c73.728-73.728 109.568-160.768 109.568-264.192 0-14.336 0-28.672-2.048-43.008-2.048-2.048-2.048-7.168-2.048-9.216L880.64 421.888c-2.048 0-2.048-3.072-2.048-6.144-4.096-13.312-8.192-24.576-11.264-34.816l0-2.048c0 0 0 0-2.048-2.048-5.12-14.336-10.24-26.624-15.36-36.864 0-1.024 0-2.048-2.048-2.048-6.144-13.312-13.312-25.6-21.504-36.864-8.192-11.264-16.384-23.552-25.6-34.816 0 0 0 0-1.024-1.024L798.72 264.192c-8.192-9.216-17.408-18.432-27.648-27.648 0 0-1.024 0-3.072-2.048-5.12-3.072-5.12-6.144-10.24-11.264-2.048 0-6.144-1.024-6.144-4.096l-18.432-14.336-4.096-3.072L727.04 199.68c-11.264-9.216-19.456-19.456-25.6-30.72-5.12-11.264-10.24-19.456-15.36-25.6-5.12-5.12-15.36-8.192-29.696-8.192L375.808 135.168c-14.336 0-23.552 2.048-29.696 8.192-5.12 5.12-10.24 13.312-16.384 25.6-6.144 11.264-14.336 21.504-24.576 30.72-1.024 0-2.048 0-4.096 2.048l-3.072 3.072-18.432 14.336-6.144 4.096-8.192 8.192-6.144 6.144-27.648 27.648c0 0 0 0-1.024 1.024l-1.024 1.024c-18.432 23.552-33.792 46.08-47.104 71.68-1.024 0-2.048 0-2.048 2.048-5.12 10.24-10.24 22.528-15.36 36.864-1.024 0-2.048 0-2.048 2.048l0 2.048c-4.096 10.24-8.192 21.504-11.264 34.816 0 0 0 1.024-1.024 3.072l-1.024 3.072c-2.048 10.24-4.096 21.504-6.144 34.816 0 2.048-2.048 7.168-2.048 9.216C143.36 481.28 142.336 495.616 142.336 509.952L142.336 509.952 142.336 509.952 142.336 509.952 142.336 509.952zM362.496 73.728l311.296 0c18.432 0 30.72-13.312 30.72-30.72 0-18.432-13.312-30.72-30.72-30.72L362.496 12.288c-18.432 0-30.72 13.312-30.72 30.72C331.776 60.416 344.064 73.728 362.496 73.728L362.496 73.728 362.496 73.728 362.496 73.728 362.496 73.728zM375.808-51.2l282.624 0-114.688-58.368c-18.432-8.192-38.912-8.192-56.32 0L375.808-51.2 375.808-51.2 375.808-51.2 375.808-51.2zM549.888 696.32c37.888 0 72.704-15.36 106.496-46.08 32.768-30.72 49.152-68.608 49.152-113.664 0-15.36 13.312-30.72 30.72-30.72 18.432 0 30.72 15.36 30.72 30.72 0 67.584-21.504 120.832-66.56 161.792-44.032 39.936-95.232 60.416-151.552 60.416-18.432 0-30.72-13.312-30.72-30.72C518.144 709.632 531.456 696.32 549.888 696.32L549.888 696.32 549.888 696.32 549.888 696.32zM549.888 696.32"  horiz-adv-x="1024" />

    
    <glyph glyph-name="xinxiangtianchong" unicode="&#58889;" d="M551.392684 373.386268l407.296333 295.900244c-14.654768 37.32714-50.847062 63.920822-93.299943 63.920822l-706.777125 0c-42.453904 0-78.645175-26.593681-93.267197-63.920822l407.262564-295.900244C492.492202 358.937185 531.509844 358.937185 551.392684 373.386268zM511.999488 302.136527c-27.867698 0-54.391794 8.119935-74.620511 22.809495L58.223564 600.410841l0-465.198068c0-55.388495 45.033659-100.42113 100.388385-100.42113l706.777125 0c55.354725 0 100.387361 45.032636 100.387361 100.42113L965.776436 600.410841 586.621023 324.946023C566.394353 310.255439 539.868209 302.136527 511.999488 302.136527z"  horiz-adv-x="1024" />

    
    <glyph glyph-name="weibiaoti2fuzhi01" unicode="&#58910;" d="M960 172.8 960 172.8c0 6.4 0 6.4 0 12.8l0 0 0 19.2c0 19.2-19.2 25.6-32 25.6-19.2 0-25.6-19.2-25.6-32l0-32c0 0 0 0 0-6.4-6.4-96-179.2-166.4-390.4-166.4-211.2 0-384 76.8-390.4 166.4 0 0 0 0 0 6.4l0 32c0 19.2-12.8 32-25.6 32-19.2 0-32-12.8-32-25.6l0-32c0 0 0-6.4 0-6.4 0-128 198.4-230.4 448-230.4C761.6-64 960 38.4 960 172.8 960 166.4 960 166.4 960 172.8 960 172.8 960 172.8 960 172.8M960 390.4l0 32c0 19.2-19.2 25.6-32 25.6-19.2 0-25.6-19.2-25.6-32l0-6.4 0 0c0 0 0 0 0 0l0-19.2c0 0 0-6.4 0-6.4C896 288 723.2 211.2 512 211.2c-211.2 0-390.4 76.8-390.4 172.8 0 0 0 0 0 6.4l0 32C128 428.8 115.2 441.6 102.4 448 83.2 448 70.4 435.2 64 422.4l0-32C64 390.4 64 384 64 384c0 0 0 0 0 0 0-128 198.4-230.4 448-230.4 249.6 0 448 102.4 448 230.4C960 384 960 384 960 390.4 960 390.4 960 390.4 960 390.4zM512 774.4c217.6 0 390.4-76.8 390.4-172.8 0-96-172.8-172.8-390.4-172.8S121.6 505.6 121.6 601.6C121.6 697.6 294.4 774.4 512 774.4zM512 371.2c249.6 0 448 102.4 448 230.4 0 128-198.4 230.4-448 230.4C262.4 832 64 729.6 64 601.6 64 473.6 262.4 371.2 512 371.2z"  horiz-adv-x="1024" />

    
    <glyph glyph-name="icon-bisai" unicode="&#58952;" d="M914.89714 776.036791L816.70477 776.036791 816.70477 788.442332c0 27.174919-22.069645 49.202609-49.293683 49.202609L251.827469 837.644941c-27.225061 0-49.294706-22.028713-49.294706-49.202609l0-12.405541-93.430926 0c-58.533115 0-106.154715-47.532573-106.155738-105.95824l0-122.608455c0-121.417327 97.430006-220.547045 218.3541-223.589334 35.525098-87.237877 118.201076-148.312884 219.426525-148.312884l24.245194 0c0.089028 0 0.161682-0.071631 0.161682-0.161682L465.133599 28.601664000000028c0-0.089028-0.071631-0.161682-0.161682-0.161682L316.640614 28.439981999999986c-26.131147 0-47.495734-20.3597-49.043996-46.052872-1.708921-28.366048 21.61325-52.033074 50.082652-52.033074l392.032698 0c26.128077 0 47.495734 20.3597 49.042973 46.052872 1.708921 28.366048-21.614274 52.033074-50.083675 52.033074L563.561329 28.439981999999986c-0.089028 0-0.161682 0.071631-0.161682 0.161682l0.001023 146.808624c0 0.088004 0.070608 0.159636 0.158612 0.159636 101.106746 0.065492 192.155415 61.10059 231.946676 148.257625 0.490164-0.005117 0.977257-0.01842 1.467421-0.01842 123.55706 0 224.077451 100.333126 224.077451 223.660966L1021.050832 670.0785510000001C1021.052878 728.504218 973.433324 776.036791 914.89714 776.036791L914.89714 776.036791zM62.943564 547.470095L62.943564 670.077527c0 25.405623 20.707624 46.073338 46.158273 46.073338l93.430926 0 0-295.206442c0-12.149714 0.836041-24.087605 2.433422-35.763528C124.886335 395.968589 62.943564 464.631412 62.943564 547.470095L62.943564 547.470095zM686.004009 617.476519l-79.974449-83.101673c-0.016373-0.047072-0.028653-0.086981-0.044002-0.134053l14.520715-113.169479c0.017396-0.125867-0.110517-0.218988-0.225127-0.166799l-105.946984 48.40136c-0.046049 0-0.088004 0-0.13303 0l-105.945961-48.40136c-0.11461-0.052189-0.242524 0.041956-0.226151 0.166799l14.521738 113.169479c-0.016373 0.047072-0.028653 0.086981-0.044002 0.134053l-79.976496 83.101673c-0.088004 0.092098-0.037862 0.246617 0.089028 0.271176l114.900913 21.509896c0.038886 0.026606 0.071631 0.051165 0.110517 0.077771l56.638975 100.225679 56.638975-100.225679c0.038886-0.026606 0.072655-0.051165 0.11154-0.077771l114.900913-21.509896C686.042895 617.7231360000001 686.093037 617.568616 686.004009 617.476519L686.004009 617.476519zM961.055412 547.470095c0-84.618213-64.627926-154.452721-147.202597-162.913417 1.86958 11.822257 2.851954 23.917736 2.851954 36.227086L816.70477 716.150866l98.19237 0c25.452695 0 46.158273-20.667715 46.158273-46.071292L961.055412 547.470095 961.055412 547.470095z"  horiz-adv-x="1024" />

    
    <glyph glyph-name="zaixian" unicode="&#59294;" d="M274.496771 459.211982l-80.757279 80.648808c-25.4046 25.468045-25.51921 66.624397-0.268106 92.199888l68.671009 69.435419c25.244964 25.594935 66.292845 25.716708 91.869361 0.299829l80.751139-80.573083c17.971303-17.977443 26.997887-43.974537 19.666922-66.693981l72.495104-71.290673c50.514487 50.980091 50.330292 133.669372-0.503467 184.349635L399.471111 794.31611c-50.711985 50.744731-132.929522 50.387597-183.571922-0.599657L101.526301 677.89661c-50.565652-51.0507-50.380434-133.604904 0.560772-184.41308L228.877781 366.947626c50.827619-50.808176 133.01241-50.571792 183.54634 0.529049l-71.028707 71.361281C319.650157 432.851615 291.581891 442.19133 274.496771 459.211982L274.496771 459.211982zM919.223678 282.824693 796.832164 405.044292c-51.706639 51.662637-135.530766 51.413973-187.008184-0.586354l72.750931-73.706699c23.064298 7.80271 49.475831-1.549286 67.816548-19.825534l75.504648-75.370595c25.882484-25.716708 26.060539-67.994604 0.363274-94.005001l-70.111824-70.576405c-25.697265-26.066679-67.51058-26.188452-93.411483-0.363274l-75.41562 75.376735c-17.505699 17.486256-27.093055 46.1419-21.107737 68.357877l-72.966848 72.253604c-51.337225-52.006468-51.108005-136.053676 0.599657-187.888228L616.237039-23.515321c51.846832-51.700499 135.607514-51.40067 186.994881 0.477884l116.533087 117.916597C971.236286 146.942933 971.007065 231.053586 919.223678 282.824693L919.223678 282.824693zM373.766682 524.644227c-17.302061-17.74106-17.193591-46.3834 0.23536-64.11218L583.118757 247.711987c17.480116-17.61417 45.536103-17.486256 62.671365 0.242524 17.250896 17.862833 17.059538 46.499034-0.305969 64.11218L436.362322 524.886751C418.990676 542.436452 390.998135 542.309562 373.766682 524.644227L373.766682 524.644227z"  horiz-adv-x="1024" />

    
    <glyph glyph-name="jiantou" unicode="&#58935;" d="M801.548285 385.728968L301.254151-114.360574c-18.242732-18.242732-47.73799-18.106338-65.844327 0.306887a47.226511 47.226511 0 0 0 0.272788 66.389904l433.358652 433.154061L235.784908 815.643665A47.192413 47.192413 0 0 0 235.307528 882.033569 46.30585 46.30585 0 0 0 301.151856 882.545048l500.396429-496.81608z"  horiz-adv-x="1024" />

    
    <glyph glyph-name="renwu" unicode="&#58943;" d="M831.825474 832.059831H191.939717C121.2479 832.059831 63.940169 774.7521 63.940169 704.060283v-639.885757C63.940169-6.517291 121.2479-63.825022 191.939717-63.825022h639.885757c70.691817 0 127.999548 57.307731 127.999548 127.999548V704.060283C959.825022 774.7521 902.517291 832.059831 831.825474 832.059831zM895.884854 64.001129A63.835408 63.835408 0 0 0 831.912173 0.115146H192.087827c-17.112123 0-33.270563 6.574639-45.372232 18.67631S127.880338 46.889006 127.880338 64.001129V703.998871A64.236389 64.236389 0 0 0 192.087827 768.119662h639.824346A64.037705 64.037705 0 0 0 895.884854 703.998871v-639.997742zM791.998335 544.148449h-255.999097a31.970084 31.970084 0 0 1 0-63.940169h255.999097a31.970084 31.970084 0 0 1 0 63.940169zM791.998335 288.026529h-255.999097a31.970084 31.970084 0 0 1 0-63.940169h255.999097a31.970084 31.970084 0 0 1 0 63.940169zM344.001722 368.002314c-61.855792 0-111.985607-50.144265-111.985607-111.985606s50.144265-111.985607 111.985607-111.985607 111.985607 50.144265 111.985606 111.985607-50.129815 111.985607-111.985606 111.985606z m33.982213-145.982269a48.045438 48.045438 0 1 0 14.088511 33.982213 47.745605 47.745605 0 0 0-14.088511-33.985826zM417.395643 598.605965L311.999125 493.21306 270.6078 534.607997a31.970084 31.970084 0 1 1-45.213286-45.213285l63.997968-64.001581a31.970084 31.970084 0 0 1 45.213286 0l127.999548 127.999549a31.970084 31.970084 0 0 1-45.209673 45.213285z"  horiz-adv-x="1024" />

    
    <glyph glyph-name="shezhi1" unicode="&#58936;" d="M905.86 467.979l-0.002 0-71.797 15.945c-5.594 17.868-12.887 34.998-21.324 51.473l38.849 64.668c14.509 23.2 21.803 57.282 0 79.129l-39.588 39.547c-10.662 10.708-24.994 15.206-39.461 15.206-14.985 0-30.151-4.895-41.465-12.759l-62.972-40.112c-16.343 8.477-33.384 15.731-51.125 21.499l-16.121 72.621c-4.806 26.654-28.1 55.492-58.989 55.492l-55.932 0c-30.897 0-49.815-29.276-55.932-55.93l-17.963-71.746c-18.917-6.03-37.143-13.761-54.445-22.897l-64.538 41.075c-11.361 7.865-26.481 12.759-41.512 12.759-14.42 0-28.752-4.497-39.46-15.206l-39.543-39.547c-21.848-21.846-14.507-55.93 0-79.128l40.854-68.078c-7.644-15.469-14.461-31.374-19.705-48.064l-71.75-15.946c-26.654-4.812-55.495-28.099-55.495-58.995l0-55.93c0-30.889 29.277-49.813 55.932-55.93l72.665-18.13c5.029-15.428 11.273-30.237 18.4-44.569l-40.899-68.165c-14.508-23.157-21.807-57.24 0-79.087l39.588-39.548c10.663-10.704 24.994-15.248 39.455-15.248 14.991 0 30.151 4.894 41.471 12.758l64.672 41.249c17.432-9.217 35.744-17.041 54.795-23.071l17.917-71.573c6.118-26.653 25.035-55.931 55.932-55.931l55.933 0c30.89 0 54.184 28.84 58.989 55.493l16.122 72.838c17.565 5.685 34.433 12.853 50.559 21.194l63.1-40.199c11.313-7.866 26.481-12.76 41.465-12.76 14.467 0 28.8 4.546 39.461 15.248l39.588 39.548c21.803 21.847 14.509 55.93 0 79.089l-38.89 64.757c7.819 15.38 14.596 31.371 20.055 47.976l72.671 18.132c26.655 6.115 55.932 25.039 55.932 55.93l0 55.93C961.354 439.879 932.516 463.167 905.86 467.979zM514.684 247.971c-74.593 0-135.333 60.562-135.333 134.931s60.739 134.889 135.333 134.889c74.588 0 135.287-60.52 135.287-134.889S589.272 247.971 514.684 247.971z"  horiz-adv-x="1024" />

    
    <glyph glyph-name="dui" unicode="&#58913;" d="M512 896C229.233778 896 0 666.766222 0 384s229.233778-512 512-512 512 229.233778 512 512S794.766222 896 512 896z m-102.712889-719.672889L223.601778 358.755556l32.796444 48.028444 152.888889-110.222222 359.111111 295.111111 32-24.888889-391.111111-390.456889z"  horiz-adv-x="1024" />

    
    <glyph glyph-name="zaixianxuexi" unicode="&#58920;" d="M1008 566.4c-153.6 67.2-307.2 131.2-460.8 198.4-16 6.4-32 6.4-48 0-150.4-67.2-304-131.2-454.4-195.2-16-6.4-32-12.8-32-35.2 0-22.4 16-28.8 32-35.2 140.8-60.8 281.6-118.4 422.4-182.4 38.4-19.2 73.6-22.4 112 0 19.2 12.8 41.6 19.2 64 28.8 89.6 38.4 176 76.8 268.8 115.2v-323.2c0-19.2 6.4-25.6 25.6-25.6 19.2 0 25.6 3.2 25.6 25.6 0 96 3.2 195.2-3.2 291.2 0 38.4 6.4 64 48 73.6 16 3.2 28.8 12.8 28.8 32s-12.8 25.6-28.8 32zM848 348.8c0 22.4-6.4 22.4-22.4 16-86.4-38.4-172.8-73.6-256-112-32-12.8-57.6-12.8-89.6 0-86.4 38.4-172.8 73.6-259.2 112-16 6.4-19.2 3.2-19.2-12.8v-128c-9.6-86.4 35.2-144 108.8-176 147.2-67.2 294.4-64 438.4 6.4 67.2 35.2 105.6 86.4 99.2 169.6-3.2 41.6 0 83.2 0 124.8z"  horiz-adv-x="1036" />

    
    <glyph glyph-name="jiaose" unicode="&#58915;" d="M1005.346595 86.541838c-69.216865 53.164973-268.647784 141.50573-268.647784 141.50573l-129.466811-235.049514-19.206919 55.987892 35.424865 70.683676-70.905081 70.683675-70.960433-70.683675 35.507892-70.683676-22.887783-57.316324-125.868973 236.377946s-199.403243-88.368432-268.620109-141.50573C30.52627 33.376865 0-128 0-128h1107.027027s-20.28627 151.967135-101.680432 214.541838z m-446.214919 161.708973c162.511568 0.249081 270.861838 213.711568 270.861838 328.593297C829.993514 691.725838 829.523027 896 559.131676 896c-270.363676 0-270.861838-204.301838-270.861838-319.183568s108.35027-328.814703 270.861838-328.565621z"  horiz-adv-x="1107" />

    
    <glyph glyph-name="icon-kaoshizuoda" unicode="&#58906;" d="M199.111111-128c-62.577778 0-113.777778 51.2-113.777778 113.777778V668.444444c0 62.577778 51.2 113.777778 113.777778 113.777778 19.911111 0 36.977778-17.066667 36.977778-36.977778v-54.044444c-42.666667-11.377778-73.955556-25.6-73.955556-71.111111V42.66666699999996c0-51.2 39.822222-93.866667 93.866667-93.866667h497.777778c51.2 0 93.866667 42.666667 93.866666 93.866667V620.088889c0 45.511111-31.288889 59.733333-76.8 68.266667V742.4c-2.844444 22.755556 14.222222 39.822222 34.133334 39.822222 62.577778 0 113.777778-51.2 113.777778-113.777778v-682.666666c0-62.577778-51.2-113.777778-113.777778-113.777778H199.111111z m341.333333 304.355556h227.555556c19.911111 0 36.977778-17.066667 36.977778-36.977778S787.911111 99.55555600000002 768 99.55555600000002h-227.555556c-19.911111 0-36.977778 17.066667-36.977777 36.977777s17.066667 39.822222 36.977777 39.822223z m0 301.511111h227.555556c19.911111 0 36.977778-17.066667 36.977778-36.977778s-17.066667-36.977778-36.977778-36.977778h-227.555556c-19.911111 0-36.977778 17.066667-36.977777 36.977778s17.066667 36.977778 36.977777 36.977778z m-227.555555 227.555555V745.2444439999999c0 19.911111 17.066667 36.977778 36.977778 36.977778h36.977777c0 62.577778 51.2 113.777778 113.777778 113.777778s113.777778-51.2 113.777778-113.777778H654.222222c19.911111 0 36.977778-17.066667 36.977778-36.977778v-36.977777L312.888889 705.422222z m-99.555556-233.244444c5.688889 5.688889 17.066667 5.688889 25.6 0l62.577778-62.577778 136.533333 136.533333c8.533333 8.533333 22.755556 8.533333 28.444445 0 8.533333-8.533333 8.533333-19.911111 0-28.444444l-147.911111-147.911111c-5.688889-2.844444-11.377778-5.688889-17.066667-5.688889-5.688889 0-8.533333 2.844444-11.377778 5.688889l-73.955555 73.955555c-11.377778 11.377778-11.377778 22.755556-2.844445 28.444445z m207.644445-403.911111c-8.533333-8.533333-22.755556-8.533333-28.444445 0L332.8 128l-59.733333-59.733333c-8.533333-8.533333-22.755556-8.533333-28.444445 0-8.533333 8.533333-8.533333 22.755556 0 28.444444l59.733334 59.733333-59.733334 59.733334c-8.533333 8.533333-8.533333 22.755556 0 28.444444 8.533333 8.533333 19.911111 8.533333 28.444445 0l59.733333-59.733333 59.733333 59.733333c8.533333 8.533333 22.755556 8.533333 28.444445 0 8.533333-8.533333 8.533333-19.911111 0-28.444444L361.244444 156.44444399999998l59.733334-59.733333c8.533333-5.688889 8.533333-19.911111 0-28.444444z"  horiz-adv-x="1024" />

    
    <glyph glyph-name="yinpin" unicode="&#58916;" d="M847.644444-128H150.755556c-48.355556 5.688889-88.177778 42.666667-93.866667 93.866667V802.133333C62.577778 850.488889 102.4 890.311111 150.755556 896h512l278.755555-278.755556v-651.377777c-5.688889-51.2-45.511111-88.177778-93.866667-93.866667z m0 745.244444h-139.377777c-25.6 2.844444-42.666667 22.755556-45.511111 45.511112V802.133333H196.266667c-25.6 2.844444-45.511111-17.066667-45.511111-42.666666v-748.088889c5.688889-22.755556 22.755556-42.666667 45.511111-45.511111h605.866666c25.6 2.844444 45.511111 22.755556 45.511111 45.511111V617.244444z m-207.644444-560.355555c-65.422222 0-116.622222 51.2-116.622222 116.622222s51.2 116.622222 116.622222 116.622222c25.6 0 51.2-8.533333 71.111111-22.755555v71.111111h-278.755555V156.444444c-11.377778-62.577778-71.111111-108.088889-136.533334-99.555555-62.577778 11.377778-108.088889 71.111111-96.711111 133.688889 11.377778 62.577778 71.111111 108.088889 133.688889 96.711111 19.911111-2.844444 36.977778-11.377778 51.2-22.755556v162.133334c0 110.933333 25.6 139.377778 93.866667 139.377777h221.866666c19.911111 0 56.888889-8.533333 56.888889-45.511111v-366.933333c-11.377778-51.2-62.577778-96.711111-116.622222-96.711111zM312.888889 244.622222c-39.822222 0-71.111111-31.288889-71.111111-71.111111s31.288889-71.111111 71.111111-71.111111 71.111111 31.288889 71.111111 71.111111-31.288889 71.111111-71.111111 71.111111z m395.377778 278.755556h-233.244445c-54.044444 0-45.511111-93.866667-45.511111-93.866667h278.755556v93.866667z m-68.266667-278.755556c-39.822222 0-71.111111-31.288889-71.111111-71.111111s31.288889-71.111111 71.111111-71.111111 71.111111 31.288889 71.111111 71.111111c-2.844444 39.822222-34.133333 71.111111-71.111111 71.111111z"  horiz-adv-x="1024" />

    
    <glyph glyph-name="shipin" unicode="&#58954;" d="M256.007 853.33c0 23.564 19.102 42.666 42.666 42.666s42.666-19.102 42.666-42.666v-938.66c0-23.564-19.102-42.666-42.666-42.666s-42.666 19.102-42.666 42.666zM554.672 512.852c0 23.040 16.213 33.28 37.546 23.040l227.838-114.346c41.813-21.333 40.96-55.466 0-75.946l-33.28-17.067-193.705-96.426c-21.333-10.24-38.4 0-38.4 23.040zM0.009 511.999c-0.006 0.254-0.009 0.553-0.009 0.853 0 23.093 18.72 41.813 41.813 41.813 0.003 0 0.006-0 0.009-0l255.998 0c0.254 0.005 0.553 0.009 0.853 0.009 23.564 0 42.666-19.102 42.666-42.666 0-0.003-0-0.006-0-0.009 0.006-0.254 0.009-0.553 0.009-0.853 0-23.093-18.72-41.813-41.813-41.813-0.003 0-0.006 0-0.009 0l-255.998-0c-0.254-0.005-0.553-0.009-0.853-0.009-23.564 0-42.666 19.102-42.666 42.666 0 0.003 0 0.006 0 0.009zM0.009 256.001c-0.006 0.254-0.009 0.553-0.009 0.853 0 23.093 18.72 41.813 41.813 41.813 0.003 0 0.006-0 0.009-0l255.998 0c0.254 0.005 0.553 0.009 0.853 0.009 23.564 0 42.666-19.102 42.666-42.666 0-0.003-0-0.006-0-0.009 0.006-0.254 0.009-0.553 0.009-0.853 0-23.093-18.72-41.813-41.813-41.813-0.003 0-0.006 0-0.009 0l-255.998-0c-0.254-0.005-0.553-0.009-0.853-0.009-23.564 0-42.666 19.102-42.666 42.666 0 0.003 0 0.006 0 0.009zM1024.002 511.999c-0.006 0.254-0.009 0.553-0.009 0.853 0 23.093 18.72 41.813 41.813 41.813 0.003 0 0.006-0 0.009-0l255.998 0c23.194-0.479 41.813-19.394 41.813-42.658 0-0.003-0-0.006-0-0.009 0.006-0.254 0.009-0.553 0.009-0.853 0-23.093-18.72-41.813-41.813-41.813-0.003 0-0.006 0-0.009 0l-255.998-0c-23.194 0.479-41.813 19.394-41.813 42.658 0 0.003 0 0.006 0 0.009zM1024.002 256.001c-0.006 0.254-0.009 0.553-0.009 0.853 0 23.093 18.72 41.813 41.813 41.813 0.003 0 0.006-0 0.009-0l255.998 0c23.194-0.479 41.813-19.394 41.813-42.658 0-0.003-0-0.006-0-0.009 0.006-0.254 0.009-0.553 0.009-0.853 0-23.093-18.72-41.813-41.813-41.813-0.003 0-0.006 0-0.009 0l-255.998-0c-23.194 0.479-41.813 19.394-41.813 42.658 0 0.003 0 0.006 0 0.009zM1024.002 853.33c0 23.564 19.102 42.666 42.666 42.666s42.666-19.102 42.666-42.666l0-938.66c-0-23.564-19.102-42.666-42.666-42.666s-42.666 19.102-42.666 42.666zM1262.933 895.997h-1160.526c-0.254 0.002-0.553 0.004-0.853 0.004-56.082 0-101.546-45.464-101.546-101.546 0-0.001 0-0.003 0-0.004l-0-820.048c0.479-56.362 46.042-101.923 102.358-102.399l1160.567-0c0.254-0.002 0.553-0.004 0.853-0.004 56.082 0 101.546 45.464 101.546 101.546 0 0.001-0 0.003-0 0.004l0 820.901c-0.953 55.997-46.339 101.081-102.363 101.546zM1280 25.602c0-0.002 0-0.003 0-0.005 0-37.402-30.079-67.779-67.367-68.26l-1059.878-0c-37.334 0.482-67.413 30.859-67.413 68.261 0 0.002 0 0.004 0 0.006l-0 716.795c-0 0.002-0 0.003-0 0.005 0 37.402 30.079 67.779 67.367 68.26l1059.878 0c37.334-0.482 67.413-30.859 67.413-68.261 0-0.002-0-0.004-0-0.006z"  horiz-adv-x="1365" />

    
    <glyph glyph-name="tupian" unicode="&#59000;" d="M832 32h-640c-51.2 0-96 44.8-96 96v512c0 51.2 44.8 96 96 96h640c51.2 0 96-44.8 96-96v-512c0-51.2-44.8-96-96-96zM192 672c-19.2 0-32-12.8-32-32v-512c0-19.2 12.8-32 32-32h640c19.2 0 32 12.8 32 32v512c0 19.2-12.8 32-32 32h-640zM608 486.4c0-35.346 28.654-64 64-64s64 28.654 64 64c0 35.346-28.654 64-64 64-35.346 0-64-28.654-64-64zM768 217.6c-57.6 44.8-83.2 32-121.6 12.8-25.6-12.8-64-25.6-115.2-19.2-64 12.8-89.6 57.6-108.8 96-12.8 25.6-25.6 51.2-51.2 64-64 32-121.6-6.4-121.6-6.4-19.2-12.8-44.8-6.4-51.2 6.4-6.4 12.8 0 38.4 12.8 44.8 6.4 0 89.6 57.6 185.6 12.8 44.8-25.6 64-57.6 83.2-89.6 19.2-32 32-57.6 70.4-64 25.6-6.4 44.8 0 70.4 12.8 44.8 19.2 96 44.8 185.6-25.6 19.2-12.8 19.2-38.4 12.8-44.8-12.8-6.4-25.6-19.2-51.2 0z"  horiz-adv-x="1024" />

    
    <glyph glyph-name="tableresetpassword" unicode="&#58918;" d="M1026.241 456.993h-365.621l145.298 145.371c-67.381 89.748-173.583 147.192-293.202 147.192-201.927 0-365.621-163.694-365.621-365.621 0-201.927 163.694-365.621 365.621-365.621 165.688 0 305.635 110.212 350.529 261.325l132.283-63.225c-71.558-202.053-260.992-344.183-483.623-344.183-282.697 0-511.869 229.171-511.869 511.869 0 282.697 229.171 511.869 511.869 511.869 160.142 0 303.108-73.541 396.968-188.694l117.367 115.338v-365.621z"  horiz-adv-x="1026" />

    
    <glyph glyph-name="untitled18" unicode="&#58881;" d="M885.824-52h-726.304c-68.768 0-124.512 55.744-124.512 124.512v41.504h103.744c22.912 0 41.504 18.592 41.504 41.504v124.512c0 22.912-18.592 41.504-41.504 41.504h-103.744v124.512h103.744c22.912 0 41.504 18.592 41.504 41.504v124.512c0 22.912-18.592 41.504-41.504 41.504h-103.744v41.504c0 68.768 55.744 124.512 124.512 124.512h726.304c68.768 0 124.512-55.744 124.512-124.512v-622.56c0-68.768-55.744-124.512-124.512-124.512zM689.12 223.552c-88.832 12.128-115.584 41.568-115.584 41.568-18.784 15.936-20.832 43.168-19.936 60.512 42.496 23.136 79.584 79.872 79.584 155.84 0 98.656-64.768 130.4-121.152 130.4v-0.032c-56.352 0-121.152-31.712-121.152-130.368 0-75.968 37.12-132.704 79.584-155.84 0.928-17.344-1.12-44.576-19.936-60.512 0 0-26.72-29.44-115.584-41.568 0 0-34.4-6.048-51.168-68.352h456.576c-16.8 62.304-51.2 68.352-51.2 68.352zM116.48 612.096c12.512 0 22.688-10.016 22.688-22.4v-79.552c0-12.352-10.144-22.4-22.688-22.4h-79.552c-12.512 0-22.688 15.232-22.688 27.584v74.368c0 12.384 10.176 22.4 22.688 22.4h79.552zM36.928 280.064h79.552c12.512 0 22.688-10.048 22.688-22.4v-79.552c0-12.352-10.144-22.4-22.688-22.4h-79.552c-12.512 0-22.688 15.232-22.688 27.584v74.336c0 12.384 10.176 22.4 22.688 22.4z"  horiz-adv-x="1024" />

    
    <glyph glyph-name="yinfu" unicode="&#58882;" d="M811.363 821.339L336.88 742.074c-1.538-0.243-2.976-0.699-4.37-1.23h-17.139c-11.687 0-20.971-9.349-20.971-20.871V177.56c-18.514 10.705-40.042 16.816-62.986 16.816-69.565 0-125.967-56.263-125.967-125.68 0-69.422 56.4-125.678 125.967-125.678 69.563 0 125.966 56.257 125.966 125.678 0 5.088-0.306 10.087-0.882 14.966 0.576 1.93 0.882 3.936 0.882 6.069V530.858l440.884 77.745v-305.32c-18.514 10.664-40.04 16.815-62.985 16.815-69.566 0-125.966-56.3-125.966-125.722 0-69.38 56.4-125.68 125.966-125.68s125.967 56.3 125.967 125.68c0 5.086-0.307 10.085-0.881 15.007 0.575 1.931 0.88 3.938 0.88 6.068V801.941c0 10.255-7.442 18.822-17.241 20.547-3.424 2.13-7.729 2.994-12.466 2.213l-11.153-1.887h-1.15a21.71 21.71 0 0 1-7.872-1.475z m0 0"  horiz-adv-x="1024" />

    
    <glyph glyph-name="zhiding" unicode="&#58938;" d="M896.739769 373.012537L543.250653 726.89547A39.381586 39.381586 0 0 1 514.974674 738.394893c-1.338974 0.157526-2.520422 0.787632-3.938158 0.787631a39.145297 39.145297 0 0 1-15.988924-3.544342 38.830244 38.830244 0 0 1-13.704792-8.663949l-318.990847-316.706715a39.22406 39.22406 0 1 1 55.685563-55.449273l253.617414 251.884624v-689.571571c0-21.659872 17.642951-39.145297 39.381586-39.145297s39.381586 17.485424 39.381586 39.145297v691.54065L840.817917 317.799554a39.381586 39.381586 0 0 1 55.685563-0.157526 38.909007 38.909007 0 0 1 0.157526 55.370509z m47.257904 444.46058H78.075359a39.302823 39.302823 0 0 0-39.381586 39.145297c0 21.581109 17.642951 39.145297 39.381586 39.145296H943.997673a39.22406 39.22406 0 1 0 0-78.290593z"  horiz-adv-x="1024" />

    
    <glyph glyph-name="fenxi" unicode="&#58984;" d="M662.755556 99.555556h-284.444445v-142.222223h-256v-56.888889h796.444445v56.888889h-256zM924.444444 867.555556H116.622222C73.955556 867.555556 36.977778 833.422222 36.977778 787.911111v-526.222222c0-42.666667 36.977778-79.644444 79.644444-79.644445h804.977778c45.511111 0 79.644444 34.133333 79.644444 79.644445V787.911111C1004.088889 833.422222 967.111111 867.555556 924.444444 867.555556z m25.6-603.022223c0-14.222222-11.377778-25.6-25.6-25.6H116.622222c-14.222222 0-25.6 11.377778-25.6 25.6V787.911111c0 14.222222 11.377778 25.6 25.6 25.6h804.977778c14.222222 0 25.6-11.377778 25.6-25.6v-523.377778zM625.777778 446.577778c22.755556 25.6 36.977778 56.888889 36.977778 93.866666h-56.888889c0-48.355556-36.977778-85.333333-85.333334-85.333333s-85.333333 36.977778-85.333333 85.333333 36.977778 85.333333 85.333333 85.333334v56.888889c-36.977778 0-71.111111-14.222222-96.711111-39.822223L312.888889 753.777778H159.288889v-56.888889h130.844444l102.4-102.4c-8.533333-17.066667-11.377778-36.977778-11.377777-54.044445 0-79.644444 62.577778-142.222222 142.222222-142.222222 22.755556 0 42.666667 5.688889 59.733333 14.222222l113.777778-113.777777h176.355555v56.888889h-150.755555L625.777778 446.577778zM159.288889 554.666667h142.222222v-56.888889h-142.222222zM159.288889 355.555556h170.666667v-56.888889h-170.666667zM614.4 694.044444c-5.688889 2.844444-11.377778 2.844444-14.222222 2.844445-31.288889 0-56.888889-25.6-56.888889-56.888889s25.6-56.888889 56.888889-56.888889 56.888889 25.6 56.888889 56.888889c0 5.688889 0 8.533333-2.844445 14.222222L696.888889 696.888889h173.511111V753.777778h-196.266667l-59.733333-59.733334z"  horiz-adv-x="1024" />

    
    <glyph glyph-name="guanlizhongxin" unicode="&#58991;" d="M962.34666667 685.9733333300001L517.12 500.58666667 70.82666667 685.9733333300001 516.05333333 861.86666667l446.29333334-175.89333334M34.13333333 608.8533333299999l444.26666667-189.44V-93.86666666999997c-35.30666667 16-72 32.64-110.08 49.92-36.8 16.42666667-73.6 32.74666667-110.50666667 48.96-41.06666667 18.02666667-82.34666667 36.05333333-123.84 54.18666667-14.93333333 6.93333333-28.69333333 16.32-40.74666666 27.62666667-11.94666667 11.2-22.61333333 23.78666667-31.57333334 37.44-8.74666667 13.33333333-15.57333333 27.94666667-20.37333333 43.2-4.58666667 14.50666667-6.93333333 29.54666667-7.14666667 44.8V608.8533333299999m955.73333334 0v-394.56c0-18.02666667-3.41333333-35.52-10.13333334-52.58666666-6.72-16.96-15.46666667-32.96-26.02666666-47.89333334-10.13333333-14.50666667-21.97333333-27.73333333-35.09333334-39.57333333-12.90666667-11.41333333-25.49333333-20.26666667-37.65333333-26.56-35.94666667-15.25333333-73.70666667-31.25333333-113.06666667-47.89333333-39.36-16.64-75.73333333-31.89333333-109.01333333-45.76-37.86666667-16.32-75.94666667-32.32-114.13333333-47.89333334V419.41333333L989.86666667 608.8533333299999z"  horiz-adv-x="1024" />

    
    <glyph glyph-name="riliceshitianchong" unicode="&#58888;" d="M861.711 769.961H723.597V829.515H663.41v-59.554H364.377V829.515h-60.188v-59.554H166.077c-55.984 0-101.368-45.384-101.368-101.367v-29.185l898.369-1.002v30.188c0 55.983-45.384 101.366-101.367 101.366zM64.709 32.513c0-55.983 45.384-101.366 101.368-101.366h695.634c55.983 0 101.367 45.383 101.367 101.366V589.277l-898.369 2.006v-558.77z m329.602 387.098l134.707 50.368h44.903v-419.091H469.148V375.263h-74.837v44.348z"  horiz-adv-x="1024" />

    
    <glyph glyph-name="mima" unicode="&#59067;" d="M881.21856 365.70368c105.71008 109.77536 105.71008 280.5376-4.06528 386.24768-52.85504 52.85504-121.97248 81.31584-191.0912 81.31584s-138.23616-28.4608-191.0912-81.31584c-97.57824-93.51296-105.71008-248.01152-24.39424-353.7216l-117.9072-117.9072-146.368-146.368L76.19712 3.85152c-16.2624-16.2624-16.2624-40.65792 0-56.92032 16.26368-16.26368 40.65792-16.26368 56.92032 0l101.64352 97.57824 77.24928-77.24928c16.26368-16.2624 40.65792-16.2624 56.92032 0 16.26368 16.26368 16.26368 40.65792 0 56.92032l-77.24928 77.24928 89.4464 89.4464 113.84192-113.84192c16.26368-16.26368 40.65792-16.26368 56.92032 0 16.26368 16.26368 16.26368 40.65792 0 56.92032l-113.84192 113.84192 89.4464 89.4464c105.71264-77.24928 256.14592-69.11744 353.72416 28.4608z m-56.92032 329.32736c73.184-73.184 73.184-195.15648-4.06528-272.40576-36.59136-36.59136-85.38112-56.92032-134.1696-56.92032s-97.57824 20.32896-134.1696 56.92032c-73.184 77.24928-73.184 199.22304 0 272.40576 73.18144 77.24928 195.1552 77.24928 272.40448 0z"  horiz-adv-x="1024" />

    
    <glyph glyph-name="rizhi" unicode="&#58945;" d="M494.208 699.136h-178.773333V607.573333h183.125333V699.136h-4.352z m544.896-544.938667H132.352L40.832-120.448H1130.666667l-91.562667 274.645333z m0 728.021334H132.352V245.76h906.752V882.218667z m-91.52-544.938667H223.914667V790.656h728.021333v-453.376h-4.352z m-270.293333 178.730667H315.434667v-91.52h361.856V516.010667z"  horiz-adv-x="1152" />

    
    <glyph glyph-name="xiugaimima" unicode="&#58919;" d="M12.8 96.256v-214.528h208.896l542.72 600.576L555.52 696.32 12.8 96.256zM931.328 653.824c20.48 20.992 20.48 64.512 0 86.016L806.4 868.352c-20.992 20.992-62.976 20.992-83.456 0l-125.44-128.512 208.896-214.528 124.928 128.512z m-500.736-686.08l-83.456-86.016h668.16v86.016H430.592z"  horiz-adv-x="1024" />

    
    <glyph glyph-name="suiji1" unicode="&#58928;" d="M788.9 562v-88.2c0-29.8 34.3-46.6 57.8-28.2l163.1 166.2c18.9 19.3 18.8 50.2-0.3 69.3l-163 163.4c-23.5 18.1-57.6 1.3-57.6-28.4v-104.8c-189.5 0-313-146-407.3-274.8-84.7-115.8-158-225-276.2-225H74.7C33.4 211.5 0 178.1 0 136.9c0-41.2 33.4-74.7 74.7-74.7h30.6c189.5 0 296.4 155.2 390.8 284C580.8 462 670.5 562 788.9 562z m-513.4-85.4l24.5 33.2c20.1 27.4 41.2 56.4 64.1 85.2-67.9 65.8-149.6 114.4-258.9 114.4H74.4C33.3 709.5 0 676.1 0 635c0-40.8 32.8-74 73.6-74.4 9.5-0.1 20-0.2 31.7-0.5 74.5-1.6 121.2-33.2 170.2-83.5z m513.4-270.8c-72.1 0-144.1 41.8-195.7 97.3-5.1-7.1-10.3-14.2-15.6-21.2-22.6-30.9-46.9-64.2-73.7-96.9 69.6-70.5 170.6-128.4 285.1-128.4V-48c0-29.8 34.4-46.6 57.9-28.2L1010 90.2c18.9 19.3 18.8 50.2-0.4 69.3l-163.1 163c-23.6 18.1-57.6 1.3-57.6-28.4v-88.3z"  horiz-adv-x="1024" />

    
    <glyph glyph-name="shouye-" unicode="&#58941;" d="M553.577726 881.74478c-19.006961 19.006961-47.517401 19.006961-66.524362 0L0 394.691415h104.538283v-475.174014c0-26.134571 21.382831-47.517401 47.517401-47.517401h213.828307v83.155452c0 85.531323 68.900232 154.431555 154.431554 154.431555s154.431555-68.900232 154.431555-154.431555v-83.155452h213.828306c26.134571 0 47.517401 21.382831 47.517401 47.517401v475.174014h104.538283L553.577726 881.74478z"  horiz-adv-x="1040" />

    
    <glyph glyph-name="dengpao" unicode="&#58890;" d="M445.44 212.48c-30.72-17.92-56.32-2.56-56.32 30.72v281.6c0 35.84 25.6 48.64 56.32 30.72l238.08-140.8c30.72-17.92 30.72-46.08 0-64l-238.08-138.24z m0 0M110.08 512c0 104.96 38.4 194.56 117.76 271.36C304.64 857.6 399.36 896 512 896c110.08 0 207.36-38.4 286.72-112.64 79.36-74.24 117.76-166.4 117.76-271.36 0-15.36 0-28.16-2.56-43.52-2.56-2.56-2.56-7.68-2.56-10.24l-5.12-35.84c-2.56 0-2.56-2.56-2.56-5.12-5.12-12.8-7.68-25.6-12.8-35.84v-2.56l-2.56-2.56c-5.12-15.36-10.24-28.16-17.92-38.4 0-2.56 0-2.56-2.56-2.56l-23.04-38.4c-7.68-12.8-17.92-23.04-28.16-35.84-7.68-10.24-17.92-17.92-28.16-28.16l-2.56-2.56c-5.12-2.56-5.12-7.68-12.8-12.8-2.56 0-5.12-2.56-5.12-5.12l-20.48-15.36H742.4l-2.56-2.56c-12.8-10.24-20.48-20.48-28.16-30.72-5.12-12.8-10.24-20.48-17.92-25.6-5.12-5.12-15.36-7.68-30.72-7.68H360.96c-15.36 0-25.6 2.56-30.72 7.68-5.12 5.12-12.8 12.8-17.92 25.6-5.12 12.8-15.36 23.04-25.6 30.72-2.56 0-2.56 0-5.12 2.56l-2.56 2.56-20.48 15.36-5.12 5.12-7.68 7.68-5.12 5.12-28.16 28.16c-20.48 23.04-35.84 48.64-51.2 74.24-2.56 0-2.56 0-2.56 2.56-5.12 10.24-10.24 23.04-17.92 38.4-2.56 0-2.56 0-2.56 2.56v2.56c-5.12 10.24-7.68 23.04-12.8 35.84v5.12c-2.56 10.24-5.12 23.04-5.12 35.84 0 2.56-2.56 7.68-2.56 10.24-7.68 15.36-7.68 30.72-7.68 43.52z m235.52-445.44h335.36c20.48 0 33.28-12.8 33.28-30.72s-15.36-30.72-33.28-30.72H345.6c-20.48 0-33.28 12.8-33.28 30.72 0 15.36 15.36 30.72 33.28 30.72z m15.36-128H665.6l-122.88-58.88c-20.48-7.68-40.96-7.68-61.44 0l-120.32 58.88z m186.88 765.44c40.96 0 79.36-15.36 115.2-46.08 35.84-30.72 53.76-69.12 53.76-117.76 0-15.36 15.36-30.72 33.28-30.72 20.48 0 33.28 15.36 33.28 30.72 0 69.12-23.04 125.44-71.68 166.4-48.64 40.96-102.4 61.44-163.84 61.44-20.48 0-33.28-12.8-33.28-30.72 0-20.48 12.8-33.28 33.28-33.28z m0 0"  horiz-adv-x="1024" />

    
    <glyph glyph-name="shu" unicode="&#58912;" d="M373.2809375 863.94375H32v-893.510625h303.5334375a317.5875 317.5875 0 0 0 56.1159375-5.011875c18.1275-3.305625 36.4415625-8.34375 54.4359375-15.035625l123.10875-46.1990625V674.50875c0 50.5978125-20.446875 98.2096875-57.421875 133.8525A198.125625 198.125625 0 0 1 373.2809375 863.94375z m463.6171875 0a197.9653125 197.9653125 0 0 1-138.436875-55.5825 184.74375 184.74375 0 0 1-57.3159375-133.8525V-95.8125l116.0709375 43.56c19.78125 7.464375 40.6275 13.1690625 61.5009375 17.115 20.55375 3.73125 42.0675 5.5978125 63.6075 5.5978125h295.9875V863.94375H836.8990625z"  horiz-adv-x="1223" />

    
    <glyph glyph-name="sousuo1" unicode="&#58980;" d="M467.92892-39.905986a467.92892 467.92892 0 1 0 331.010811 136.918108 466.424325 466.424325 0 0 0-331.010811-136.918108zM467.92892 745.492393a317.46946 317.46946 0 1 1 225.689189-93.284865 315.964865 315.964865 0 0 1-225.689189 93.284865zM771.556109-26.515094l151.587906 151.587905 101.033527-101.108757-151.587905-151.587905z"  horiz-adv-x="1024" />

    
    <glyph glyph-name="integral" unicode="&#58924;" d="M921.6 42.66666699999996h-6.826667C882.005333-54.27200000000005 716.8-128 512-128S141.994667-54.27200000000005 109.226667 42.66666699999996H102.4v614.4h6.826667A105.813333 105.813333 0 0 0 102.4 691.2c0 113.322667 183.637333 204.8 409.6 204.8s409.6-91.477333 409.6-204.8a106.496 106.496 0 0 0-6.826667-34.133333h6.826667zM512 827.733333c-188.416 0-341.333333-61.44-341.333333-136.533333s152.917333-136.533333 341.333333-136.533333 341.333333 61.44 341.333333 136.533333-152.917333 136.533333-341.333333 136.533333z m341.333333-249.856A589.824 589.824 0 0 0 512 486.4a589.824 589.824 0 0 0-341.333333 92.16V486.4c0-75.093333 152.917333-136.533333 341.333333-136.533333s341.333333 61.44 341.333333 136.533333z m0-204.8A589.824 589.824 0 0 0 512 281.6a589.824 589.824 0 0 0-341.333333 92.16V281.6c0-75.093333 152.917333-136.533333 341.333333-136.533333s341.333333 61.44 341.333333 136.533333zM512 76.79999999999995a589.824 589.824 0 0 0-341.333333 92.16V76.79999999999995c0-75.776 152.917333-136.533333 341.333333-136.533333s341.333333 61.44 341.333333 136.533333v92.16A589.824 589.824 0 0 0 512 76.79999999999995z"  horiz-adv-x="1024" />

    
    <glyph glyph-name="jifen" unicode="&#58965;" d="M64 627.2C64 512 268.8 416 512 416s448 89.6 448 204.8C960 742.4 755.2 832 512 832S64 736 64 627.2z m0 0M512 332.8c-192 0-352 57.6-422.4 128-19.2-25.6-25.6-51.2-25.6-76.8 0-108.8 204.8-204.8 448-204.8s448 96 448 204.8c0 25.6-12.8 51.2-25.6 70.4C864 384 704 332.8 512 332.8z m0 0M512 89.6c-192 0-352 57.6-422.4 128-19.2-19.2-25.6-44.8-25.6-76.8C64 32 268.8-64 512-64s448 89.6 448 204.8c0 25.6-12.8 51.2-25.6 70.4-70.4-70.4-230.4-121.6-422.4-121.6z m0 0"  horiz-adv-x="1024" />

    
    <glyph glyph-name="jiaose1" unicode="&#58895;" d="M855.971 704.653H166.474c-56.954 0-103.141-46.31-103.141-103.399v-465.163c0-57.094 46.187-103.315 103.141-103.315h689.581c56.948 0 103.136 46.31 103.136 103.315V601.254c-0.084 57.089-46.271 103.399-103.22 103.399zM623.244 480.694h167.973v-55.991H623.244v55.991z m0-111.982h167.973v-55.991H623.244v55.991zM499.062 183.886c-1.316-0.263-2.626-0.347-3.852-0.347l-325.678 0.789c-11.198 2.189-18.544 12.979-16.355 24.199 13.298 69.636 65.168 123.309 130.599 142.161-33.942 18.242-57.385 53.763-57.385 95.073 0 59.72 48.466 108.22 107.951 108.22s107.945-48.589 107.945-108.22c0-41.31-23.443-76.831-57.385-95.073C450.507 331.836 502.382 277.9 515.507 208c2.099-11.22-5.253-22.009-16.445-24.114z m348.146 16.853H623.244V256.73h223.964v-55.991z"  horiz-adv-x="1024" />

    
    <glyph glyph-name="online" unicode="&#58891;" d="M918.19803877 866.41399351L105.0555119 866.41399351c-56.12084109 0-101.6418213-46.46492387-101.6418213-103.67592675l0-518.67116088c0-57.20713673 45.52120774-103.67206058 101.6418213-103.67206058l813.14275555 0c56.11788402 0 101.64250283 46.46469631 101.64250282 103.74710272L1019.84076915 762.7378403499999C1019.84054272 819.94907079 974.31615147 866.41399351 918.19803877 866.41399351zM595.40837831 67.79263545000003l-167.49089222 0c0 0-33.61720093-96.77611349-134.09722824-96.7761135l0-48.42716954 435.61235229 0L729.43261014-28.98347805000003C628.87822222-28.98347805000003 595.40837831 67.79263545000003 595.40837831 67.79263545000003zM476.07973319 318.78394994999996l-73.05246492-73.01949213-73.08884878 73.01949213-146.14358814 146.15336618 73.05246493 73.04746211 146.15450397-146.09765377L766.38078635 755.2365511099999l73.07747896-73.05087317L476.07973319 318.78394994999996z"  horiz-adv-x="1024" />

    
    <glyph glyph-name="pinglun" unicode="&#59066;" d="M510.4 750.4c-202.6 0-366.8-159.6-366.8-356.5 0-102.1 44.3-194.2 115-259.2-15.6-23.3-34.4-44.1-56.2-61.4 1.1 0.2 1.7 0.2 1.3 0-7.8-5.3-13.1-14.4-13.1-24.7 0-13.2 8.6-24 20.3-27.9 14.6-2.2 29.4-3.7 44.7-3.7 18.5 0 36.5 1.9 54.2 5h0.1c10.8 2 21.4 4.3 31.7 7.2 26.7 8.2 53.5 20.2 53.5 20.2l8.3 3.8c17.3-6.9 41.1-10.7 60.8-12.8v0.1c5.5-0.7 10.9-1.1 16.4-1.6 12.4-0.9 20.8-1.1 20.8-1.1v-0.1c2.9-0.1 5.9-0.3 8.9-0.3 202.6 0 366.8 159.6 366.8 356.5 0.1 197-164.2 356.5-366.7 356.5z"  horiz-adv-x="1024" />

    
    <glyph glyph-name="tikuguanli" unicode="&#58893;" d="M355.26125 693.350625H258.6171875c-11.548125 0-20.88-8.4290625-20.88-18.8353125V139.18124999999998l69.196875 69.215625 69.196875-69.215625V674.5153124999999c0.009375 10.40625-9.3403125 18.834375-20.8696875 18.834375z m626.446875-70.88625c-0.1434375 0-0.268125 0.08625-0.4125 0.08625a29.450625 29.450625 0 0 1-14.4571875 6.5465625c-13.104375 12.0965625-22.2721875 39.553125-22.2721875 71.596875 0 32.00625 9.1490625 59.43375 22.224375 71.55 5.52 0.853125 10.5309375 3.166875 14.6015625 6.60375 0.1153125 0 0.2203125 0.076875 0.316875 0.076875h-0.24c6.39375 5.4046875 10.5309375 13.3725 10.5309375 22.4353125 0 16.156875-12.9215625 29.2415625-28.95375 29.6446875 0.230625 0 0.470625 0.076875 0.729375 0.076875-0.335625 0-0.6525-0.0478125-0.9984375-0.0478125-0.163125 0-0.32625 0.0478125-0.48 0.0478125-0.5278125 0-0.9984375-0.1246875-1.4971875-0.15375-3.436875-0.076875-6.8446875-0.39375-10.2140625-0.73875-4.0903125 0.575625-8.218125 0.97875-12.4903125 0.97875H121.175C71.928125 831.16875 32 791.2509375 32 742.0125v-82.655625c0-49.228125 39.916875-89.1459375 89.165625-89.1459375h63.57V719.2415625c0 18.375 16.5121875 33.264375 36.864375 33.264375h170.649375c20.371875 0 36.883125-14.8903125 36.883125-33.264375v-149.030625h508.95375c4.2909375 0 8.458125 0.403125 12.5765625 0.9890625-1.2290625 0.1725-2.3428125 0.6046875-3.5334375 0.834375 2.72625-0.345 5.43375-0.748125 8.236875-0.93 2.218125-0.538125 4.5121875-0.8934375 6.9309375-0.8934375 16.40625 0 29.7028125 13.3059375 29.7028125 29.7121875 0 9.0909375-4.16625 17.1075-10.6078125 22.550625h0.316875v-0.009375zM32 425.3371875v-82.665c0-49.2384375 39.916875-89.15625 89.1553125-89.15625h63.58125V514.4840624999999h-63.571875C71.928125 514.483125 32 474.56625 32 425.3371875z m949.7090625-119.5584375c-0.1153125 0-0.22125 0.076875-0.3459375 0.076875a29.3025 29.3025 0 0 1-14.5725 6.605625c-13.0753125 12.1246875-22.224375 39.55125-22.224375 71.548125 0 32.0446875 9.16875 59.510625 22.2721875 71.596875 5.4721875 0.855 10.425 3.1396875 14.495625 6.5475 0.135 0 0.2503125 0.076875 0.375 0.076875h-0.2784375c6.4125 5.4234375 10.57875 13.4109375 10.57875 22.501875 0 16.16625-12.9215625 29.2415625-28.95375 29.6446875 0.230625 0.009375 0.470625 0.076875 0.7303125 0.076875-0.3365625 0-0.6534375-0.046875-0.9890625-0.046875-0.1828125 0-0.3459375 0.046875-0.4996875 0.046875-0.5278125 0-0.9984375-0.1246875-1.4971875-0.1528125-3.5428125-0.0871875-7.04625-0.403125-10.5215625-0.76875-3.99375 0.56625-8.025 0.9703125-12.1921875 0.9703125H429.14375v-260.9765625h508.9528125c4.291875 0 8.458125 0.403125 12.5765625 0.9984375-1.344375 0.1828125-2.5828125 0.6628125-3.916875 0.9121875 2.8603125-0.375 5.6925-0.7875 8.6203125-0.969375 2.218125-0.5475 4.5121875-0.9028125 6.931875-0.9028125 16.40625 0 29.701875 13.3059375 29.701875 29.7215625 0 9.0628125-4.1465625 17.0690625-10.56 22.5028125h0.2596875v-0.009375z m0-316.7034375c-0.1153125 0-0.22125 0.095625-0.3459375 0.095625a29.469375 29.469375 0 0 1-14.5725 6.6046875c-13.0753125 12.125625-22.224375 39.5428125-22.224375 71.55 0 32.04375 9.16875 59.5096875 22.2721875 71.5865625 5.4721875 0.8634375 10.425 3.1490625 14.495625 6.5465625 0.135 0.0196875 0.2503125 0.0871875 0.375 0.0871875h-0.2784375c6.4125 5.4140625 10.57875 13.4109375 10.57875 22.4925 0 16.16625-12.9215625 29.2509375-28.95375 29.6446875 0.230625 0 0.470625 0.076875 0.7303125 0.076875-0.3365625 0-0.6534375-0.0478125-0.9890625-0.0478125-0.1828125 0-0.3459375 0.0478125-0.4996875 0.0478125-0.5278125 0-0.9984375-0.1153125-1.4971875-0.15375-3.5428125-0.076875-7.04625-0.39375-10.5215625-0.7490625-3.99375 0.556875-8.025 0.950625-12.1921875 0.950625H429.14375v-196.329375L306.944375 123.65718749999996 184.7459375 1.46906249999995V197.79843749999998h-63.571875C71.928125 197.79843749999998 32 157.8721875 32 108.6328125v-82.6453125c0-49.24875 39.916875-89.15625 89.165625-89.15625h816.920625c4.2909375 0 8.458125 0.39375 12.5765625 0.999375-1.344375 0.1921875-2.5828125 0.6525-3.916875 0.9309375 2.8603125-0.384375 5.6925-0.796875 8.6203125-0.97875 2.218125-0.556875 4.5121875-0.9028125 6.9309375-0.9028125 16.40625 0 29.7028125 13.295625 29.7028125 29.7121875 0 9.0721875-4.1475 17.0690625-10.56 22.4925h0.2690625v-0.009375z"  horiz-adv-x="1025" />

    
    <glyph glyph-name="anli" unicode="&#58892;" d="M989.0635296 599.2407840000001L524.85019627 864.27607893c-6.4250976 4.81882347-16.0627456 4.81882347-22.4878432 0L34.9364704 599.2407840000001c-9.63764693-6.4250976-9.63764693-20.88156907 0-27.30666667l465.81960853-266.641568c6.4250976-4.81882347 16.0627456-4.81882347 22.48784214 0l465.81960853 266.641568c9.63764693 6.4250976 9.63764693 20.88156907 0 27.30666667zM10.84235307 449.8572544v-69.06980373c0-6.4250976 3.21254933-11.24392107 8.0313728-14.4564704l469.0321568-268.2478432c14.4564704-8.0313728 30.519216-8.0313728 44.9756864 0l469.0321568 268.2478432c4.81882347 3.21254933 8.0313728 8.0313728 8.03137173 14.4564704v69.06980373c0 11.24392107-11.24392107 17.66901973-20.881568 12.85019627l-465.81960853-268.2478432c-6.4250976-3.21254933-14.4564704-3.21254933-20.881568 0L33.33019627 462.70745067c-9.63764693 4.81882347-22.4878432-1.60627413-22.4878432-12.85019627zM10.84235307 258.71058773000004v-69.06980373c0-6.4250976 3.21254933-11.24392107 8.0313728-14.4564704l469.0321568-268.2478432c14.4564704-8.0313728 30.519216-8.0313728 44.9756864 0L1003.52 175.1843136c4.81882347 3.21254933 8.0313728 8.0313728 8.0313728 14.4564704v69.06980373c0 11.24392107-11.24392107 17.66901973-20.88156907 12.85019627L523.24392107 3.3129407999999785c-6.4250976-3.21254933-14.4564704-3.21254933-20.881568 0L33.33019627 271.560784c-9.63764693 4.81882347-22.4878432-1.60627413-22.4878432-12.85019627z"  horiz-adv-x="1024" />

    
    <glyph glyph-name="shuju" unicode="&#58971;" d="M383.965763 832.003146A63.994294 63.994294 0 0 0 448.557337 895.99744h126.794028c35.751479 0 64.591574-28.413466 64.591573-63.994294v-895.664136a63.994294 63.994294 0 0 0-64.591573-63.994294H448.557337a64.07962 64.07962 0 0 0-64.591574 63.994294V832.003146zM767.931526 320.304773C767.931526 355.544297 796.344993 384.043089 832.5231 384.043089h126.794028c35.751479 0 64.591574-29.010747 64.591573-63.823642v-384.392392a63.908968 63.908968 0 0 0-64.591573-63.823642H832.5231A64.420922 64.420922 0 0 0 767.931526-64.087619V320.304773zM0 575.940645A63.994294 63.994294 0 0 0 64.591574 640.020265h126.794027C227.13708 640.020265 255.977175 611.009518 255.977175 576.025971v-639.601636a63.994294 63.994294 0 0 0-64.591574-64.079619H64.591574A64.591574 64.591574 0 0 0 0-63.66099V576.025971z"  horiz-adv-x="1024" />

    
    <glyph glyph-name="lianxi" unicode="&#59020;" d="M987.434645 618.613519L746.953662 859.094503c-34.014283 33.844212-89.117422 33.674141-123.131706-0.340143l-91.668493-91.668494 61.055638-60.715496 1.360572 0.340143 240.310912-240.310912 41.157282-41.327354 20.238499-20.238498 90.818137 90.818136c34.014283 33.844212 34.184355 88.947351 0.340142 122.961634M234.868626-50.787577l-18.537784 18.537785-120.240492 120.580634-19.21807 19.21807-55.27321 59.014782L9.183857 179.999336v-212.4192c0-47.790068 38.946354-86.566351 86.566351-86.566351h209.868128l-15.816642 15.306428-54.933068 52.89221zM533.00382 645.14466l-61.565853 61.22571L35.885069 270.817472l61.565853-61.565853 240.14084-240.480983 61.395782-61.22571L833.17987 341.567182l-59.695067 63.266567L533.00382 645.14466z m0 0"  horiz-adv-x="1024" />

    
    <glyph glyph-name="nav_user" unicode="&#58988;" d="M739.5555552 287.24337813V292.97777813000005a45.51111147 45.51111147 0 0 0 91.02222293 0v-5.7344c16.70257813-4.2780448 32.49493333-10.92266667 46.96746667-19.47875626l4.096 4.096a45.51111147 45.51111147 0 0 0 64.3527104-64.39822187l-4.096-4.05048853c8.55608853-14.47253333 15.20071147-30.26488853 19.47875627-46.96746667H967.11111147a45.51111147 45.51111147 0 0 0 0-91.02222293h-5.7344c-4.2780448-16.70257813-10.92266667-32.49493333-19.47875627-46.96746667l4.096-4.096a45.51111147 45.51111147 0 0 0-64.39822187-64.3527104l-4.05048853 4.096a180.95217813 180.95217813 0 0 0-46.96746667-19.47875627V-71.11111146999997a45.51111147 45.51111147 0 0 0-91.02222293 0v5.7344a180.95217813 180.95217813 0 0 0-46.96746667 19.47875627l-4.096-4.096a45.51111147 45.51111147 0 0 0-64.3527104 64.3527104l4.096 4.096A180.95217813 180.95217813 0 0 0 608.75662187 65.42222187000004H603.02222187a45.51111147 45.51111147 0 0 0 0 91.02222293h5.7344c4.2780448 16.70257813 10.92266667 32.49493333 19.47875626 46.96746667l-4.096 4.096a45.51111147 45.51111147 0 0 0 64.39822187 64.3527104l4.05048853-4.096A180.95217813 180.95217813 0 0 0 739.5555552 287.24337813zM479.68711147 19.911111470000037H56.88888853a45.51111147 45.51111147 0 0 0-45.5111104 45.5111104v45.51111146a364.08888853 364.08888853 0 0 0 606.79964374 271.42826667A318.39573333 318.39573333 0 0 1 466.48888853 110.93333332999998c0-31.63022187 4.59662187-62.16817813 13.19822294-91.02222186zM375.46666667 475.02222187c-100.5795552 0-182.0444448 91.70488853-182.0444448 204.8S274.88711147 884.62222187 375.46666667 884.62222187s182.0444448-91.70488853 182.0444448-204.8S476.04622187 475.02222187 375.46666667 475.02222187z m409.6-455.1111104a91.02222187 91.02222187 0 1 1 0 182.04444373 91.02222187 91.02222187 0 0 1 0-182.04444373z"  horiz-adv-x="1024" />

    
    <glyph glyph-name="yanzhengma" unicode="&#58883;" d="M752.593492 25.161031l-194.544368-137.63467a73.46052 73.46052 0 0 0-45.536424-15.518201c-16.550822 0-32.069023 5.177548-45.536424 15.518201l-194.544368 137.63467C147.210354 118.299121 72.702771 266.288887 72.702771 423.579464V693.678478c0 34.155928 21.735591 64.16693 53.811834 74.507583L480.443677 891.342373c20.688527 6.210169 42.416897 6.210169 63.112646 0l353.936293-123.149091c32.076244-10.347874 53.804613-40.351655 53.804613-74.507583v-271.131635c0-156.265177-74.500362-305.287564-198.703737-397.393033z m127.294018 630.231035c0 28.978381-17.590664 53.811835-44.496582 62.087245L539.425838 820.972496c-17.597885 5.177548-36.22117 5.177548-52.779213 0L190.674314 717.479311c-26.913138-9.315253-44.496581-34.148707-44.496581-62.087245v-226.635055c0-131.424502 62.094467-255.598993 166.60583-333.218881l162.482567-115.906301c11.380495-8.275411 24.826233-12.427559 38.286412-12.427559s26.913138 4.144927 38.286413 12.427559l162.475346 115.906301c104.540248 77.619889 166.620272 202.834222 166.620272 333.218881V655.392066h-1.047063zM491.816951 241.448212c-11.373274-11.380495-26.905917-13.452959-40.358875-6.202948-5.177548 2.065242-149.022387 142.812218-149.022388 142.812218-13.452959 13.445738-13.452959 36.213949 0 50.699529 13.452959 13.452959 36.22117 13.452959 50.706751 0l112.801216-112.801216 211.102412 212.149474c13.445738 13.452959 36.22117 13.452959 50.70675 0 13.452959-13.46018 13.452959-36.22117 0-50.70675L491.816951 241.448212z"  horiz-adv-x="1024" />

    
    <glyph glyph-name="fanhui" unicode="&#58939;" d="M980.33152 18.76992a23.28576 23.28576 0 0 0-22.80448 18.67264c-0.3072 1.46944-15.5648 71.0912-80.59904 139.49952-82.82112 87.12192-210.99008 135.04512-371.67104 139.24352v-189.25056a23.28576 23.28576 0 0 0-37.02272-18.80576l-446.36672 323.584a23.28064 23.28064 0 0 0-0.10752 37.632l446.49984 325.15584a23.28576 23.28576 0 0 0 36.99712-18.82112v-200.95488c28.75904-1.05984 78.92992-5.3248 137.09312-20.75648 92.57472-24.57088 169.44128-67.45088 228.45952-127.44704 90.8288-92.33408 135.51616-221.81376 132.82304-384.8448a23.28064 23.28064 0 0 0-23.30112-22.90688z"  horiz-adv-x="1024" />

    
    <glyph glyph-name="chuangguan" unicode="&#58909;" d="M514.9 212.8c-170.5 0-309.1 138.7-309.1 309.1S344.4 831.1 514.9 831.1 824 692.4 824 522 685.4 212.8 514.9 212.8z m0 566.3c-141.8 0-257.1-115.3-257.1-257.1s115.3-257.1 257.1-257.1S772 380.2 772 522 656.7 779.1 514.9 779.1zM404.8-62.9L79.5 124.9l157.4 272.5 45-26L150.6 144l235.2-135.8 140.1 242.6 45-26zM618.8-63.1L495 159.8l45.5 25.2 98.1-176.6L873.4 144 737.1 380.1l45 26 162.4-281.2zM514.9 349.3c-95.2 0-172.7 77.5-172.7 172.7 0 95.2 77.5 172.7 172.7 172.7S687.6 617.2 687.6 522c0-95.3-77.5-172.7-172.7-172.7z m0 293.3c-66.5 0-120.7-54.1-120.7-120.7 0-66.5 54.1-120.7 120.7-120.7S635.6 455.4 635.6 522c0 66.5-54.2 120.6-120.7 120.6z"  horiz-adv-x="1024" />

    
    <glyph glyph-name="icon_gongzuo_mubiaox" unicode="&#59004;" d="M760.3296 804.2528L615.24586667 674.87146667l-16.59626667-146.19306667-198.9312-171.13066667 58.04266667-62.64746666 194.82773333 179.53706666 153.33546667-4.1792 145.03786667 137.7408 49.744 45.9296-186.4832 12.5856L826.624 858.54293333zM466.0416 499.4816c-70.44373333 0-132.63573333-58.46826667-132.63573333-133.60746667s58.04266667-129.42826667 132.63573333-129.42826666c70.44373333 0 128.4864 58.46826667 128.4864 129.42826666H466.0416l24.84906667 129.42826667c-8.2528 4.1792-16.5504 4.1792-24.84906667 4.1792zM685.71306667 370.0544c0-121.0688-99.488-221.2864-219.6768-221.2864s-219.6768 100.2176-219.6768 221.2864 99.488 221.2864 219.6768 221.2864c16.59626667 0 28.9984 0 45.59466667-4.1792l45.59466666 221.2864c-28.9984 4.1792-58.04266667 8.35946667-91.1904 8.35946667-244.52586667 0-443.50293333-200.43413333-443.50293333-446.752s198.97706667-446.752 443.50293333-446.752c240.4224 0 435.20426667 192.07573333 443.50293334 430.03306666v12.53866667l-223.82613334 4.1792z"  horiz-adv-x="1024" />

    
    <glyph glyph-name="xiazai_" unicode="&#58907;" d="M528.00000031 203.51999999999998a127.99999969 127.99999969 0 0 1 157.44 0l248.95999969 192a64.00000031 64.00000031 0 0 1-78.72 101.11999969L672.00000031 352.00000031V799.99999969a64.00000031 64.00000031 0 0 1-128.00000062 0v-447.99999938L357.75999969 498.55999969a64.00000031 64.00000031 0 0 1-78.72-101.11999969zM1119.99999969 288a64.00000031 64.00000031 0 0 1-63.99999938-64.00000031v-127.99999969a64.00000031 64.00000031 0 0 0-64.00000031-64.00000031H224a64.00000031 64.00000031 0 0 0-64.00000031 64.00000031v127.99999969a64.00000031 64.00000031 0 0 1-127.99999969 0v-192a127.99999969 127.99999969 0 0 1 127.99999969-127.99999969h896.00000062a127.99999969 127.99999969 0 0 1 127.99999969 127.99999969v192a64.00000031 64.00000031 0 0 1-64.00000031 64.00000031z"  horiz-adv-x="1228" />

    
    <glyph glyph-name="xunzhang" unicode="&#58911;" d="M709.7847 671.968341l97.82621 105.01677a70.756594 70.756594 0 0 1-103.521826 96.479525l-144.552496-155.264206a404.7717 404.7717 0 0 1-93.897348 0.160613L328.01785 872.377404a70.756594 70.756594 0 0 1-105.535677-94.267995l93.897348-105.103256C180.450755 602.237205 87.480026 460.365725 87.480026 296.514852 87.480026 62.04329 277.560381-128 511.994878-128S936.50973 62.04329 936.50973 296.514852c0 162.973673-91.969981 304.313892-226.72503 375.453489z m9.25383-318.620883l-78.737868-82.950894a18.940083 18.940083 0 0 1-5.00374-15.480708l14.924736-113.418112a18.865954 18.865954 0 0 0-26.847228-19.4837l-103.262373 49.246688a18.828889 18.828889 0 0 1-16.172583 0l-103.262373-49.234333a18.865954 18.865954 0 0 0-26.847229 19.4837l14.924737 113.418112a18.940083 18.940083 0 0 1-5.003741 15.480708l-78.737868 82.950894a18.878309 18.878309 0 0 0 10.254579 31.57916l112.429719 20.855096a18.915374 18.915374 0 0 1 13.157984 9.550348l54.559301 100.494873a18.853599 18.853599 0 0 0 33.16059 0l54.584011-100.519582a18.915374 18.915374 0 0 1 13.157984-9.550349l112.429719-20.855095a18.878309 18.878309 0 0 0 10.291643-31.566806z"  horiz-adv-x="1024" />

    
    <glyph glyph-name="yinpin1" unicode="&#58908;" d="M983.792981 896H40.211115A40.5504 40.5504 0 0 1 0.002048 855.04v-942.08c0-22.664533 17.954133-40.96 40.209067-40.96h943.581866a40.5504 40.5504 0 0 1 40.209067 40.96V855.04c0 22.664533-17.954133 40.96-40.209067 40.96z m-235.383466-207.530667v-118.784H581.702315v-326.8608c0-81.92-62.190933-148.548267-138.8544-148.548266-76.663467 0-138.8544 63.351467-138.8544 141.448533 0 78.097067 62.122667 141.448533 138.8544 141.448533 31.607467 0 60.074667 2.730667 83.3536-16.110933v327.68l222.208-0.273067z"  horiz-adv-x="1024" />

    
    <glyph glyph-name="chutizujuan" unicode="&#58898;" d="M192-64h704a64 64 0 0 1 64 64V768a64 64 0 0 1-64 64H256a64 64 0 0 1-64-64v-832zM256 896h640a128 128 0 0 0 128-128v-768a128 128 0 0 0-128-128H128V768a128 128 0 0 0 128 128zM352 640v-64h448V640h-448z m0 64h448a64 64 0 0 0 64-64v-64a64 64 0 0 0-64-64h-448a64 64 0 0 0-64 64V640a64 64 0 0 0 64 64zM128-64V320a64 64 0 0 1-64-64v-256a64 64 0 0 1 64-64z m0 448h64v-512H128a128 128 0 0 0-128 128v256a128 128 0 0 0 128 128zM320 320a32 32 0 0 0 0 64h512a32 32 0 1 0 0-64H320zM320 128a32 32 0 1 0 0 64h512a32 32 0 1 0 0-64H320z"  horiz-adv-x="1024" />

    
    <glyph glyph-name="yingyongdaohang-xuefenguanli" unicode="&#58899;" d="M871.936 30.72c0 14.848-11.776 26.624-26.624 26.624H29.696c-14.848 0-26.624-11.776-26.624-26.624 0 0 0-151.04 95.232-151.04h849.92c-79.36 0-76.288 151.04-76.288 151.04zM392.192 672.256c-0.512 1.024-1.024 1.024-1.536 1.024s-1.024 0-1.536-1.024l-49.152-142.848v-1.536s0.512-0.512 1.024-0.512H440.32c0.512 0 1.024 0.512 1.024 0.512s0.512 0.512 0 1.536l-49.152 142.848zM986.624 888.32H148.992c-20.992 0-37.888-16.896-37.888-37.888v-674.816c0-25.6 20.48-46.08 46.08-46.08H896c19.968 0 35.84-15.872 35.84-35.84 0 0 0-152.064 45.568-196.608 21.504 21.504 46.592 71.168 46.592 185.344V851.456c0 19.968-16.384 36.864-37.376 36.864z m-437.248-501.248c-2.048-3.072-5.632-5.12-9.728-5.12h-35.328c-5.12 0-9.216 3.072-11.264 7.68l-32.256 87.04c0 0.512-1.024 1.024-1.536 1.024H322.56c-0.512 0-1.024-0.512-1.536-1.024l-30.72-86.528c-1.536-4.608-6.144-7.68-11.264-7.68h-35.328c-4.096 0-7.68 2.048-9.728 5.12s-2.56 7.168-1.536 10.752l126.464 332.288c2.56 7.168 9.216 11.776 16.896 11.776h30.72c7.168 0 14.336-4.608 16.896-11.776l126.464-332.288c2.048-3.584 1.536-7.68-0.512-11.264z m198.656 256.512c0-8.192-6.656-15.36-15.36-15.36h-44.544c-2.56 0-5.12-2.048-5.12-5.12v-44.032c0-8.192-6.656-15.36-15.36-15.36h-19.456c-8.192 0-15.36 6.656-15.36 15.36v44.032c0 2.56-2.048 5.12-5.12 5.12H583.68c-8.192 0-15.36 6.656-15.36 15.36v19.968c0 8.192 6.656 15.36 15.36 15.36h44.032c2.56 0 5.12 2.048 5.12 5.12v44.032c0 8.192 6.656 15.36 15.36 15.36h19.456c8.192 0 15.36-6.656 15.36-15.36v-44.032c0-2.56 2.048-5.12 5.12-5.12h44.544c8.192 0 15.36-6.656 15.36-15.36v-19.968z"  horiz-adv-x="1024" />

    
    <glyph glyph-name="gerenzhenduan" unicode="&#59022;" d="M936.662061 149.906775l0.06396-43.87655c51.359868-15.414356 86.34598-61.209706 86.53786-113.081254 0-65.495025-55.517267-118.517852-123.954451-118.517852-68.437184 0-123.826531 53.086788-123.826531 118.517852 0 52.383228 35.497792 96.707497 84.61906 112.377694v44.58011c0 48.993349-41.57399 88.904379-92.869898 88.904379h-10.937158c-51.231948 0-92.869898-39.911031-92.869898-88.904379v-115.127973c-0.44772-89.863779-76.304262-162.458362-169.493961-162.138563h-10.873197c-93.381578 0-169.43 72.786463-169.43 162.138563v215.609109h-3.198a32.171872 32.171872 0 0 0-32.107912 32.171873C81.708941 295.031981 42.94919 435.232268 13.847397 601.144469l-6.651839 37.992231C-6.236039 712.946523 2.718359 794.815304 35.785672 833.766935 58.299586 860.502208 91.430859 877.067844 127.12053 879.562284h59.099026A54.238067 54.238067 0 0 0 225.235147 895.6802c29.549513 0.06396 53.662427-22.961635 53.790348-51.423828a51.679668 51.679668 0 0 0-32.171873-47.330389 55.133507 55.133507 0 0 0-57.883786 9.466078h-59.354866a55.197467 55.197467 0 0 1-35.114032-19.699675c-17.588996-21.618475-21.042835-84.42718-11.896557-134.955569l6.779758-38.375991c32.747512-187.402756 66.966104-245.606343 188.937796-257.37498 0 16.757516 13.623477 30.380993 30.380993 30.380993H392.170708c16.373756 0 29.613473-13.239717 29.613473-29.613473C538.639074 372.999202 576.823185 429.475869 608.995058 613.296866l6.779758 38.375991c9.274198 51.295908 0.9594 114.488373-17.333156 135.914968a55.069547 55.069547 0 0 1-34.282552 18.804236h-59.482786a55.133507 55.133507 0 0 0-57.819827-9.530038 51.679668 51.679668 0 0 0-32.171872 47.330389c0 13.687437 5.756399 26.863194 15.798116 36.457192a54.621827 54.621827 0 0 0 37.992231 15.094556c14.710797 0 28.781993-5.884319 38.887671-16.181876h59.035066a131.501729 131.501729 0 0 0 91.462779-45.795349c33.067312-39.015591 46.690789-120.820412 33.259192-194.630235l-6.651838-37.928271c-28.718033-164.121322-71.635183-301.25153-262.619699-318.200926v-0.959399a31.660193 31.660193 0 0 0-31.660192-31.660193v-215.54515c0-49.057309 41.63795-88.904379 92.869898-88.904379h10.937157c51.231948 0 92.869898 39.847071 92.869899 88.904379v115.127974c0.44772 89.799819 76.304262 162.330442 169.49396 162.074602h10.873198c93.445538 0 169.43-72.786463 169.43-162.138562z m-37.288671-220.981749a63.959985 63.959985 0 1 1 0 127.91997 63.959985 63.959985 0 0 1 0-127.91997z"  horiz-adv-x="1024" />

    
    <glyph glyph-name="yonghutouxiang" unicode="&#58904;" d="M959.68-25.024C944.448 156.672 820.032 306.944 651.84 361.6c70.464 45.632 117.248 124.48 117.248 214.464C769.152 717.376 654.208 832 512.512 832c-141.76 0-256.704-114.624-256.704-255.936 0-89.984 46.784-168.832 117.248-214.528-168.192-54.592-292.544-204.864-307.84-386.56-0.192-3.456-0.64-5.44 0-10.176 1.28-16 15.424-28.8 31.488-28.8 17.92 0 32.064 14.656 32.064 32 16.704 197.76 182.272 351.936 383.744 351.936 201.408 0 366.976-154.176 383.68-351.936 0-17.344 14.144-32 32.064-32 16.064 0 30.208 12.8 31.424 28.8 0.64 4.736 0.256 6.784 0 10.176zM320 576.064C320 682.048 406.208 768 512.512 768S704.96 682.048 704.96 576.064c0-106.048-86.144-192-192.448-192S320 470.016 320 576.064z"  horiz-adv-x="1024" />

    
    <glyph glyph-name="gerenzhongxin" unicode="&#58963;" d="M788.8 608c0-153.6-123.2-276.8-276.8-276.8S235.2 454.4 235.2 608 358.4 883.2 512 883.2 788.8 761.6 788.8 608zM864-116.8H136c-32 0-46.4 24-46.4 56 0 190.4 139.2 340.8 324.8 340.8h171.2c185.6 0 347.2-152 347.2-342.4v3.2c1.6-32-36.8-56-68.8-57.6z"  horiz-adv-x="1024" />

    
    <glyph glyph-name="jintian" unicode="&#58964;" d="M753.6 673.6h24c19.2 0 33.6 14.4 33.6 32V838.4c0 19.2-14.4 33.6-33.6 33.6h-24c-19.2 0-33.6-14.4-33.6-33.6v-131.2c0-19.2 14.4-33.6 33.6-33.6zM251.2 673.6h24c19.2 0 33.6 14.4 33.6 32V838.4c0 19.2-14.4 33.6-33.6 33.6h-24c-19.2 0-33.6-14.4-33.6-33.6v-131.2c0-19.2 14.4-33.6 33.6-33.6zM928 761.6h-68.8v-56c0-41.6-33.6-76.8-80-76.8h-24c-43.2 0-80 33.6-80 76.8V761.6h-320v-56c0-41.6-33.6-76.8-80-76.8h-24c-43.2 0-80 33.6-80 76.8V761.6H105.6c-38.4 0-68.8-28.8-68.8-67.2v-731.2c0-38.4 30.4-67.2 68.8-67.2h820.8c38.4 0 68.8 28.8 70.4 67.2V694.4c0 38.4-30.4 67.2-68.8 67.2zM105.6-36.8V540.8h820.8s0-577.6 1.6-577.6H105.6zM500.8 347.2l-49.6-33.6c14.4-16 33.6-41.6 60.8-75.2l54.4 35.2c-19.2 22.4-40 46.4-65.6 73.6zM553.6 444.8l14.4 14.4v1.6H480c-51.2-68.8-118.4-121.6-196.8-155.2 11.2-12.8 25.6-28.8 41.6-54.4 80 40 142.4 89.6 188.8 148.8 43.2-59.2 102.4-107.2 180.8-144 14.4 19.2 27.2 35.2 41.6 52.8-76.8 30.4-137.6 76.8-182.4 136zM339.2 179.2h246.4c-30.4-43.2-62.4-81.6-94.4-116.8l60.8-33.6c49.6 56 89.6 108.8 123.2 155.2v54.4h-336v-59.2z"  horiz-adv-x="1024" />

    
    <glyph glyph-name="biaoqian" unicode="&#59065;" d="M868.65846 896H155.341453C106.300909 896 66.246487 859.724626 66.246487 815.368707v-899.012789c0-15.18585 3.186939-21.054694 13.374694-32.252517 17.832925-16.126259 40.054422-16.126259 57.957007 0l355.718095 321.706667a27.863946 27.863946 0 0 0 37.424762 0l355.77034-321.706667c17.832925-16.126259 40.054422-16.126259 57.957007 0 8.916463 8.063129 13.374694 20.149116 13.374694 32.252517V815.368707C957.892746 859.724626 917.699004 896 868.65846 896z"  horiz-adv-x="1024" />

    
    <glyph glyph-name="zidian" unicode="&#58914;" d="M962.688 759.04c-1.6 0-10.432 68.16-47.424 101.888-37.056 33.728-111.872 34.048-113.408 34.048-226.112 0-437.632 0.448-663.68 0a157.44 157.44 0 0 1-44.8-6.592C35.968 870.848 0.064 820.48 0.064 758.976v-694.144l0.064-9.92c1.472-46.208 18.24-96.128 56.064-125.312 26.624-20.48 57.216-30.4 91.136-30.4h815.36v3.968c0.704 0 1.088 24.384 1.088 73.28a68.608 68.608 0 0 0-34.432 59.2c0 25.408 13.952 47.36 34.432 59.264l-1.088 664.064z m-83.072-792.128H137.728a68.8 68.8 0 1 0 0 137.536h741.888c-11.84-20.416-19.136-43.52-19.136-68.8 0-25.152 7.296-48.32 19.136-68.736z m-200.96 613.44H262.208c-19.328 0-34.88 10.24-34.88 22.912 0 12.736 15.552 22.976 34.88 22.976h416.448c19.2 0 34.816-10.24 34.816-22.976 0-12.672-15.616-22.912-34.944-22.912z m0-207.104H262.208c-19.328 0-34.88 10.24-34.88 22.976 0 12.672 15.552 22.912 34.88 22.912h416.448c19.2 0 34.816-10.24 34.816-22.912 0-12.736-15.616-22.976-34.944-22.976z"  horiz-adv-x="1024" />

    
    </font>
</defs>
</svg>
