<?xml version="1.0" standalone="no"?>
<!DOCTYPE svg PUBLIC "-//W3C//DTD SVG 1.1//EN" "http://www.w3.org/Graphics/SVG/1.1/DTD/svg11.dtd" >
<!--
2013-9-30: Created.
-->
<svg>
<metadata>
Created by iconfont
</metadata>
<defs>

<font id="iconfont" horiz-adv-x="1024" >
  <font-face
    font-family="iconfont"
    font-weight="500"
    font-stretch="normal"
    units-per-em="1024"
    ascent="896"
    descent="-128"
  />
    <missing-glyph />
    
    <glyph glyph-name="wanchenggouxuan2" unicode="&#58942;" d="M512-128C229.230388-128 0 101.23038799999995 0 384 0 666.769612 229.230388 896 512 896 794.769612 896 1024 666.769612 1024 384 1024 101.23038799999995 794.769612-128 512-128ZM760.336507 702.967747C582.233902 585.950839 469.292656 234.89687500000002 469.292656 234.89687500000002L399.786519 407.638365 256.436836 296.19273699999997C317.253711 268.33044600000005 404.131003 179.17406100000005 477.978086 62.157448000000045 530.105994 184.74740399999996 690.834201 435.498593 769.025769 457.787836 738.617331 546.944221 755.99556 619.3847049999999 760.336507 702.967747Z"  horiz-adv-x="1024" />

    
    <glyph glyph-name="shujuzidian" unicode="&#59008;" d="M234.9 832C105.1 832 0 726.9 0 597.1l0-426.3c0-5.5 0.2-11 0.6-16.5 0-0.1 0-0.2 0-0.2 0.1-1.8 0.3-3.6 0.4-5.4 0-0.1 0-0.3 0-0.4 0.2-1.7 0.4-3.5 0.6-5.2 0-0.2 0-0.4 0.1-0.6 0.2-1.7 0.4-3.4 0.7-5.1 0-0.2 0.1-0.5 0.1-0.7 0.2-1.7 0.5-3.3 0.8-4.9 0-0.3 0.1-0.5 0.1-0.8 0.3-1.6 0.6-3.2 0.9-4.8 0.1-0.3 0.1-0.6 0.2-0.8 0.3-1.6 0.6-3.2 1-4.7 0.1-0.3 0.1-0.6 0.2-0.9 0.3-1.6 0.7-3.1 1.1-4.6 0.1-0.3 0.1-0.6 0.2-0.9 0.4-1.5 0.8-3 1.2-4.6 0.1-0.3 0.2-0.6 0.3-0.9 0.4-1.5 0.8-3 1.3-4.5 0.1-0.3 0.2-0.6 0.3-1 0.4-1.5 0.9-3 1.4-4.4 0.1-0.3 0.2-0.6 0.3-1 0.5-1.5 1-2.9 1.5-4.4 0.1-0.3 0.2-0.6 0.3-1 0.5-1.4 1-2.9 1.6-4.3 0.1-0.3 0.2-0.6 0.4-1 0.5-1.4 1.1-2.8 1.7-4.3 0.1-0.3 0.3-0.6 0.4-0.9 0.6-1.4 1.2-2.8 1.8-4.2 0.1-0.3 0.3-0.6 0.4-0.9 0.6-1.4 1.2-2.8 1.9-4.2 0.1-0.3 0.3-0.6 0.4-0.9 0.6-1.4 1.3-2.8 2-4.2 0.1-0.3 0.3-0.6 0.4-0.8 0.7-1.4 1.4-2.8 2.1-4.1 0.1-0.3 0.3-0.5 0.4-0.8 0.7-1.4 1.5-2.8 2.2-4.1 0.1-0.2 0.3-0.5 0.4-0.7 0.8-1.4 1.6-2.8 2.3-4.1 0.1-0.2 0.2-0.4 0.4-0.6 0.8-1.4 1.6-2.8 2.5-4.2 0.1-0.2 0.2-0.3 0.3-0.5 0.9-1.4 1.8-2.8 2.7-4.2 0.1-0.1 0.1-0.2 0.2-0.3 0.9-1.5 1.9-2.9 2.9-4.3 0 0 0 0 0-0.1 9.2-13.5 19.8-26.1 31.6-37.4 0.1-0.1 0.1-0.1 0.2-0.2 1.1-1.1 2.2-2.1 3.4-3.1 0.2-0.2 0.5-0.4 0.7-0.7 1-0.9 2.1-1.9 3.1-2.8 0.3-0.3 0.7-0.6 1-0.9 1-0.9 2-1.7 3-2.5 0.4-0.4 0.8-0.7 1.3-1.1 1-0.8 1.9-1.6 2.9-2.4 0.5-0.4 1-0.8 1.4-1.2 0.9-0.7 1.9-1.5 2.8-2.2 0.5-0.4 1.1-0.8 1.6-1.2 0.9-0.7 1.8-1.4 2.8-2 0.6-0.4 1.1-0.8 1.7-1.3 0.9-0.6 1.8-1.3 2.7-1.9 0.6-0.4 1.2-0.9 1.8-1.3 0.9-0.6 1.8-1.2 2.7-1.8 0.6-0.4 1.3-0.9 1.9-1.3 0.9-0.6 1.8-1.1 2.7-1.7 0.7-0.4 1.4-0.9 2-1.3 0.9-0.5 1.8-1.1 2.7-1.6 0.7-0.4 1.4-0.8 2.1-1.3 0.9-0.5 1.8-1 2.7-1.5 0.7-0.4 1.5-0.8 2.2-1.2 0.9-0.5 1.8-1 2.7-1.5 0.8-0.4 1.5-0.8 2.3-1.2 0.9-0.5 1.8-0.9 2.7-1.4 0.8-0.4 1.6-0.8 2.3-1.2 0.9-0.4 1.8-0.9 2.7-1.3 0.8-0.4 1.6-0.8 2.4-1.1 0.9-0.4 1.8-0.8 2.7-1.2 0.8-0.4 1.6-0.7 2.5-1.1 0.9-0.4 1.8-0.8 2.7-1.1 0.8-0.4 1.7-0.7 2.5-1 0.9-0.4 1.8-0.7 2.7-1.1 0.9-0.3 1.7-0.7 2.6-1 0.9-0.3 1.8-0.7 2.7-1 0.9-0.3 1.8-0.6 2.6-0.9 0.9-0.3 1.8-0.6 2.7-0.9 0.9-0.3 1.8-0.6 2.7-0.9 0.9-0.3 1.8-0.6 2.7-0.9 0.9-0.3 1.8-0.6 2.8-0.8 0.9-0.3 1.8-0.5 2.7-0.8 0.9-0.3 1.9-0.5 2.8-0.8 0.9-0.2 1.8-0.5 2.7-0.7 1-0.2 1.9-0.5 2.9-0.7 0.9-0.2 1.8-0.4 2.7-0.6 1-0.2 1.9-0.4 2.9-0.6 0.9-0.2 1.8-0.4 2.7-0.6 1-0.2 2-0.4 3-0.6 0.9-0.2 1.8-0.3 2.7-0.5 1-0.2 2-0.3 3-0.5 0.9-0.1 1.8-0.3 2.7-0.4 1-0.2 2.1-0.3 3.1-0.4 0.9-0.1 1.8-0.2 2.7-0.4 1.1-0.1 2.1-0.2 3.2-0.4 0.9-0.1 1.7-0.2 2.6-0.3 1.1-0.1 2.2-0.2 3.3-0.3 0.8-0.1 1.7-0.2 2.5-0.2 1.2-0.1 2.4-0.2 3.5-0.2 0.8 0 1.6-0.1 2.4-0.1 1.3-0.1 2.7-0.1 4-0.2 0.7 0 1.3-0.1 2-0.1 2 0 4-0.1 6-0.1L1024-64.2 1024 384 1024 832 234.9 832zM960 0 234.9 0c-1.4 0-2.8 0-4.2 0.1-0.8 0-1.6 0.1-2.4 0.1-0.6 0-1.2 0-1.8 0.1-1.1 0.1-2.2 0.1-3.3 0.2-0.3 0-0.5 0-0.8 0-1.3 0.1-2.7 0.2-4 0.3 0 0-0.1 0-0.1 0-38.1 3.6-73.7 19.9-101.7 46.7C85.5 77.3 67 117.2 64.4 160c0 0 0 0 0 0 2.7 42.8 21.2 82.7 52.3 112.5 31.9 30.6 73.9 47.5 118.2 47.5L960 320 960 0zM234.9 384c-67.3 0-128-28.3-170.9-73.7L64 597.1c0 45.6 17.8 88.5 50 120.8 32.3 32.3 75.2 50 120.8 50L960 767.9l0-384L234.9 383.9z"  horiz-adv-x="1024" />

    
    <glyph glyph-name="xinzengliebiao" unicode="&#58999;" d="M1008.369322-88.192477C1008.862642-90.391446 1009.131794-92.675431 1009.131794-95.023083 1009.131794-101.641722 1007.055583-107.772378 1003.528387-112.8127 998.015714-121.481245 988.332319-127.237528 977.298585-127.237528 974.405385-127.237528 971.607875-126.833418 968.95066-126.09382L55.04934-126.09382C52.392125-126.833418 49.594615-127.237528 46.701415-127.237528 35.6673-127.237528 25.983905-121.480864 20.471232-112.811937 16.944036-107.771997 14.868206-101.641722 14.868206-95.023083 14.868206-92.675431 15.136977-90.391827 15.630678-88.192858L15.630678 583.577066C15.630678 600.736882 29.541599 614.647803 46.701415 614.647803 63.86123 614.647803 77.772152 600.736882 77.772152 583.577066L77.772152-63.952345 946.227848-63.952345 946.227848 833.096054 328.816083 833.096054C311.656268 833.096054 297.745346 847.006975 297.745346 864.166791 297.745346 881.326606 311.656268 895.237528 328.816083 895.237528L978.061057 895.237528C995.220873 895.237528 1009.131794 881.326606 1009.131794 864.166791 1009.131794 861.819139 1008.862642 859.535154 1008.369322 857.336566L1008.369322-88.192477ZM201.077993 583.445921 839.267121 583.445921 839.267121 525.498043 201.077993 525.498043 201.077993 583.445921ZM201.077993 426.210073 839.267121 426.210073 839.267121 368.262195 201.077993 368.262195 201.077993 426.210073ZM839.267121 67.574088 201.077993 67.574088 201.077993 125.521966 839.267121 125.521966 839.267121 67.574088ZM201.077993 278.016381 839.267121 278.016381 839.267121 220.068503 201.077993 220.068503 201.077993 278.016381ZM266.602937 722.228039 190.165111 722.228039 190.165111 645.790213C190.165111 628.630016 176.25457 614.719476 159.094374 614.719476 141.934558 614.719476 128.023637 628.630016 128.023637 645.790213L128.023637 722.228039 51.585811 722.228039C34.425996 722.228039 20.515074 736.138579 20.515074 753.298776 20.515074 770.458591 34.425996 784.369513 51.585811 784.369513L128.023637 784.369513 128.023637 860.807339C128.023637 877.967154 141.934558 891.878076 159.094374 891.878076 176.25457 891.878076 190.165111 877.967154 190.165111 860.807339L190.165111 784.369513 266.602937 784.369513C283.763133 784.369513 297.673674 770.458591 297.673674 753.298776 297.673674 736.138579 283.763133 722.228039 266.602937 722.228039Z"  horiz-adv-x="1024" />

    
    <glyph glyph-name="zhenggaijiancha" unicode="&#58926;" d="M1014.07196957 251.11551316999999l-24.31048022 24.2639087c-6.72496867 6.69120398-17.64372707 6.69120398-24.33842404 0l-36.49482865-36.35161998 48.65006933-48.52898248 36.49482866 36.35161998C1020.79926613 233.54164337999998 1020.79926613 244.38938055000006 1014.07196957 251.11551316999999zM758.61515605 69.17694690999997l-16.21513671-64.67309681 64.83027741 16.17788017L758.61515605 69.17694690999997zM770.86237582 81.32520050000005l48.61513956-48.49405269 145.9769856 145.55318158-48.64774031 48.52898247L770.86237582 81.32520050000005zM884.72926777-17.831987199999958c0-43.73907229-30.90737607-59.73532217-74.66857017-59.73532217L108.17473991-77.56730936999998c-18.46571918-1.09909447-59.73532217 37.99094727-59.73532217 59.73532217L48.43941774 788.59020174c1.62302749 22.59780267 38.70582443 59.73532217 59.73532217 59.73532217l701.88595769 0c34.67270713 0.75679175 74.66857017-35.9196672 74.66857017-59.73532217L884.72926777 295.77670656c0-11.80711595 44.80090909-11.80711595 44.80090908 0L929.53017685 773.6569537400001c0 61.21630493-54.38771427 119.46947925-115.63778503 119.46947925L114.70527033 893.12643299c-61.24424875 0-111.06676167-49.79806322-111.06676167-111.01436928l0-793.46707797c0-61.21514098 49.82251406-111.01320419 111.06676167-111.01320419l699.18712149 0c61.25123357 0 115.63778503 43.32109027 115.63778503 104.53623125C929.53017685 3.8728009899999734 884.72926777 3.8728009899999734 884.72926777-17.831987199999958zM217.01886293 693.02020665c-5.87736178 5.86921187-14.13337771 9.28758215-22.44062322 9.28758215-8.30724551 0-16.56326144-3.41837027-22.4348012-9.28758215-5.87619669-5.8738688-9.29805995-14.12406272-9.29805995-22.43014428 0-8.30258859 3.42186325-16.55394759 9.29805995-22.42781526 5.87153977-5.87037582 14.1275557-9.28758215 22.4348012-9.28758215 8.30724551 0 16.56326144 3.41720633 22.44062322 9.28758215 5.87619669 5.8738688 9.29573205 14.12406272 9.29573206 22.42781526C226.31459385 678.89614393 222.89505963 687.14633899 217.01886293 693.02020665zM645.78914418 698.98838357L257.51188025 698.98838357c-17.84398621 0-17.3445029-44.25485539 0.50064725-44.25485539l387.77661781-0.54605483C663.84503239 654.18630941 663.84503239 698.98838357 645.78914418 698.98838357zM217.01886293 576.70829511c-5.87736178 5.86921187-14.13337771 9.28758215-22.44062322 9.28758215-8.30724551 0-16.56326144-3.41837027-22.4348012-9.28758215-5.87619669-5.8738688-9.29805995-14.12406272-9.29805995-22.42898034 0-8.30491648 3.42186325-16.55511154 9.29805995-22.42898034 5.87153977-5.87037582 14.1275557-9.2887461 22.4348012-9.28874609 8.30724551 0 16.56326144 3.41837027 22.44062322 9.28874609 5.87619669 5.8738688 9.29573205 14.12406272 9.29573206 22.42898034C226.31459385 562.58423239 222.89505963 570.83559139 217.01886293 576.70829511zM645.78914418 579.51773923L257.51188025 579.51773923c-18.05472313 0-18.05472313-44.80090909 0-44.80090908l388.27726393 0C663.84503239 534.7168301500001 663.84503239 579.51773923 645.78914418 579.51773923zM217.01886293 460.39754866c-5.87736178 5.86921187-14.13337771 9.28758215-22.44062322 9.28758215-8.30724551 0-16.56326144-3.41837027-22.4348012-9.28758215-5.87619669-5.8738688-9.29805995-14.12406272-9.29805995-22.42898034 0-8.30491648 3.42186325-16.55511154 9.29805995-22.43014429 5.87153977-5.8738688 14.1275557-9.28758215 22.4348012-9.28758214 8.30724551 0 16.56326144 3.41371335 22.44062322 9.28758214 5.87619669 5.87503275 9.29573205 14.12639175 9.29573206 22.43014429C226.31459385 446.2734848 222.89505963 454.52367986 217.01886293 460.39754866zM194.57823971 353.40814791c-8.30724551 0-16.56326144-3.41837027-22.4348012-9.29223908-5.87619669-5.86921187-9.29805995-14.12406272-9.29805995-22.42898033s3.42186325-16.55743943 9.29805995-22.42432228c5.87153977-5.87503275 14.1275557-9.29223907 22.4348012-9.29223907 8.30724551 0 16.56326144 3.41720633 22.44062322 9.29223907 5.87619669 5.86688285 9.29573205 14.11940579 9.29573206 22.42432228s-3.41953422 16.55976846-9.29573206 22.42898033C211.14150115 349.98977763000005 202.88548523 353.40814791 194.57823971 353.40814791zM645.78914418 460.04825998L257.51188025 460.04825998c-17.84398621 0-17.3445029-44.25485539 0.50064725-44.25485539l387.77661781-0.54605483C663.84503239 415.24618581 663.84503239 460.04825998 645.78914418 460.04825998zM645.78914418 340.57761565L257.51188025 340.57761565c-18.05472313 0-18.05472313-44.80090909 0-44.80090909l388.27726393 0C663.84503239 295.77670656 663.84503239 340.57761565 645.78914418 340.57761565z"  horiz-adv-x="1024" />

    
    <glyph glyph-name="jspjiancha" unicode="&#58930;" d="M232.45857906 191.30101874000002l538.7181568 0c31.1658496 0 30.23441351 45.17348352 0 44.89288817L232.45857906 236.19390691C203.50605426 236.19390691 202.16827904 192.12301085000001 232.45857906 191.30101874000002zM516.78292423 370.87373766999997c28.48447829 0 30.25653533 44.89288818 0 44.89288818L217.49505934 415.76662585c-32.74114162 0-31.99948573-44.89288818 0-44.89288818L516.78292423 370.87373766999997zM890.89188181 311.01616469l0-389.07364238L307.28083683-78.05747769000004 307.28083683 71.58587278000005c0 13.26248505-16.64941966 29.92820451-29.92936846 29.92820452L127.7081179 101.51407730000005 127.7081179 849.73432149l224.46560711 0c20.6511013 0 20.6511013 44.89288818 0 44.89288818L112.7434331 894.62720967c-13.25549909 0-29.92704057-15.40478749-29.92704057-28.79883833l0-790.97548686c0-5.47218659 1.81164259-10.41229027 4.90517504-14.38370133 0-0.02561479 0.04890055-0.05355747 0.04890056-0.10129408 0.79288547-1.04437305 1.6614491-2.01073778 2.62897777-2.9049162l177.17194297-173.46715534c4.97969038-4.8620965 11.72212281-7.33389483 18.43894044-6.89728398l620.56227727 0c13.33234233 0 29.21099833 16.58771115 29.21099833 29.87930396L935.78360605 311.01616469C935.50068281 330.76843065 892.06199865 330.76260864000005 890.89188181 311.01616469zM262.38794752-48.12927317000003l-104.75046115 104.75046115 104.75046115 0L262.38794752-48.12927317000003zM681.39095837 535.48177181c35.90685923 0 65.45550336 6.32677945 95.39069382 26.13493077l115.79729352-115.43868985c4.6723163-4.65834439 10.95485213-7.25588651 17.61927736-7.25588651 6.71914667 0 12.95511097 2.56843435 17.72872022 7.30828004 9.80452807 9.75213568 9.80452807 25.55860537 0 35.31539797l-113.57698276 113.22536505c28.50310713 32.96934343 46.61371677 76.84230941 46.61371677 120.28215751 0 100.13752434-84.1820251 179.57271893-184.68281003 179.57271894-100.50194887 0-174.46262784-79.43519459-174.46262784-179.57271894C501.81823943 614.86340893 580.88784555 535.48177181 681.39095837 535.48177181zM681.39095837 849.73432149c0 0 134.67982962-7.61681806 134.67982961-134.67982962 0-72.64153259-61.83687509-134.67982962-134.67982961-134.67982961-72.86624142 0-134.67982962 62.03829703-134.67982962 134.67982961C546.71112875 787.67040853 608.52471694 849.73432149 681.39095837 849.73432149z"  horiz-adv-x="1024" />

    
    <glyph glyph-name="iconset0237" unicode="&#59016;" d="M341.333333 640l128 0 0 42.666667-128 0L341.333333 640zM341.333333 725.333333l170.666667 0L512 768l-170.666667 0L341.333333 725.333333zM810.666667 853.333333L128 853.333333C81.066667 853.333333 42.666667 814.933333 42.666667 768l0-768c0-46.933333 38.4-85.333333 85.333333-85.333333l768 0c46.933333 0 85.333333 38.4 85.333333 85.333333L981.333333 682.666667 810.666667 853.333333zM298.666667 810.666667l426.666667 0 0-256L298.666667 554.666667 298.666667 810.666667zM810.666667-42.66666699999996L213.333333-42.66666699999996 213.333333 341.33333300000004l597.333333 0L810.666667-42.66666699999996zM938.666667 0c0-23.466667-19.2-42.666667-42.666667-42.666667l-42.666667 0L853.333333 341.33333300000004c0 23.466667-19.2 42.666667-42.666667 42.666667L213.333333 384c-23.466667 0-42.666667-19.2-42.666667-42.666667l0-384L128-42.66666699999996c-23.466667 0-42.666667 19.2-42.666667 42.666667L85.333333 768c0 23.466667 19.2 42.666667 42.666667 42.666667l128 0 0-256c0-23.466667 19.2-42.666667 42.666667-42.666667l426.666667 0c23.466667 0 42.666667 19.2 42.666667 42.666667L768 810.666667l21.333333 0 149.333333-149.333333L938.666667 0zM597.333333 597.333333l85.333333 0L682.666667 768l-85.333333 0L597.333333 597.333333z"  horiz-adv-x="1024" />

    
    <glyph glyph-name="zhizuo" unicode="&#58908;" d="M990.67371406 367.85821354999996c16.14062251 0 26.90103751 13.45226525 26.90103751 26.90220146L1017.57475157 706.70300274c0 59.16365255-48.42303147 107.56689123-107.5878491 107.56689123L111.31076835 814.26989397c-59.16365255 0-107.56805518-48.40323869-107.56805518-107.56689123l0-645.40600548c0-59.16481763 48.40323869-107.56805518 107.56805518-107.56805518l801.37729935 0c59.16248861 0 107.56805518 48.4020736 107.56805518 107.56805518L1020.25612288 179.62663253000005c0 16.14062251-13.44178631 26.88124473-26.90336541 26.88124473-16.12082973 0-26.88124473-13.44178631-26.88124472-26.88124473l0 0 0 0 0 0 0-112.94826268c0-32.28240896-24.20220131-56.46365241-56.48461028-56.46365241L452.83460096 10.214716299999964l0 0-336.1436251 0c-29.58240882 0-56.46481749 24.18240853-56.46481749 56.46365241L60.22615837 701.32163129c0 32.27309511 26.88240867 56.47413134 56.46481749 56.47413134l790.61688433 0c29.58007979 0 56.48228125-24.20103737 56.48228125-56.47413134l0-303.88100892C963.79014144 381.31047879000005 977.23192775 367.85821354999996 990.67371406 367.85821354999996L990.67371406 367.85821354999996 990.67371406 367.85821354999996 990.67371406 367.85821354999996zM537.96785493 609.8965265100001c0 8.06041486-5.3802075 16.13014357-16.1406225 16.13014357L183.91620835 626.02667008c-8.06041486 0-16.12199367-5.3802075-16.12199366-16.13014357l0-75.30660409c0-8.06041486 8.06041486-16.13014357 16.12199366-16.13014357l337.91102408 0c8.06157881 0 16.14062251 5.3802075 16.1406225 16.13014357L537.96785493 609.8965265100001 537.96785493 609.8965265100001 537.96785493 609.8965265100001 537.96785493 609.8965265100001zM406.65516601 418.96261632c0 8.07089379-5.3802075 16.13130752-16.14062251 16.13130752L183.91620835 435.09392384c-8.06041486 0-16.12199367-8.06157881-16.12199366-16.13130752l0-75.30427506c0-8.06157881 8.06041486-16.12315762 16.12199366-16.12315761l206.59833515 0c8.08020765 0 16.14062251 5.36157867 16.14062251 16.12315761L406.65516601 418.96261632 406.65516601 418.96261632 406.65516601 418.96261632 406.65516601 418.96261632zM259.20069063 241.47049245000005l-75.28564622 0c-8.06041486 0-16.12199367-8.06157881-16.12199367-16.14062251l0-75.28564623c0-8.06157881 8.06041486-16.14062251 16.12199367-16.1406225l75.28564622 0c8.08020765 0 16.16041529 5.3802075 16.16041529 16.1406225l0 75.28564623C275.36226987 236.09028493999995 267.28206222 241.47049245000005 259.20069063 241.47049245000005L259.20069063 241.47049245000005 259.20069063 241.47049245000005 259.20069063 241.47049245000005zM447.45439346 292.57373127000005l-2.70000015-5.3802075 0-5.3802075-5.36041472-115.629634 0-26.9010375 26.88240868 10.760415 110.26805532 40.34282382 5.38020751 2.67904342 2.68137131 5.3802075 295.81943011 389.9282341 10.74062222 16.14178645-16.12082972 10.74993607-99.50647637 75.30544014-16.14062251 10.74993607-10.74295012-16.13014357L447.45439346 292.57373127000005 447.45439346 292.57373127000005 447.45439346 292.57373127000005zM754.01677369 655.6090789l99.50647637-75.29496121-2.68137131 26.89288761L555.02244864 217.26829112999997l8.0790437 5.3802075-110.26805533-40.34282382 24.20220132-18.81966478 2.6988362 112.94826268-5.40000029-10.760415 306.58217301 395.31775658L754.01677369 655.6090789 754.01677369 655.6090789 754.01677369 655.6090789zM794.35959637 510.38888505l21.52083001 32.27193002-86.06701909 61.8555028-21.50103723-32.27309512L794.35959637 510.38888505 794.35959637 510.38888505 794.35959637 510.38888505zM794.35959637 510.38888505"  horiz-adv-x="1024" />

    
    <glyph glyph-name="weibiaoti4" unicode="&#58906;" d="M29.58222187 384l91.02222186 50.06222187c4.55111147 0 9.10222187 0 13.65333334 0l373.19111146-204.8c4.55111147 0 9.10222187 0 13.65333334 0l373.19111146 204.8c4.55111147 0 9.10222187 0 13.65333334 0l91.02222186-50.06222187-473.3155552-263.9644448c-4.55111147 0-9.10222187 0-13.65333333 0L29.58222187 384zM52.33777813 607.0044448l455.11111147 250.31111147c4.55111147 0 9.10222187 0 13.65333333 0l455.11111147-250.31111147c9.10222187-4.55111147 9.10222187-18.2044448 0-22.7555552l-455.11111147-250.31111147c-4.55111147 0-9.10222187 0-13.65333333 0l-455.11111147 250.31111147C43.2355552 593.35111147 43.2355552 602.4533333300001 52.33777813 607.0044448zM516.55111147 15.360000000000014l373.19111146 204.8c4.55111147 0 9.10222187 0 13.65333334 0l91.02222186-50.06222187-473.3155552-263.9644448c-4.55111147 0-9.10222187 0-13.65333333 0L29.58222187 170.09777813000005l91.02222186 50.06222187c4.55111147 0 9.10222187 0 13.65333334 0l373.19111146-204.8C507.44888853 10.80888852999999 516.55111147 10.80888852999999 516.55111147 15.360000000000014z"  horiz-adv-x="1024" />

    
    <glyph glyph-name="jiacu" unicode="&#58888;" d="M150.92479621-115.79501228000004v1026.66335068h364.61835504c111.76137261 0 197.95690889-21.19029697 258.51411469-63.6485632s90.87140851-101.20311845 90.87140851-176.31352351c0-55.65478937-18.85236085-104.52102005-56.40821064-146.45111467s-84.83886017-70.88762122-141.84903112-86.80008565v-2.63826899c71.56595927-8.82227831 129.40722379-35.36937467 173.37233256-79.55973311 44.040192-44.19165298 65.98649932-99.61989815 65.98649932-166.35981873 0-93.20934463-33.10522722-167.41616197-99.39464848-222.31623554-66.28683219-55.05153454-156.93299105-82.57730181-271.78701559-82.57730182h-383.92380429zM369.6978805 747.82642124v-253.83694791h104.06793165c49.99895166 0 89.28818821 11.91493025 118.02046515 35.81987399s43.06022653 57.23800969 43.06022652 100.07039747c0 78.65485085-57.46325934 117.94408738-172.39236709 117.94408738h-92.75625623zM369.6978805 328.91124748000004v-281.66563714h129.93539539c55.20170098 0 98.41209395 12.8198125 129.63506251 38.46073205 31.06891852 25.64091955 46.68105008 61.23424933 46.68105008 106.70878973 0 43.28677072-15.45937603 76.9214641-46.37812812 100.75003007s-74.88386085 35.81987397-131.89662087 35.81987398h-127.97416992z"  horiz-adv-x="1024" />

    
    <glyph glyph-name="xiugaimima" unicode="&#59012;" d="M836.838-127.997 199.684-127.997c-64 0-115.847 57.3-115.847 128L83.837 320.001c0 70.695 51.847 128 115.847 128l0 96C199.684 738.408 342.289 896 518.259 896c175.94 0 318.579-157.592 318.579-351.999l0-2.003-0.37 0c-1-16.68-13.24-30-28.605-30-15.33 0-27.605 13.32-28.575 30l-0.36 0 0 2.003c0 159.06-116.7 287.997-260.669 287.997S257.624 703.06 257.624 544.001l0-96 579.214 0c63.97 0 115.85-57.305 115.85-128l0-319.999C952.683-70.698 900.803-127.997 836.838-127.997L836.838-127.997zM894.743 320.001c0 35.35-25.905 64-57.905 64L199.684 384.001c-32 0-57.94-28.65-57.94-64l0-319.999c0-35.35 25.94-64 57.94-64l637.153 0c31.97 0 57.905 28.65 57.905 64L894.742 320.001 894.743 320.001zM547.199 134.472l0-102.47c0-17.67-12.94-32-28.94-32-16 0-28.97 14.335-28.97 32l0 102.47c-33.575 13.26-57.91 47.86-57.91 89.515 0 53.03 38.88 96.015 86.88 96.015 47.97 0 86.88-42.985 86.88-96.015C605.138 182.332 580.773 147.732 547.199 134.472L547.199 134.472zM518.259 256.002c-16 0-28.97-14.33-28.97-32.015 0-17.65 12.97-31.985 28.97-31.985 16 0 28.94 14.335 28.94 31.985C547.199 241.672 534.259 256.002 518.259 256.002L518.259 256.002z"  horiz-adv-x="1024" />

    
    <glyph glyph-name="tuichu11" unicode="&#58956;" d="M802.151864 752.318097c31.235972-22.212313 59.004583-47.37867 83.296916-75.486189 24.297287-28.115447 45.120277-58.481358 62.471944-91.10467 17.356621-32.624303 30.543292-67.159173 39.568933-103.600644 9.023659-36.441472 13.533507-73.402205 13.533507-110.886164 0-64.556918-12.320575-125.116314-36.960733-181.691069-24.64214-56.569801-57.962096-105.853091-99.955902-147.845906-41.993807-41.998761-91.277096-75.313762-147.850861-99.955902-56.56881-24.64115-117.134151-36.965688-181.684132-36.965688-63.860275 0-124.078781 12.324539-180.648582 36.965688C297.348198-33.610306 247.89149-0.295305 205.55283 41.703456c-42.343615 41.992816-75.661588 91.276106-99.955902 147.845906C81.300632 246.124117 69.155456 306.684504 69.155456 371.240431c0 36.787316 4.33643 72.883934 13.015236 108.282918 8.678806 35.398984 20.996408 69.064784 36.960733 100.99839 15.968289 31.926669 35.749783 61.774309 59.350427 89.536975 23.599653 27.768611 49.974978 52.757587 79.131921 74.968909 15.272637 11.107643 31.755233 15.271646 49.456708 12.496965 17.696519-2.781618 32.100087-11.454478 43.20872-26.030472 11.108634-14.58194 15.271646-30.890128 12.496965-48.938437-2.781618-18.047318-11.454478-32.622321-26.029481-43.732937-43.732937-31.926669-77.225319-71.144804-100.480119-117.652422-23.247863-46.507618-34.873777-96.483587-34.873777-149.930881 0-45.810975 8.67286-89.026632 26.030472-129.631116 17.351666-40.605475 41.123746-76.003468 71.316239-106.197944 30.201412-30.19943 65.599405-54.144928 106.20488-71.846402 40.606466-17.696519 83.813205-26.548743 129.631116-26.548743 45.810975 0 89.018704 8.852223 129.62517 26.548743 40.606466 17.701474 76.009414 41.646971 106.202899 71.846402 30.195466 30.194475 54.139973 65.592469 71.841447 106.197944 17.702465 40.606466 26.548743 83.820141 26.548743 129.631116 0 54.138982-12.490028 105.333829-37.478013 153.576613-24.99393 48.240803-60.048061 87.977208-105.161402 119.21318-15.272637 10.411991-24.468723 24.643131-27.592221 42.69045-3.12548 18.048309 0.518271 34.708287 10.930261 49.981915 10.411991 14.575003 24.64214 23.427227 42.69045 26.547752C770.229159 766.369875 786.880218 762.730088 802.151864 752.318097L802.151864 752.318097zM534.570544 368.111978c-18.0493 0-33.494364 6.421405-46.336182 19.264214-12.841818 12.840827-19.263223 28.286882-19.263223 46.335191L468.971138 829.365044c0 18.048309 6.420414 33.6658 19.263223 46.853462 12.841818 13.188654 28.286882 19.781494 46.336182 19.781494 18.738016 0 34.529915-6.59284 47.371733-19.781494 12.841818-13.187663 19.262232-28.805153 19.262232-46.853462l0-395.65366c0-18.047318-6.420414-33.493373-19.262232-46.335191C569.100458 374.533383 553.308559 368.111978 534.570544 368.111978L534.570544 368.111978z"  horiz-adv-x="1024" />

    
    <glyph glyph-name="shuipingfanzhuan" unicode="&#58978;" d="M217.05304747 646.65144888l166.43231288 0 0-537.51753386-166.43231288 0 0 537.51753386ZM472.72500338 890.77159253l80.6354944 0 0-1007.85047325-80.6354944 0 0 1007.85047325ZM646.03131449 663.83644444l35.27293156 0 0-572.16714524-35.27293156 0L646.03131449 663.83644444zM812.85975609 663.83644444l35.27293156 0 0-572.16714524-35.27293156 0L812.85975609 663.83644444zM677.08081493 628.56351288l0 35.27293156 140.00237227 0 0-35.27293156L677.08081493 628.56351288zM677.29053013 91.71007714999996l0 35.27293156 140.00237227 0 0-35.27293156L677.29053013 91.71007714999996z"  horiz-adv-x="1024" />

    
    <glyph glyph-name="anjian" unicode="&#58885;" d="M941.14677836-0.11925626000004286l-90.97041867-21.52652221c-46.93974023-11.12888014-49.27785113-10.0028778-60.66769984 35.04915118l-9.26766421 34.13907657 188.92602866 44.77913904 6.08836237-22.55979549c14.35189725-56.69754642 19.81632194-57.1042321-34.10860831-69.89297309l0 0L941.14677836-0.11925626000004286zM660.1865895 489.41902053c-11.3898487 45.03745769-9.83993817 47.11725122 37.04813707 58.24745697l90.9955884 21.53976923c46.88807651 11.13153006 49.25268142 9.96313678 57.70300134-23.41555648l110.62380228-407.11488006L767.65625964 93.92316387000005 660.1865895 489.41902053 660.1865895 489.41902053 660.1865895 489.41902053zM400.53831948-27.666580179999983c-9.73131215 0-27.83346218 10.05719146-27.83346219 27.83346217L372.70485729 723.80641379l222.65974386 0 0-723.63953308c0-20.18061795-17.2053211-27.83346218-27.83213657-27.83346219L400.53831948-27.666580179999983zM372.70485729 807.30282482c0 13.4537453 11.25207876 27.83213658 27.83346219 27.83213658l166.99414639 0c16.44228917 0 27.83213658-9.71674083 27.83213656-27.83213658l0-55.66559877L372.70485729 751.63722605 372.70485729 807.30282482zM66.55002672-27.666580179999983c-9.86510786 0-27.83213658 9.31005516-27.83213658 27.83346217l0 55.66427318 250.49055612 0 0-55.66427318c0-18.23859437-17.28612877-27.83346218-27.83213657-27.83346217L66.55002672-27.666580179999983zM38.71789014 139.32756490999998l250.49055612 0 0-55.66427317-250.49055612 1.05976729L38.71789014 139.32756490999998zM289.20844755 528.98013083l0-361.82042935L38.71789014 167.15970276999997 38.71789014 528.98013083 289.20844755 528.98013083zM38.71789014 640.30867844c0 17.0834481 10.24529952 27.83213658 27.83213658 27.83213659l194.82628297 0c16.79863542 0 27.83213658-7.02625663 27.83213657-27.83213659l0-83.49641104L38.71789014 556.8122674 38.71789014 640.30867844z"  horiz-adv-x="1024" />

    
    <glyph glyph-name="fabu" unicode="&#58891;" d="M924.145781 662.910291l0 3.215228-0.642636 0.642636 0 2.571568-0.642636 0.642636 0 0.642636-0.642636 0.642636-0.642636 0-0.642636 0.642636 0 0.642636-1.928932 1.928932 0 0.642636-0.642636 0.642636 0 1.286296-1.928932 0-0.642636 0.642636-1.286296 0-0.642636 0.642636 0 0.642636-0.642636 0 0 0.642636-0.642636 0-0.642636 0.642636-0.642636 0 0 0.642636-2.571568 0 0 0.642636-5.14416 0-0.642636-0.642636-0.642636 0 0-0.642636-1.286296 0-0.642636-0.642636-1.286296 0L112.707968 380.000919c-10.287297-3.857864-15.431457-14.788821-11.573593-25.718755 2.571568-5.786797 7.073092-9.644661 12.216229-11.573593l235.972363-94.517677 24.433482-135.667889c1.928932-10.930957 12.216229-17.36039 22.50455-16.074094 4.500501 0.642636 8.358365 3.215228 10.930957 6.429433l87.444585 87.444585 178.104397-71.370491c10.287297-3.857864 21.218254 0.642636 25.718755 10.287297l223.756133 523.383258 0.642636 0.642636 0 0.642636 0 1.286296 0 5.14416L924.145781 662.910291 924.145781 662.910291zM364.112812 285.483242 364.112812 285.483242l-190.32165 75.870991 604.39841 230.829226L364.112812 285.483242 364.112812 285.483242zM405.263024 157.531082 405.263024 157.531082l-12.859889 74.585719 62.368466-25.076118L405.263024 157.531082 405.263024 157.531082zM670.169369 162.674219 670.169369 162.674219 406.54932 268.122853l452.012767 334.347904L670.169369 162.674219 670.169369 162.674219z"  horiz-adv-x="1024" />

    
    <glyph glyph-name="tongji" unicode="&#58953;" d="M912.5116956-16.97533308000004L122.62155576-16.97533308000004c-18.70464815 0-34.00796513 15.303317-34.00796513 34.00796514l0 9.49055361c0 18.70464815 15.303317 34.00796513 34.00796513 34.00796514l789.89013984 0c18.70464815 0 34.00796513-15.303317 34.00796515-34.00796514l0-9.49055361C946.51966074-1.6720160800000485 931.21634375-16.97533308000004 912.5116956-16.97533308000004zM748.0500919 806.7595722l0-773.71196572c0-18.70464815-15.303317-34.00796513-34.00796515-34.00796514l-9.4905536 0c-18.70464815 0-34.00796513 15.303317-34.00796515 34.00796514L670.54360888 806.7595722c0 18.70464815 15.303317 34.00796513 34.00796514 34.00796514l9.49055361 0C732.74588281 840.7684285400001 748.0500919 825.46422034 748.0500919 806.7595722zM548.89205117 549.95993109l0-516.91232461c0-18.70464815-15.303317-34.00796513-34.00796513-34.00796514l-9.49055362 0c-18.70464815 0-34.00796513 15.303317-34.00796513 34.00796514L471.38556817 549.95993109c0 18.70464815 15.303317 34.00796513 34.00796513 34.00796513l9.49055362 0C533.58873506 583.9678962200001 548.89205117 568.66457922 548.89205117 549.95993109zM334.87035313 352.9627262l-1e-8-319.91422852c0-18.70464815-15.303317-34.00796513-34.00796513-34.00796513l-9.49055361 0c-18.70464815 0-34.00796513 15.303317-34.00796514 34.00796513L257.36387011 352.9627262c0 18.70464815 15.303317 34.00796513 34.00796515 34.00796514l9.49055361 0C319.56703613 386.97069133 334.87035313 371.66737435000005 334.87035313 352.9627262z"  horiz-adv-x="1024" />

    
    <glyph glyph-name="qingchu" unicode="&#58922;" d="M511.66584718 893.70043051C230.32442653 893.70043051 2.25416192 665.62900195 2.25416192 384.28990919s228.06910066-509.41052131 509.41052131-509.41052132c281.33909163 0 509.41052131 228.07142969 509.41052132 509.41052132S793.00493995 893.70043051 511.66584718 893.70043051zM785.57557305 177.92326882999998c18.65549938-18.63919957 18.65549938-48.89224192 0-67.53144149-9.32716771-9.32716771-21.5464448-13.99133411-33.76572075-13.99133411s-24.43855303 4.6641664-33.76572075 13.99133411L511.67166919 316.76428970999996 305.29804174 110.39066226c-9.32716771-9.32716771-21.5464448-13.99133411-33.76572075-13.99133412-12.21927709 0-24.43855303 4.6641664-33.76572074 13.99133412-18.65549938 18.63919957-18.65549938 48.89224192 0 67.53144149L444.13906261 384.2957312 237.76660025 590.6681935700001c-18.65549938 18.63919957-18.65549938 48.89224192 0 67.53144149 18.65549938 18.65549938 48.87710606 18.65549938 67.53144149 0L511.67166919 451.82717269l206.37246236 206.37246237c18.65549938 18.65549938 48.87594211 18.65549938 67.5314415 0 18.65549938-18.63919957 18.65549938-48.89224192 0-67.53144149L579.20311069 384.2957312 785.57557305 177.92326882999998z"  horiz-adv-x="1024" />

    
    <glyph glyph-name="xingzhengzhifa" unicode="&#58910;" d="M506.58311737-120.83251313999995c-35.67516445 0-103.66766763 15.59573277-168.65046642 49.832993-54.19094926 28.55084373-125.20596139 79.91721187-155.77918464 162.46806073l-1.19922346 3.24023296-3.33221206 0.90931427c-31.95640605 8.71474859-64.43325213 27.09780253-89.102336 50.43376925-19.52755712 18.47037725-42.80647225 48.32639431-42.80647225 85.64670805 0 59.4104832 31.77011883 108.38655545 80.93946311 124.77517255l4.59314404 1.52988331 0 10.54502001c0 8.62975545 3.95743915 12.58370048 9.43544661 18.05472314l1.96998713 1.96765809 0 2.78499328c0 10.91643051 0 21.22626275 4.99366116 31.2077642l0.71022023 1.41927537 0 10.07231659-1.9676581 1.9676581c-2.48926322 2.48926322-5.55485184 5.55368789-7.50155321 8.21526642 27.71022279 8.95808626 147.65822749 43.04166002 367.69602105 43.04166001 220.03895751 0 339.98463431-34.08357376 367.69718499-43.04282396-1.94786531-2.66274247-5.01112605-5.7260032-7.49806022-8.21410133l-11.46714226-11.46714226 15.2348012 0c0.19094414-3.07606755 1.20388153-6.53984541 2.36002646-10.48796957 1.54851214-5.29172139 3.30310542-11.29016889 3.30310542-17.00802218l0-2.78266539 1.96649415-1.96649415c5.48499456-5.48266553 9.44010467-9.43893959 9.44010468-18.0582161l0-10.54502002 4.59314403-1.5310484c50.88318691-16.95795769 80.42484509-67.95408043 75.26003257-129.92019228l-0.02328576-0.27710236 0-0.27943026c0-26.99301661-15.22548622-56.67322653-42.87050865-83.57309895-25.23725938-24.55731086-58.51863381-44.18499698-89.0301497-52.50737835l-3.32988416-0.90931428-1.20038854-3.24023296C800.44303815 8.917691730000001 729.42569699-42.44867754999996 675.23358379-70.99952013999996 610.24961991-105.23678151000001 542.25595392-120.83251313999995 506.58311737-120.83251313999995zM249.25644573 132.79984980999996c35.85446571-130.89703595 211.95874987-187.23028765 263.03055302-187.23028764 29.56960199 0 86.4454144 14.72600405 137.93752747 42.87516558 46.52290162 25.43286158 106.00207929 71.16753465 125.16171776 144.61825252l0.21772288 0.83247104 0 0.8639067c0 12.83169621 13.65368832 21.79211037 33.20453007 21.79211036 18.07684494 0 54.15718457 19.76507278 71.84631921 44.31190585 9.34463261 12.9655899 12.43932786 25.9335077 8.98719403 37.5834442-0.22470883 18.12574549-6.26157909 30.19482795-12.10284715 41.87154318l-4.16934001 8.33285917-6.58758088-6.58758088c-4.68861611-4.68861611-14.35459357-9.43544661-23.7597696-9.43544661-19.56714269 0-33.20336611 14.48848725-33.20336611 27.49133483l0 34.21397447c0 11.78848711 0 29.6022016-6.04851314 47.74657593l-2.61500701 7.84385592-7.1417856-4.16701212c-60.67607211-35.39573419-168.04736227-73.21669405-287.42951936-73.21669404-122.65848377 0-232.97311175 46.00246158-287.81373667 73.42277404l-9.72186397 4.86093142 0-10.86869391c0-4.5163008-1.12238023-10.63117824-2.3111259-17.10349425-1.58926279-8.66584803-3.39275549-18.4855131-3.39275548-28.51824299l0-34.21397447c0-13.00284757-13.63156651-27.49133483-33.19405227-27.49133483-9.40750393 0-19.07348139 4.74566656-23.76209749 9.43544661l-6.58874596 6.58758088-4.16817607-8.33285917c-5.95653405-11.90841003-12.11681906-24.2219941-12.11681905-42.9217371 0-22.92380558 24.47930368-44.48072818 39.0714129-55.28887865 19.66727168-14.5711525 42.52936989-25.55511239 53.17801188-25.55511239C230.52293917 156.55146836999995 244.57714461 146.57345991 249.25644573 132.79984980999996zM96.48463531 519.36909312c-4.28344206 33.50259029-32.98680718 74.22380942-58.54424861 110.47995733-10.73596416 15.23014315-20.87581013 29.61617351-27.38421987 41.12173739-8.63441237 15.26507293-7.35135858 19.35524067-7.00789192 20.02005333 0.28175929 0.54372579 2.09340302 1.57063395 6.9357056 1.57063396 232.22097693 0 327.26354603 79.79612615 396.66018874 138.06094336 37.14683335 31.18680747 66.48706845 55.81979762 105.1428295 55.81979762 40.16235747 0 74.53584043-26.10698809 118.05136783-59.16016072 74.85485739-56.85602077 177.36987307-134.72058027 383.7481563-134.72058026 3.49637859 0 5.25795669-0.43428181 6.04036323-0.72186311-0.30853803-1.5554981-2.0654592-6.2278144-11.57542115-17.25019591-8.32238137-9.64734862-20.25174813-21.55925163-32.88202126-34.1685669-37.37852814-37.31914979-83.16093895-83.02820921-87.78901163-120.27517156-12.69430841 3.67800775-39.52781653 10.59275662-82.27141746 17.55058404-56.17374322 9.14320953-151.671552 20.04217515-287.6204635 20.04217514C289.3419611 557.73843683 132.25760085 527.06042653 96.48463531 519.36909312zM408.62981006 665.0654833799999c0-19.03855275 17.38176057-39.42535851 51.65860751-60.59689984 24.41876025-15.08344263 48.43118137-25.0276864 49.44178972-25.44450447l2.55679146-1.05368689 2.55795656 1.05368689c1.00944327 0.41565298 25.0195365 10.36106183 49.43946069 25.44450447 34.27568185 21.17154133 51.65394944 41.55834709 51.65394944 60.59689984l0 6.71798272-5.69689543 0 0 79.83571171L408.62981006 751.61917667 408.62981006 665.0654833799999zM369.72605554 158.57967104c-16.24424448 0-32.14618624 6.58758087-43.63195733 18.07218802-11.48926407 11.49508494-18.07917397 27.39935573-18.07917398 43.6377782 0 16.23725853 6.5899099 32.14502229 18.07917398 43.64127119 11.48693504 11.48227811 27.39004075 18.07102407 43.63195733 18.07102406 16.24657351 0 32.15317219-6.58874595 43.64127118-18.07335196 11.48227811-11.49159197 18.06869504-27.39586275 18.06869504-43.63894329 0-16.2407515-6.58641693-32.14735019-18.07102407-43.64010723C401.87922773 165.16725191 385.97495694 158.57967104 369.72605554 158.57967104zM671.94910834 158.57967104c-16.24424448 0-32.14735019 6.58758087-43.63312128 18.07218802-11.48577109 11.49042802-18.07335197 27.39469881-18.07335197 43.6377782s6.58758087 32.14967922 18.07451592 43.64127119c11.48460601 11.48227811 27.3888768 18.07102407 43.63195733 18.07102406 16.24308053 0 32.14967922-6.58874595 43.63661425-18.07335196 11.48577109-11.49392099 18.07451591-27.39819065 18.07451592-43.63894329 0-16.23842361-6.58874595-32.14502229-18.075681-43.64010723C704.0999515 165.16725191 688.19451677 158.57967104 671.94910834 158.57967104z"  horiz-adv-x="1024" />

    
    <glyph glyph-name="ai231" unicode="&#59099;" d="M914.39085959 902.24280223l-803.15542599 0c-63.11044093 0-114.79914688-51.592243-114.79914689-114.78708975l0-803.08308025c0-63.09687701 51.68870595-114.78708974 114.79914689-114.78708973l803.15542599 0c63.02603657 0 114.71323575 51.68870595 114.71323576 114.78708973l0 803.08308025C1029.10409535 850.65055924 977.41689763 902.24280223 914.39085959 902.24280223M914.39085959 213.80061051999996l-229.51238263 0c0-97.48416887-74.53217737-172.11280919-172.10075059-172.11280919-97.48416887 0-172.11280919 74.62863885-172.1128092 172.11280919l-229.42797827 0 0 573.65510196 803.155426 0L914.39236784 213.80061051999996zM742.290109 500.71256659l-114.71323574 0 0 172.10225737-229.5138894 0 0-172.10225737-114.71323576 0 229.42797827-229.59829377L742.290109 500.71256659z"  horiz-adv-x="1024" />

    
    <glyph glyph-name="lock" unicode="&#59093;" d="M854.855-96h-685.712c-37.871 0-68.572 28.658-68.572 64.019v479.999c0 35.325 30.7 63.983 68.572 63.983h685.712c37.868 0 68.573-28.658 68.573-63.983v-479.999c0-35.359-30.705-64.022-68.569-64.019h-0.004zM511.996 351.991c-56.82 0-102.854-42.96-102.854-95.993 0-35.428 20.828-66.064 51.43-82.67v-91.342c0-27.585 23.031-49.987 51.429-49.987 28.388 0 51.43 22.402 51.43 49.987v91.342c30.601 16.606 51.425 47.242 51.425 82.67 0 53.027-46.034 95.988-102.855 95.988l-0.006 0.004zM511.996 768.0070000000001c-113.603 0-205.714-85.951-205.714-191.989h-102.852c0 159.041 138.144 287.982 308.566 287.982 170.423 0 308.573-128.942 308.573-287.982h-102.855c0.001 106.038-92.11 191.989-205.717 191.989v0zM511.996 768.0070000000001z"  horiz-adv-x="1024" />

    
    <glyph glyph-name="zhongzhi" unicode="&#59239;" d="M923.29415111 179.05550222c-17.78688 10.56199111-40.67214222 4.73656889-51.17155556-12.96042666-75.93642667-127.44704-215.18791111-206.60224-363.36412444-206.60224-197.70595555 0-364.15032889 136.39793778-410.10631111 320.05233778l54.20828445-54.17528889c14.56469333-14.56696889 38.18154667-14.56696889 52.7507911 0 14.50780445 14.56696889 14.50780445 38.18154667-0.06144 52.75079111l-130.44849777 130.41891556c-10.62456889 10.68373333-26.58304 13.83992889-40.61070223 8.07253333-13.96053333-5.76739555-23.00700445-19.36611555-23.00700444-34.44622223 0-274.19192889 223.08181333-497.27374222 497.27374222-497.27374222 174.33713778 0 338.11228445 93.11687111 427.46538667 243.02136889 10.50282667 17.69472 4.73656889 40.57884445-12.92856889 51.14083556v0zM508.76074667 879.43964445c-191.69735111 0-363.0592-107.08195555-447.13301334-279.44163556-9.04533333-18.51278222-1.33461333-40.85304889 17.17930667-49.86766222 18.33301333-9.04533333 40.85304889-1.42791111 49.83808 17.14972445 71.50819555 146.53326222 217.13237333 237.55662222 380.11676445 237.55662222 197.70823111 0 364.09230222-136.39793778 410.1063111-320.02389334l-66.22776888 66.19591112c-14.56469333 14.56696889-38.12352 14.56696889-52.68935112 0s-14.56469333-38.17927111 0-52.75079112l142.46684445-142.46684444c7.10200889-7.13159111 16.63317333-10.92721778 26.34524445-10.92721778 4.79232 0 9.65176889 0.94094222 14.26545777 2.85240889 13.96053333 5.76739555 23.00814222 19.36611555 23.00814223 34.44622222-0.00113778 274.19420445-223.08181333 497.27374222-497.27488 497.27374223v0z"  horiz-adv-x="1024" />

    
    <glyph glyph-name="icon_update" unicode="&#58886;" d="M111.50222222 711.6800000000001L202.52444445 820.90666667 821.47555555 820.90666667 912.49777778 711.6800000000001 111.50222222 711.6800000000001ZM657.63555555 201.95555554999999L657.63555555 56.32000000000005 366.36444445 56.32000000000005 366.36444445 201.95555554999999 147.91111111 201.95555554999999 486.98709333 555.34023111C500.78606222 569.75815111 523.28675555 569.72174222 537.01290667 555.41304889L876.08888889 201.95555554999999 657.63555555 201.95555554999999ZM1001.48110222 705.63612445L896.33223111 863.3594311100001C885.19111111 880.07111111 859.92334222 893.72444445 839.97127111 893.72444445L184.02872889 893.72444445C164.47715555 893.72444445 138.84529778 880.10752 127.66776889 863.3594311100001L22.51889778 705.63612445C11.37777778 688.92444445 2.27555555 658.92352 2.27555555 638.78940445L2.27555555-53.234346670000036C2.27555555-93.32053332999999 34.75228445-125.72444444999996 74.76565333-125.72444444999996L949.23434667-125.72444444999996C988.95644445-125.72444444999996 1021.72444445-93.28412445000004 1021.72444445-53.234346670000036L1021.72444445 638.78940445C1021.72444445 659.28760889 1012.65863111 688.88803555 1001.48110222 705.63612445"  horiz-adv-x="1024" />

    
    <glyph glyph-name="icon_rotate" unicode="&#58909;" d="M1000.93496889 810.49372445C1000.93496889 827.38744889 990.52202667 842.35150222 975.59438222 848.86869333 959.97496889 855.34947555 941.77052445 852.10908445 930.08327111 839.76647111L845.54183111 755.88039111C753.86424889 842.35150222 629.70993778 893.72444445 501.62346667 893.72444445 226.59072 893.72444445 2.27555555 669.40928 2.27555555 394.37653333 2.27555555 119.38019555000005 226.59072-104.93496889000005 501.62346667-104.93496889000005 650.49941333-104.93496889000005 790.92849778-39.25333333000003 885.84647111 75.17980445 892.36366222 83.62666666999996 892.36366222 95.96928000000003 884.57216 103.10542222000004L795.47960889 192.85333333000005C790.92849778 196.74908445000005 785.06666667 198.67875555 779.24124445 198.67875555 773.37941333 198.05980445 767.51758222 195.43836445 764.27719111 190.88725333000002 700.56163555 108.31189332999998 604.98830222 61.52647110999999 501.62346667 61.52647110999999 318.26830222 61.52647110999999 168.73699555 211.05777778000004 168.73699555 394.37653333 168.73699555 577.73169778 318.26830222 727.26300445 501.62346667 727.26300445 586.78385778 727.26300445 667.39313778 694.74986667 728.52366222 638.20686222L638.81216 548.49536C626.43313778 536.7716977800001 623.19274667 518.5672533300001 629.70993778 503.6032 636.19072 488.02019555 651.15477333 477.60725333 668.04849778 477.60725333L959.31960889 477.60725333C982.07516445 477.60725333 1000.93496889 496.46705778 1000.93496889 519.2226133300001L1000.93496889 810.49372445Z"  horiz-adv-x="1024" />

    
    <glyph glyph-name="chaxun" unicode="&#58907;" d="M259.22684017 719.42620502l525.63691179 0 0-65.70445028-525.63691179 0 0 65.70445028ZM257.47515959 587.37208775l525.63691179 0 0-65.70445027-525.63691179 0 0 65.70445027ZM127.81925489 851.90608783l788.45339761 0 0-525.6355988 65.70445028 0 0 525.6355988c0 36.28725362-29.41719666 65.70445027-65.70445028 65.70445027l-788.45339761 0c-36.28725362 0-65.70445027-29.41719666-65.70445028-65.70445027l0-919.86229704c0-36.28725362 29.41719666-65.70445027 65.70445028-65.70445027l459.93114851 0 0 65.70445027-459.93114851 0L127.81925489 851.90608783zM258.78924855 324.56085958999995l0-65.70445027 159.80373448 0c0 22.83361053 3.34435669 44.88270962 9.54160014 65.70445027L258.78924855 324.56085958999995zM527.43109062 455.96975901L257.47515959 455.96975901l0-65.70445027 199.72970042 0C475.70854797 416.79019578 499.65387775 439.23352122 527.43109062 455.96975901zM1024.91890231-72.84330609000006L874.25859924 76.02852182000004c34.63807203 40.25711616 55.58202254 92.63407559 55.58202254 149.90733084 0 127.00670179-102.96018717 229.96557369-229.96426069 229.9655737-127.00538766 0-229.96557369-102.95887303-229.96557369-229.9655737 0-127.00407353 102.96018717-229.96557369 229.96557369-229.96557368 45.97997341 0 88.80350663 13.50226489 124.73595562 36.74849848l153.84696947-152.02301382c12.82945138-12.82945138 33.6301659-12.82945138 46.45961613 0C1037.74703956-106.47347199000001 1037.74703956-85.67407161000006 1024.91890231-72.84330609000006zM535.61392241 225.93585266000002c0 90.71944818 73.54430464 164.26112455 164.26243868 164.26112456 90.71681991 0 164.25981042-73.54167637 164.25981042-164.26112456 0-90.71681991-73.54299051-164.26112455-164.25981042-164.26112454C609.15822705 61.674728120000054 535.61392241 135.21903276 535.61392241 225.93585266000002z"  horiz-adv-x="1045" />

    
    <glyph glyph-name="querenfangan" unicode="&#58923;" d="M616.08658773-80.53458773L82.1609408-80.53458773c-16.0627456 0-29.55545067 9.63764693-29.55545067 19.91780373L52.60549013 795.20627413c0 10.92266667 14.135216 19.91780373 29.55545067 19.91780374L139.3443136 815.12407893c10.2801568 0 17.99027413 8.3526272 17.99027413 17.99027414 0 10.2801568-8.3526272 17.99027413-17.99027413 17.99027413l-57.1833728 0c-36.6230592 0-66.17850987-25.05788267-66.17850987-56.54086293l0-855.18054934c0-30.8404704 29.55545067-56.54086293 66.17850987-56.54086293l533.92564693 0c10.2801568 0 17.99027413 8.3526272 17.99027414 17.99027413S626.3667456-80.53458773 616.08658773-80.53458773zM775.42901973 815.12407893l42.40564694 0c16.0627456 0 29.55545067-9.63764693 29.55545066-19.91780373l0-407.351216c0-10.2801568 8.3526272-17.99027413 17.99027414-17.99027413 10.2801568 0 17.99027413 8.3526272 17.99027413 17.99027413L883.37066667 795.20627413c0 30.8404704-29.55545067 56.54086293-66.17850987 56.54086294L775.42901973 851.74713707c-10.2801568 0-17.99027413-8.3526272-17.99027413-17.99027414C757.4387456 823.47670613 765.14886293 815.12407893 775.42901973 815.12407893zM788.279216 557.47764693c0 10.2801568-8.3526272 17.99027413-17.99027413 17.99027414L132.919216 575.46792107c-10.2801568 0-17.99027413-8.3526272-17.99027413-17.99027414 0-10.2801568 8.3526272-17.99027413 17.99027413-17.99027413l637.36972587 0C780.5690976 538.84486293 788.279216 547.19749013 788.279216 557.47764693zM621.86917653 338.38180373c0 10.2801568-8.3526272 17.99027413-17.99027413 17.99027414L132.919216 356.37207893000004c-10.2801568 0-17.99027413-8.3526272-17.99027413-17.99027413 0-10.2801568 8.3526272-17.99027413 17.99027413-17.99027413l470.9596864 0C614.1590592 320.3915296 621.86917653 328.74415680000004 621.86917653 338.38180373zM132.919216 138.56125440000005c-10.2801568 0-17.99027413-8.3526272-17.99027413-17.99027413 0-10.2801568 8.3526272-17.99027413 17.99027413-17.99027414l384.22086293 0c10.2801568 0 17.99027413 8.3526272 17.99027414 17.99027414 0 10.2801568-8.3526272 17.99027413-17.99027414 17.99027413L132.919216 138.56125440000005zM220.9430592 775.93098027l467.74713707 0c30.19796053 0 55.2558432 25.05788267 55.2558432 55.2558432l0 4.49756906c0 30.19796053-25.05788267 55.2558432-55.2558432 55.2558432L220.9430592 890.94023573c-30.19796053 0-55.2558432-25.05788267-55.2558432-55.2558432l0-4.49756906C165.687216 800.34635307 190.7450976 775.93098027 220.9430592 775.93098027zM226.72564693 851.74713707l456.8244704 0c10.2801568 0 17.99027413-8.3526272 17.99027414-17.99027414 0-10.2801568-8.3526272-17.99027413-17.99027414-17.99027413L226.72564693 815.76658773c-10.2801568 0-17.99027413 8.3526272-17.99027413 17.99027414C208.09286293 843.39450987 216.44549013 851.74713707 226.72564693 851.74713707zM804.34196053 351.23199999999997c-127.85945067 0-231.3035296-104.08658773-231.3035296-231.3035296s104.08658773-231.3035296 231.3035296-231.3035296 231.3035296 104.08658773 231.3035296 231.3035296S931.5589024 351.23199999999997 804.34196053 351.23199999999997zM804.34196053-86.95968640000001c-114.3667456 0-206.8881568 93.16392107-206.8881568 206.8881568 0 114.3667456 93.16392107 206.8881568 206.8881568 206.8881568s206.8881568-93.16392107 206.8881568-206.8881568C1011.23011733 6.20423573000005 918.06619627-86.95968640000001 804.34196053-86.95968640000001zM909.0710592 204.73976427000002l-128.50196053-131.072-82.2412544 77.7436864c-7.06760747 7.06760747-18.632784 6.4250976-25.70039254-0.64250987-7.06760747-7.06760747-6.4250976-18.632784 0.64250987-25.70039253l107.94164693-102.1590592 153.5598432 156.12988266c7.06760747 7.06760747 7.06760747 18.632784 0 25.70039254C927.7038432 211.80737280000005 916.13866667 211.80737280000005 909.0710592 204.73976427000002z"  horiz-adv-x="1024" />

    
    <glyph glyph-name="kuaisukaidian" unicode="&#59114;" d="M270.11537465-64.28503153999998c-12.82354517 6.85071246-17.56571989 22.83531833-10.71500743 35.65886464s22.83531833 17.56571989 35.65886464 10.71500743c32.84825657-17.74152818 67.98085917-31.61876025 104.86922012-40.92846421 35.83467293-8.95925021 73.25045874-13.70142379 112.07154916-13.70142379 126.12342557 0 240.3035136 51.1172096 322.86367516 133.6773723s133.6773723 196.73908451 133.67737231 322.86367517-51.1172096 240.3035136-133.67737231 322.86367517S638.12342557 840.54104747 512 840.54104747s-240.3035136-51.1172096-322.86367517-133.6773723S55.45895253 510.12459065 55.45895253 384c0-55.50893056 9.83712882-108.55770681 27.93027357-157.56754261 18.79521507-51.1172096 46.19806379-97.84269938 80.62859719-138.24490155 9.48551225-11.066624 8.08020765-27.75446528-2.98641636-37.06416925-11.066624-9.48551225-27.57865699-8.08020765-36.88835982 2.98641636-38.64528099 45.32018517-69.56197205 97.49108167-90.28875264 154.22950855-20.20051968 54.80569629-31.26714368 114.00311467-31.26714368 175.66068736 0 140.70389305 57.09004345 268.05797888 149.13571726 360.27946098 92.2214821 92.04567381 219.57556793 149.13571726 360.27946098 149.13571726s268.05797888-57.09004345 360.27946098-149.13571726c92.04567381-92.2214821 149.13571726-219.57556793 149.13571726-360.27946098s-57.09004345-268.05797888-149.13571726-360.27946097c-92.2214821-92.04567381-219.57556793-149.13571726-360.27946098-149.13571727-43.03700195 0-84.84334478 5.44540786-124.89393038 15.45834496C345.82482489-99.59227847 306.65328185-84.13393351000002 270.11537465-64.28503153999998zM687.30907079 432.83402752L555.73907229 432.83402752 587.70945024 696.1486677299999 328.78653099 351.67916942 460.17955613 351.67916942 428.38498645 88.18871979000005Z"  horiz-adv-x="1024" />

    
    <glyph glyph-name="jiaose" unicode="&#58957;" d="M599.37972406 442.29132166c70.38961801 32.03941202 115.17197729 101.45813845 115.17197729 178.52263326 0 108.98254628-83.01120353 187.38201668-192.23647209 187.38201668s-192.96464138-79.12763847-192.96464138-187.98882301c0-79.61308426 46.23869664-145.02688389 119.78371163-176.09540554 32.03941202-13.71383884 97.21048937-20.2673551 150.24542455-1.82042139z m-166.75057634-68.32647312c-4.00492681 1.33497561-8.49529819 2.18450542-12.50022619 3.88356506-97.45321165 41.02015598-165.65832423 136.28886342-165.65832302 241.75192746 0 144.42007757 112.13794205 266.63101691 267.48054672 266.63101691 158.61936219 0 267.48054672-121.84685531 267.4805455-266.14557113 0-102.18630653-64.8069921-196.60548293-158.01255466-239.203338-72.45276167-31.55396623-144.66279985-24.87908944-198.78998835-6.9176003z m-296.36456296-471.85316098c-35.07344725 0.12136175-71.48187011 15.89834426-89.92880382 44.90372225-17.84012739 28.03448522-15.65562197 67.35558277-1.57769789 97.3318499 48.90864784 104.37081194 176.94493537 280.10213345 485.44563807 284.83522833 317.23872438 5.82534819 432.65342517-182.4061983 473.18813537-294.54414036 10.67980359-29.49082256 12.37886324-56.31169392-5.21854066-88.47246768-20.75280089-33.37438762-56.67577795-41.50560176-89.92880504-41.50560176h-80.46261406c-17.84012739 0-32.03941202 18.20421142-32.03941203 36.0443376s14.56336865 33.8598334 32.28213431 33.8598334h82.4043972c12.37886324 0 18.81101895 0.24272228 25.60725751 9.83027499 3.51948102 4.97581838 7.64576836 16.01970601 2.91267349 29.00537678-42.35513158 117.11376043-156.43485677 244.66460217-410.68700923 244.66460096-249.88314161 0-355.71029091-128.03628752-410.68700922-234.5916049-4.73309488-10.07299728-5.70398644-24.63636594 0.36408404-33.98119393 6.55351626-10.31571956 13.95656234-14.80609215 26.82087135-14.80609215h547.0972344c17.84012739 0 33.6171099-17.71876564 33.6171099-35.55889304 0-17.84012739-14.56336865-36.89386864-32.40349604-36.89386864"  horiz-adv-x="1024" />

    
    <glyph glyph-name="xiaoyuangonggao1" unicode="&#59086;" d="M791.94379627-23.447330129999955L228.70583147-23.447330129999955c-69.12689173 0-125.17230613 56.04520107-125.17230614 125.17251946L103.53352533 664.98063573c0 69.1087712 56.04562773 125.15375893 125.17230614 125.15375894l563.2379648 0c69.1273184 0 125.17251947-56.04498773 125.17251946-125.15375894l0-563.25565973C917.11631573 32.59765760000005 861.071328-23.447330129999955 791.94379627-23.447330129999955zM854.5477504 664.98063573c0 34.54511147-28.04072213 62.56749973-62.60395413 62.56749974L228.70583147 727.5481344c-34.54511147 0-62.58626027-28.02260053-62.58626027-62.56749973l0-563.25565974c0-34.54511147 28.04114773-62.58668587 62.58626027-62.58668586l563.2379648 0c34.56323307 0 62.60395413 28.04178773 62.60395413 62.58668586L854.5477504 664.98063573zM729.37523093 164.31059627000002l-438.0837792 0c-17.29963093 0-31.29291627 14.01076693-31.29291626 31.29291626 0 17.30027093 13.99307307 31.29398293 31.29291626 31.29398294l438.0837792 0c17.2640288 0 31.29398293-13.993712 31.29398294-31.29398294C760.66921387 178.32136319999995 746.63925867 164.31059627000002 729.37523093 164.31059627000002zM729.37523093 539.790208c-17.31839147 0-31.292704 14.02995413-31.292704 31.31210347 0 17.30027093 13.9745248 31.27415573 31.292704 31.27415573 17.2640288 0 31.29398293-13.97388587 31.29398294-31.27415573C760.66921387 553.8199488 746.63925867 539.790208 729.37523093 539.790208zM592.8495552 352.06873599999994L291.29145173 352.06873599999994c-17.29963093 0-31.29291627 14.0118336-31.29291626 31.27479573 0 17.30027093 13.99307307 31.29334293 31.29291626 31.29334294l301.55789014 0c17.28214933 0 31.29398293-13.99307307 31.29398293-31.29334294C624.1433248 366.0805696 610.0943968 352.06873599999994 592.8495552 352.06873599999994zM510.3425088 539.790208c-17.31839147 0-31.29227733 14.02995413-31.29227733 31.31210347 0 17.30027093 13.97388587 31.27415573 31.29227733 31.27415573 17.28321493 0 31.27479573-13.97388587 31.27479573-31.27415573C541.6170912 553.8199488 527.62572373 539.790208 510.3425088 539.790208zM291.29145173 539.790208c-17.29963093 0-31.29291627 14.02995413-31.29291626 31.31210347 0 17.30027093 13.99307307 31.27415573 31.29291626 31.27415573 17.31945707 0 31.29334293-13.97388587 31.29334294-31.27415573C322.585008 553.8199488 308.6109088 539.790208 291.29145173 539.790208z"  horiz-adv-x="1024" />

    
    <glyph glyph-name="baocun" unicode="&#58898;" d="M296.896 121.5936 413.568 121.5936 413.568-67.7248 296.896-67.7248 296.896 121.5936ZM940.888186 895.961888 22.875417 895.961888C10.7259 895.961888 0.876844 886.112833 0.876844 873.963316L0.876844 79.141888 147.983078-66.049126 215.163148-66.049126 215.163148-65.924749 215.163148-33.236186 215.163148 214.443123 657.644186 214.443123 657.644186-65.924749 656.954048-65.924749 656.954048-66.049126 940.888186-66.049126C953.037709-66.049126 962.886758-56.200077 962.886758-44.050554L962.886758 873.963316C962.887859 886.112833 953.038803 895.961888 940.888186 895.961888L940.888186 895.961888ZM809.340339 411.831495 154.424369 411.831495 154.424369 843.305544 809.340339 843.305544 809.340339 411.831495 809.340339 411.831495ZM296.896-65.9264 413.568-65.9264 413.568-72.3264 296.896-72.3264Z"  horiz-adv-x="1024" />

    
    <glyph glyph-name="wode" unicode="&#59160;" d="M0-128C0 87.296 94.1568 276.1216 235.9296 384.4096 285.4912 261.8368 389.9904 176.5376 512 176.5376 634.0096 176.5376 738.5088 261.8368 788.0704 384.4096 929.8432 276.1216 1024 87.296 1024-128L0-128ZM512 281.6C342.3232 281.6 204.8 419.1232 204.8 588.8 204.8 758.4768 342.3232 896 512 896 681.6768 896 819.2 758.4768 819.2 588.8 819.2 419.1232 681.6768 281.6 512 281.6Z"  horiz-adv-x="1024" />

    
    <glyph glyph-name="wenjian" unicode="&#58929;" d="M736.005 199.506H174.18c-17.673 0-32 14.327-32 32V640.418c0 17.673 14.327 32 32 32h157.213c7.96 0 15.635-2.967 21.525-8.321l47.547-43.222h335.54c17.673 0 32-14.327 32-32v-357.369c0-17.673-14.327-32-32-32z m-529.825 64h497.825V556.875H388.094a32.002 32.002 0 0 0-21.525 8.321l-47.547 43.222H206.18v-344.912zM853.18 74.908H317.509c-17.673 0-32 14.327-32 32s14.327 32 32 32H821.18V481.794c0 17.673 14.327 32 32 32s32-14.327 32-32v-374.886c0-17.673-14.327-32-32-32z"  horiz-adv-x="1024" />

    
    <glyph glyph-name="edit-" unicode="&#58901;" d="M72.36266667 58.19733334l317.44 45.73866666-296.27733334 283.30666667L41.64266667 89.60000000000002a27.30666667 27.30666667 0 0 1 30.72-31.40266666z m68.26666666 381.61066666L439.63733333 157.86666666999997l303.104 316.75733333L443.73333333 756.56533334zM547.49866667 862.37866667l-50.51733334-53.248 296.27733334-282.624 50.51733333 53.248a32.08533333 32.08533333 0 0 1 0 45.056L593.23733333 863.744a32.08533333 32.08533333 0 0 1-45.73866666-1.36533333zM170.66666667 21.333333339999967h273.06666666v-136.53333334H170.66666667zM853.33333333 21.333333339999967h136.53333334v-136.53333334h-136.53333334zM580.26666667 21.333333339999967h136.53333333v-136.53333334H580.26666667z"  horiz-adv-x="1024" />

    
    <glyph glyph-name="back" unicode="&#58890;" d="M511.77511602-65.55110215000002c-60.70218926 0-119.64744141 11.85932813-175.07881758 35.40228926-53.58659238 22.66449346-101.7266792 55.07998945-142.9268625 96.455867-41.37587754 41.28802998-73.79137354 89.34027011-96.45586699 143.01470917-23.45511533 55.51922373-35.31444258 114.3766292-35.31444346 175.07881846s11.9471748 119.64744141 35.31444346 175.07881846c22.66449346 53.32305234 55.07998945 101.55098497 96.45586699 142.83901582s89.34027011 73.79137354 142.9268625 96.28017275c55.43137705 23.45511533 114.3766292 35.40229013 175.07881758 35.40229014s119.64744141-11.85932813 175.07881845-35.40229014c53.58659238-22.66449346 101.7266792-54.99214277 142.9268625-96.28017275 41.37587754-41.28802998 73.79137354-89.34027011 96.45586699-143.01471006 23.45511533-55.51922373 35.31444258-114.3766292 35.31444258-175.07881758 0-81.43405137-22.04956494-161.19901231-63.68898251-230.77373643-7.64267783-12.73779667-23.98219629-16.77875273-36.6321463-9.22392158-12.64995 7.64267783-16.69090606 23.98219629-9.22392158 36.71999297 36.63214628 61.22927021 56.04630469 131.50676865 56.13415225 203.18981748 0 53.4987457-10.45377773 105.32840098-31.09779317 154.17126299-19.94124023 47.26161738-48.57932109 89.51596347-84.94792646 125.97241553s-78.88649238 65.00668623-126.06026309 84.94792646c-48.93070869 20.64401543-100.76036309 31.09779317-154.34695635 31.09779316s-105.41624766-10.45377773-154.34695634-31.09779316c-47.08592403-19.94124023-89.4281168-48.57932109-125.79672217-84.94792646s-65.00668623-78.71079815-84.94792647-125.97241553c-20.64401543-48.84286114-31.09779317-100.76036309-31.09779228-154.17126299 0-53.4987457 10.45377773-105.32840098 31.09779228-154.1712621 19.94124023-47.26161738 48.57932109-89.51596347 84.94792647-125.97241641 36.36860537-36.36860537 78.88649238-65.00668623 126.06026309-84.94792559 48.84286114-20.73186211 100.76036309-31.09779317 154.34695635-31.09779317 79.85280761 0 156.80666865 23.63080869 222.60397675 68.3448671 12.21071573 8.25760635 28.81377422 5.18296553 37.15922724-7.0277502 8.25760635-12.21071573 5.18296553-28.9016209-7.02775019-37.15922725-74.84553633-50.86333916-162.2531751-77.65663623-252.91114804-77.65663535zM539.9484875 209.55104355000003h-142.31193487c-14.75827471 0-26.70544951 11.9471748-26.70544951 26.70544952 0 14.75827471 11.9471748 26.70544951 26.70544951 26.70544951h142.31193487c24.77281816 0 48.05223925 9.57530918 65.44591963 26.96899042 17.30583369 17.39368125 26.88114287 40.58525567 26.88114375 65.1823796 0 24.86066484-9.4874625 47.96439258-26.88114375 65.35807383-17.30583369 17.30583369-40.32171474 26.79329619-64.74314531 26.79329618h-143.19040343c-14.75827471 0-26.70544951 11.9471748-26.70544862 26.70544952s11.9471748 26.70544951 26.70544863 26.70544951h143.10255673c38.82831768 0 75.2847706-15.02181563 102.60514776-42.51788701 27.32037714-27.40822471 42.51788701-63.95252344 42.51788701-103.13222871 0-38.91616523-15.10966231-75.54831065-42.51788701-103.04438204-27.49607138-27.32037714-64.12821768-42.43003945-103.22007539-42.43004033zM421.35520801 569.19614297v-190.27632745l-95.0503166 95.22600997z"  horiz-adv-x="1024" />

    
    <glyph glyph-name="icon-test" unicode="&#58912;" d="M987.73696213-60.39868693000005L744.57102933 183.5869824C886.7554688 344.88841813 881.50740907 592.05152107 727.7200416 746.33116693 647.73078827 826.59766827 542.7936032 866.6228576 437.87715627 866.6228576c-104.93718507 0-209.95623573-40.02518933-289.84288427-120.29169067-159.8147776-160.31688-159.8147776-421.1840992 0-581.48023893 79.8866496-80.195552 184.9056992-120.20982613 289.84288427-120.20982613 98.58231787 0 196.83717653 35.87411413 274.65320106 106.47514666l242.96072534-243.76081493c8.4254944-8.4254944 22.30425493-8.4254944 30.70901013 0l1.4146176 1.41461867c8.52700587 8.56957547 8.52700587 22.38611947 0.12225173 30.8312608zM180.25941227 197.17867092999995c-142.08183573 142.5544672-142.08183573 374.36306453 0 516.9175328 68.63191893 68.85786453 160.22519147 106.91612267 257.617744 106.91612267 97.3729056 0 188.96508693-37.9447392 257.61883626-106.91612267 142.06109653-142.5544672 142.06109653-374.36306453 0-516.9175328-68.65265813-68.85786453-160.24593067-106.90411627-257.61883626-106.90411626-97.49624853-0.0010912-188.98582613 37.9229088-257.617744 106.90411626z"  horiz-adv-x="1024" />

    
    <glyph glyph-name="liebiaoxinzeng" unicode="&#58902;" d="M956.8 28.8c0 22.4-16 28.8-35.2 28.8h-80c-9.6 0-16 3.2-16 12.8v76.8c0 19.2-6.4 35.2-28.8 38.4-19.2 3.2-32-12.8-32-38.4v-73.6c0-12.8-3.2-16-16-16h-70.4c-25.6 0-41.6-12.8-38.4-28.8 3.2-25.6 19.2-32 38.4-32h70.4c12.8 0 19.2-3.2 16-16v-70.4c0-16 3.2-28.8 19.2-35.2h25.6c12.8 6.4 16 19.2 16 32v70.4c0 16 3.2 25.6 22.4 22.4 25.6-3.2 51.2 0 73.6 0 22.4-3.2 38.4 6.4 35.2 28.8zM470.4 835.2h268.8c25.6 0 32-6.4 28.8-32v-508.8c0-28.8 12.8-44.8 32-44.8s28.8 16 28.8 41.6V848c0 32-9.6 41.6-41.6 41.6H374.4c-19.2 0-32-6.4-41.6-19.2-60.8-64-124.8-128-185.6-192-19.2-6.4-25.6-19.2-25.6-38.4V41.6c0-35.2 9.6-41.6 41.6-44.8h384c12.8 3.2 19.2 12.8 22.4 25.6 0 12.8-3.2 22.4-16 28.8-9.6 6.4-19.2 3.2-28.8 3.2h-320c-16 0-25.6 3.2-25.6 22.4V547.2c0 19.2 6.4 22.4 25.6 22.4h195.2c28.8 0 38.4 9.6 41.6 41.6V806.4c0 25.6 6.4 28.8 28.8 28.8z m-102.4-201.6H201.6c-6.4 0-12.8-3.2-16 3.2-3.2 6.4 3.2 12.8 6.4 16l124.8 124.8 48 48c3.2 3.2 6.4 9.6 12.8 6.4 6.4 0 6.4-6.4 6.4-9.6v-172.8c0-16-6.4-16-16-16z"  horiz-adv-x="1024" />

    
    <glyph glyph-name="duanxinfasong" unicode="&#58968;" d="M639.010223 4.289032610000049H160.60504839c-80.43980815 0-143.94492044 63.50511229-143.94492043 143.94491886V652.04117068c0 80.43980815 63.50511229 143.94492044 143.94492043 143.94492044h787.46338572c80.43980815 0 143.94492044-63.50511229 143.94491887-143.94492044v-215.91737988c0-12.70102309-8.46734871-21.16837023-21.16837023-21.16837025s-21.16837023 8.46734871-21.16837024 21.16837025v215.91737988c0 55.03776356-46.57041483 101.60817839-101.6081784 101.60817997H160.60504839c-55.03776356 0-101.60817839-46.57041483-101.60817838-101.60817997v-503.80721921c0-55.03776356 46.57041483-101.60817839 101.60817838-101.60817839H639.010223c12.70102309 0 21.16837023-8.46734871 21.16837023-21.16837024s-12.70102309-21.16837023-21.16837023-21.16837023zM748.90780375 317.75729178999995c-4.23408756 0-8.46660403 0-12.70069159 4.23408758l-656.21915684 385.26426164c-8.46660403 4.23408756-12.70069158 16.93477915-8.46660403 29.63547073 4.23408756 8.46660403 16.93477915 12.70069158 29.63547072 8.46660403l656.21915686-389.49834922c8.46660403-4.23408756 12.70069158-16.93477915 8.46660402-29.63547073 0-8.46660403-8.46660403-8.46660403-16.93477914-8.46660403zM75.93156589 38.158424370000034c-8.46734871 0-12.70102309 4.23367436-16.93469588 8.46734871-8.46734871 8.46734871-4.23367436 21.16837023 4.23367435 29.63571897l961.04402357 681.6215314c8.46734871 8.46734871 21.16837023 4.23367436 29.63571894-4.2336728 8.46734871-8.46734871 4.23367436-21.16837023-4.23367436-29.63571899L88.63258896 42.39209871000003c-4.23367436 0-8.46734871-4.23367436-12.70102307-4.23367434zM1104.71437607 165.16864892H681.34696502c-12.70102309 0-21.16837023 8.46734871-21.16837179 21.16837023s8.46734871 21.16837023 21.16837179 21.16837025h423.36741105c12.70102309 0 21.16837023-8.46734871 21.16837026-21.16837025s-8.46734871-21.16837023-21.16837026-21.16837023zM1104.71437607 165.16864892c-4.23367436 0-8.46734871 0-12.70102309 4.2336728l-194.74900806 186.28166091c-8.46734871 8.46734871-8.46734871 21.16837023 0 29.63571899 8.46734871 8.46734871 21.16837023 8.46734871 29.63571896 0l194.74900807-186.28166093c8.46734871-8.46734871 8.46734871-21.16837023 0-29.63571897-8.46734871 0-12.70102309-4.23367436-16.93469588-4.2336728zM909.96536642-8.41199045999997c-4.23367436 0-12.70102309 4.23367436-16.93469587 8.46734871-8.46734871 8.46734871-8.46734871 21.16837023 0 29.63571898l194.74900965 173.5806378c8.46734871 8.46734871 21.16837023 8.46734871 29.63571738 0 8.46734871-8.46734871 8.46734871-21.16837023 0-29.63571894l-194.74900805-173.58063784c0-8.46734871-8.46734871-8.46734871-12.70102311-8.46734871z"  horiz-adv-x="1131" />

    
    <glyph glyph-name="yly_guanliyuan" unicode="&#58913;" d="M1000.102712 49.062875L986.516554-2.384709c-4.994911-18.980662-24.375166-30.169263-43.25593-24.974556l-11.488296 3.096845c-4.795115-6.493384-9.989822-12.786972-15.883817-18.680967-2.79715-2.79715-5.893995-4.994911-8.791044-7.592265 0.399593-0.899084 1.09888-1.69827 1.398576-2.697252l4.695216-17.082596c5.194708-18.880764-5.893995-38.261019-24.674861-43.156032l-50.948093-13.386362c-18.780866-4.895013-38.161121 6.393486-43.355828 25.274251l-2.79715 10.389415c-20.678932 0.799186-41.257966 4.994911-60.638221 13.386361l-8.591247-8.591247c-13.785955-13.885853-36.163156-13.785955-50.049009 0.099898l-37.561732 37.761528c-13.885853 13.885853-13.885853 36.362953-0.099898 50.248806l8.591247 8.591247c-6.593283 15.18453-10.68911 31.068347-12.687074 47.251859l-11.78799 3.196743c-18.880764 5.094809-30.169263 24.674861-25.074454 43.555625L606.903311 155.754176c4.994911 18.980662 24.375166 30.169263 43.25593 24.974556l11.488295-3.096845c4.795115 6.493384 9.989822 12.786972 15.883818 18.680967 8.890942 8.99084 18.780866 16.28341 29.070382 22.776795l-1.298677 4.595318c-5.194708 18.880764 5.893995 38.261019 24.674861 43.156032l50.948093 13.386361c18.780866 4.895013 38.161121-6.393486 43.355829-25.27425l3.596336-13.386361c11.887888-2.297659 23.57598-5.494402 34.864479-10.389415l8.591247 8.591247c13.785955 13.885853 36.163156 13.785955 50.049009-0.099899l37.561732-37.761527c13.885853-13.885853 13.885853-36.362953 0.099898-50.248806l-8.591247-8.591247c6.593283-15.18453 10.68911-31.068347 12.687074-47.251859l11.78799-3.196743c18.880764-5.094809 30.169263-24.674861 25.174352-43.555625zM796.610034 179.030462c-56.442495 0-102.195881-45.753386-102.195881-102.195881s45.753386-102.195881 102.195881-102.195881S898.805915 20.392085 898.805915 76.834581c0.099898 56.442495-45.753386 102.195881-102.195881 102.195881zM776.130899 342.563851c0-22.576998-18.281375-40.858373-40.858373-40.858373-12.187583 0-22.976591 5.394504-30.468958 13.885853l-0.899084-1.198779c-57.641274 31.068347-123.474202 48.650434-193.502856 48.650434-225.86988 0-408.98332-183.113441-408.98332-408.98332 0-22.576998-18.281375-40.858373-40.858373-40.858373-22.576998 0-40.858373 18.281375-40.858372 40.858373 0 214.681279 138.059343 396.695839 330.163623 463.327953-63.834964 48.550536-105.192828 125.172472-105.192828 211.584434 0 146.850386 118.978782 265.929067 265.829169 265.929067s265.829168-119.07868 265.829168-265.929067c0-86.411962-41.357864-162.934-105.192828-211.584434 28.67079-9.989822 56.042902-22.776795 82.016441-37.561731l-0.299695-0.299695c13.686056-6.593283 23.276286-20.579034 23.276286-36.962342z m-81.716746 286.308304c0 101.596492-82.416033 184.012525-184.012525 184.012524-101.596492 0-184.012525-82.416033-184.012524-184.012524 0-101.596492 82.416033-184.012525 184.012524-184.012525 101.596492 0 184.012525 82.416033 184.012525 184.012525z"  horiz-adv-x="1024" />

    
    <glyph glyph-name="chexiao" unicode="&#58967;" d="M534.44729363 555.03439645h-7.45654045V720.94242133c0 62.06016475-35.5739117 87.92503941-79.4587591 52.58414459L39.67476622 445.43878637c-43.80717511-35.18555022-43.80717511-92.81839408 0.1553446-128.00394429l404.750336-324.82554311c43.88484741-35.18555022 82.48797867 0.54370608 82.48797866 52.89483378v175.07335584h61.28344177c177.01516325 0 312.08728652-76.42953955 394.73060978-224.00690251 16.23350992-26.79694222 33.32141511-20.97152 33.32141512 0-3.57292563 262.84305067-226.18172682 558.46381037-481.95659852 558.46381037z"  horiz-adv-x="1024" />

    
    <glyph glyph-name="changyongfenlei" unicode="&#58947;" d="M361.411765 785.573647H120.470588c-41.517176 0-75.294118-33.776941-75.294117-75.294118v-240.941176c0-41.517176 33.776941-75.294118 75.294117-75.294118h240.941177c41.517176 0 75.294118 33.776941 75.294117 75.294118v240.941176c0 41.517176-33.776941 75.294118-75.294117 75.294118z m45.17647-316.235294c0-24.907294-20.269176-45.176471-45.17647-45.176471H120.470588c-24.907294 0-45.176471 20.269176-45.17647 45.176471v240.941176c0 24.907294 20.269176 45.176471 45.17647 45.176471h240.941177c24.907294 0 45.176471-20.269176 45.17647-45.176471v-240.941176zM361.411765 288.632471H120.470588c-41.517176 0-75.294118-33.776941-75.294117-75.294118v-240.941177c0-41.517176 33.776941-75.294118 75.294117-75.294117h240.941177c41.517176 0 75.294118 33.776941 75.294117 75.294117v240.941177c0 41.517176-33.776941 75.294118-75.294117 75.294118z m45.17647-316.235295c0-24.907294-20.269176-45.176471-45.17647-45.17647H120.470588c-24.907294 0-45.176471 20.269176-45.17647 45.17647v240.941177c0 24.907294 20.269176 45.176471 45.17647 45.176471h240.941177c24.907294 0 45.176471-20.269176 45.17647-45.176471v-240.941177zM984.154353 660.615529L812.122353 832.662588c-14.170353 14.170353-33.069176 21.985882-53.232941 21.985883s-39.062588-7.815529-53.232941-21.985883L533.624471 660.615529c-14.170353-14.170353-21.985882-33.069176-21.985883-53.232941s7.815529-39.062588 21.985883-53.232941L705.656471 382.102588c14.170353-14.170353 33.069176-21.985882 53.232941-21.985882s39.062588 7.815529 53.232941 21.985882l172.047059 172.047059a75.354353 75.354353 0 0 1-0.015059 106.465882z m-21.293177-85.172705L790.829176 403.395765c-16.971294-16.971294-46.908235-16.971294-63.879529 0L554.917647 575.442824c-8.478118 8.478118-13.161412 19.817412-13.161412 31.939764s4.683294 23.461647 13.161412 31.939765L726.934588 811.369412c8.478118 8.478118 19.817412 13.161412 31.939765 13.161412s23.461647-4.683294 31.939765-13.161412L962.861176 639.322353a45.206588 45.206588 0 0 0 0-63.879529zM858.352941 288.632471H617.411765c-41.517176 0-75.294118-33.776941-75.294118-75.294118v-240.941177c0-41.517176 33.776941-75.294118 75.294118-75.294117h240.941176c41.517176 0 75.294118 33.776941 75.294118 75.294117v240.941177c0 41.517176-33.776941 75.294118-75.294118 75.294118z m45.176471-316.235295c0-24.907294-20.269176-45.176471-45.176471-45.17647H617.411765c-24.907294 0-45.176471 20.269176-45.176471 45.17647v240.941177c0 24.907294 20.269176 45.176471 45.176471 45.176471h240.941176c24.907294 0 45.176471-20.269176 45.176471-45.176471v-240.941177z"  horiz-adv-x="1024" />

    
    <glyph glyph-name="icon-test2" unicode="&#58904;" d="M68.26666667 861.86666667a34.13333333 34.13333333 0 0 0 34.13333333-34.13333334v-887.46666666a34.13333333 34.13333333 0 0 0-68.26666667 0v887.46666666a34.13333333 34.13333333 0 0 0 34.13333334 34.13333334zM954.02666667 689.49333333a34.13333333 34.13333333 0 0 0 0-48.26453333l-289.5872-289.5872a34.13333333 34.13333333 0 0 0-48.26453334 48.26453333l289.5872 289.5872a34.13333333 34.13333333 0 0 0 48.26453334 0zM462.0288 607.09546667a34.13333333 34.13333333 0 0 0 0-48.26453334L268.9024 365.70453333a34.13333333 34.13333333 0 0 0-48.26453333 48.26453334L413.696 607.0272a34.13333333 34.13333333 0 0 0 48.3328 0.06826667zM420.59093333 613.03466667a35.70346667 35.70346667 0 0 1 0-50.44906667l201.728-201.728a35.70346667 35.70346667 0 0 1 50.44906667 50.44906667L471.04 613.03466667a35.49866667 35.49866667 0 0 1-50.44906667 0zM989.86666667-59.73333333000005a34.13333333 34.13333333 0 0 0-34.13333334-34.13333334h-887.46666666a34.13333333 34.13333333 0 0 0 0 68.26666667h887.46666666a34.13333333 34.13333333 0 0 0 34.13333334-34.13333333z"  horiz-adv-x="1024" />

    
    <glyph glyph-name="icon-test1" unicode="&#58887;" d="M511.872 147.776l44.736 44.032 178.88-176-44.736-44.032-178.88 176zM979.264 320l44.736-44.032-313.152-307.968-44.672 44.032 313.088 307.968zM256 288h160c17.673 0 32-14.327 32-32s-14.327-32-32-32h-160c-17.673 0-32 14.327-32 32s14.327 32 32 32zM256 480h384c17.673 0 32-14.327 32-32s-14.327-32-32-32h-384c-17.673 0-32 14.327-32 32s14.327 32 32 32zM256 672h384c17.673 0 32-14.327 32-32s-14.327-32-32-32h-384c-17.673 0-32 14.327-32 32s14.327 32 32 32zM736 864h-576c-70.692 0-128-57.308-128-128v-704c0-70.692 57.308-128 128-128h416v64h-416c-35.346 0-64 28.654-64 64v704c0 35.346 28.654 64 64 64h576c35.346 0 64-28.654 64-64v-384h64v384c0 70.692-57.308 128-128 128z"  horiz-adv-x="1024" />

    
    <glyph glyph-name="yiwanchengdingdan" unicode="&#58950;" d="M824.8-107.2H203.2c-12.8 0-25.6 2.4-37.6 7.2-11.2 4.8-21.6 12-30.4 20.8-8.8 8.8-16 19.2-20.8 30.4-4.8 12-7.2 24-7.2 37.6V636c0 12.8 2.4 25.6 7.2 37.6 4.8 11.2 12 21.6 20.8 30.4 8.8 8.8 19.2 16 30.4 20.8 12 4.8 24 7.2 37.6 7.2h94.4v-48H203.2c-26.4 0-48-21.6-48-48v-647.2c0-26.4 21.6-48 48-48h621.6c26.4 0 48 21.6 48 48V636c0 26.4-21.6 48-48 48H730.4v48H824c12.8 0 25.6-2.4 37.6-7.2 11.2-4.8 21.6-12 30.4-20.8 8.8-8.8 16-19.2 20.8-30.4 4.8-12 7.2-24 7.2-37.6v-647.2c0-12.8-2.4-25.6-7.2-37.6-4.8-11.2-12-21.6-20.8-30.4-8.8-8.8-19.2-16-30.4-20.8-11.2-4.8-24-7.2-36.8-7.2zM752.8 588H274.4V743.2c0 32.8 26.4 60 60 60h61.6c22.4 44 67.2 72.8 117.6 72.8 50.4 0 95.2-28.8 117.6-72.8h61.6c32.8 0 60-26.4 60-60v-155.2m-430.4 48h382.4V743.2c0 6.4-5.6 12-12 12H598.4l-5.6 16c-12 33.6-43.2 56-79.2 56s-67.2-22.4-79.2-56l-5.6-16H334.4c-6.4 0-12-5.6-12-12v-107.2zM432.8 104c-6.4 0-12 2.4-16.8 7.2L252.8 274.4c-4.8 4.8-7.2 10.4-7.2 16.8s2.4 12 7.2 16.8c4.8 4.8 10.4 7.2 16.8 7.2s12-2.4 16.8-7.2L418.4 176c4-4 8.8-5.6 13.6-5.6s10.4 1.6 13.6 5.6l295.2 295.2c4.8 4.8 10.4 7.2 16.8 7.2s12-2.4 16.8-7.2c9.6-9.6 9.6-24 0-33.6L449.6 111.2c-4.8-4-11.2-7.2-16.8-7.2z"  horiz-adv-x="1024" />

    
    <glyph glyph-name="shenpiguanli" unicode="&#58925;" d="M868.89813333 791.88423111H655.77870222C634.36458667 851.02705778 578.28124445 893.85528889 512 893.85528889S389.63427555 851.02705778 368.22129778 791.88423111H155.10186667c-56.08448 0-101.97105778-45.88657778-101.97105778-101.97105778v-713.79740444c0-56.08448 45.88657778-101.97105778 101.97105778-101.97105778h713.79626666c56.08448 0 101.97105778 45.88657778 101.97105778 101.97105778V689.9131733300001c0 56.08334222-45.88657778 101.97105778-101.97105778 101.97105778z m-356.89813333 0c28.04167111 0 50.98496-22.94328889 50.98496-50.98496S540.04167111 689.9131733300001 512 689.9131733300001s-50.98496 22.94328889-50.98496 50.98496S483.95832889 791.88423111 512 791.88423111z m-101.97105778-713.79740444L206.08682667 282.02894222l71.88935111 71.88935111 132.05276444-131.54304 335.99488 335.99488 71.88935111-72.39907555-407.88423111-407.88423111z"  horiz-adv-x="1024" />

    
    <glyph glyph-name="liulan" unicode="&#58924;" d="M948.6 653.1c-67.1 33.4-138.6 50.4-212.7 50.4s-145.6-17-212.7-50.4l-2.3-1.1c-6-3-13-3-18.9 0l-2.3 1.1c-67.1 33.4-138.6 50.4-212.7 50.4s-145.6-17-212.7-50.4c-7.2-3.6-11.7-10.9-11.7-19v-541.9c0-11.7 9.5-21.2 21.2-21.2h1.7c2.1 0 4.1 0.3 6.1 0.9 62.1 18.5 128.5 27.9 197.1 27.9 68.1 0 133.9-9.2 195.5-27.5l21.2-6.3c3.9-1.2 8.1-1.2 12 0l21.2 6.3c61.7 18.2 127.5 27.5 195.5 27.5 68.7 0 135-9.4 197.1-27.9 2-0.6 4-0.9 6.1-0.9h1.7c11.7 0 21.2 9.5 21.2 21.2V634.1c0.2 8-4.4 15.4-11.6 19z m-479.5-506c0-13.4-12.4-23.5-25.5-20.8-49.8 10.5-101.7 15.9-154.8 15.9-54.3 0-107.2-5.6-158.1-16.6-13.2-2.9-25.6 7.3-25.6 20.7V607c0 8.5 5.1 16.2 12.9 19.5 53.9 23 110.7 34.6 169.1 34.6 58.5 0 115.2-11.6 169.1-34.6 7.8-3.3 12.9-11 12.9-19.5v-459.9z m448.8-0.7c0-13.5-12.4-23.6-25.6-20.7-50.8 11-103.8 16.6-158.1 16.6-53.1 0-105-5.3-154.8-15.9-13.2-2.8-25.5 7.3-25.5 20.8V607c0 8.5 5.1 16.2 12.9 19.5 53.9 23 110.7 34.6 169.1 34.6s115.2-11.6 169.1-34.6c7.8-3.3 12.9-11 12.9-19.5v-460.6z"  horiz-adv-x="1024" />

    
    <glyph glyph-name="tiezixiugai" unicode="&#58937;" d="M506.88 518.37155555h-339.05777778c-22.528 0-40.84622222-18.54577778-40.84622222-41.07377777 0-22.64177778 18.432-41.07377778 40.84622222-41.07377778h257.25155556l81.80622222 82.14755555zM344.51911111 334.50666666999996H161.10933333c-22.528 0-40.84622222-18.54577778-40.84622222-41.07377778 0-22.64177778 18.432-41.07377778 40.84622222-41.07377778h141.76711112l41.64266666 82.14755556zM120.14933333 109.56799999999998c0-22.64177778 18.432-41.07377778 40.84622222-41.07377778h53.36177778c0.56888889 5.91644445 1.93422222 11.71911111 4.096 17.408 0.45511111 1.024 0.91022222 2.16177778 1.47911112 3.18577778l31.28888888 61.66755555h-90.22577778c-22.41422222-0.11377778-40.84622222-18.65955555-40.84622222-41.18755555zM676.97777778 109.56799999999998c0 20.25244445-14.67733333 37.09155555-33.90577778 40.50488889-4.77866667-4.20977778-10.12622222-7.50933333-15.92888889-10.01244444L486.96888889 68.49422221999998h149.04888889c22.528-0.11377778 40.96 18.432 40.96 41.07377778zM993.84888889 638.29333333l-116.05333334 116.96355556-0.11377777 0.11377778c-15.01866667 15.13244445-34.70222222 23.66577778-55.52355556 24.23466666-8.87466667 0.22755555-17.408-1.024-25.37244444-3.64088888-10.92266667-3.52711111-20.82133333-9.55733333-29.01333333-17.86311112l-19.79733334-19.91111111-218.45333333-219.70488889-81.80622223-82.26133333-52.90666666-53.248c-5.46133333-5.46133333-9.78488889-11.83288889-12.74311111-19.00088889l-14.90488889-29.46844444-41.75644444-82.26133334-51.54133334-101.60355555-31.28888889-61.66755556c-0.56888889-1.13777778-1.024-2.16177778-1.47911111-3.18577777-2.27555555-5.68888889-3.64088889-11.60533333-4.096-17.408-1.82044445-19.34222222 5.12-38.79822222 19.91111111-53.58933334 19.22844445-19.34222222 46.30755555-25.48622222 70.656-15.92888889 1.024 0.45511111 2.16177778 0.91022222 3.18577778 1.47911111L464.21333333 68.49422221999998l140.17422222 71.56622223c5.80266667 2.50311111 11.15022222 5.91644445 15.9288889 10.01244444 1.024 0.91022222 2.048 1.82044445 3.072 2.84444444l124.47288888 125.15555556 48.81066667 49.152 199.56622222 200.59022222c29.80977778 29.696 28.55822222 79.18933333-2.38933333 110.47822222zM583.90755555 184.54755554999997s-0.11377778 0-0.11377777-0.11377777c-0.79644445-0.34133333-1.47911111-0.68266667-2.16177778-1.024l-64.39822222-32.88177778L356.12444445 68.26666666999995l-48.01422223-24.576c-0.11377778 0-0.22755555-0.11377778-0.34133333-0.11377778-8.76088889-3.072-15.13244445 1.93422222-17.52177778 4.32355556-2.38933333 2.38933333-7.39555555 8.76088889-4.32355556 17.63555555 0 0.11377778 0.11377778 0.22755555 0.11377778 0.34133333l1.25155556 2.38933334 41.64266666 82.26133333 51.54133334 101.60355555 41.64266666 82.26133334 3.18577778 6.25777778c0.34133333 0.68266667 0.68266667 1.47911111 1.024 2.16177778 0.68266667 1.47911111 2.61688889 1.93422222 3.75466667 0.68266666l9.10222222-9.216 81.80622223-82.26133333 63.488-63.82933333c1.25155555-0.91022222 0.91022222-2.95822222-0.5688889-3.6408889z m298.43911112 298.5528889l-85.44711112-85.90222223-48.81066666-49.152-124.70044444-125.26933333c-0.91022222-0.91022222-2.38933333-0.91022222-3.29955556 0l-29.35466667 29.58222222-81.80622222 82.26133334-44.71466667 44.71466666c-0.91022222 0.91022222-0.91022222 2.38933333 0 3.29955556l53.13422222 53.47555555 81.80622223 82.26133333 124.01777777 124.58666667c0.91022222 0.91022222 2.38933333 0.91022222 3.29955556 0l21.504-21.61777777 48.81066667-49.152 85.44711111-85.90222223c1.024-0.79644445 1.024-2.27555555 0.11377778-3.18577777z m79.30311111 79.75822222L920.46222222 521.4435555499999c-0.91022222-0.91022222-2.38933333-0.91022222-3.29955555 0L796.89955555 642.27555555l-35.61244444 35.72622223c-0.91022222 0.91022222-0.91022222 2.38933333 0 3.29955555l35.61244444 35.72622222 5.80266667 5.80266667c5.46133333 5.46133333 12.85688889 8.41955555 20.82133333 8.192 7.96444445-0.22755555 15.47377778-3.52711111 21.16266667-9.216l116.05333333-116.96355555c11.71911111-11.83288889 12.17422222-30.72 0.91022223-41.984zM773.34755555 258.048h-1.70666666c-11.71911111 0-21.39022222-8.64711111-23.21066667-19.91111111-0.22755555-0.56888889-0.34133333-1.13777778-0.34133333-1.70666667V-39.59466667000004c0-20.36622222-16.27022222-36.97777778-36.29511111-36.97777778H85.44711111c-20.02488889 0-36.29511111 16.61155555-36.29511111 36.97777778V557.96622222c0 9.44355555 7.62311111 17.06666667 16.95288889 17.06666667h228.23822222c24.576 0 44.60088889 19.56977778 44.60088889 43.69066666V826.0266666699999c0 9.44355555 7.62311111 17.06666667 16.95288889 17.06666666h356.01066666c21.504 0 38.68444445-19.22844445 36.06755556-41.64266666 0-10.12622222 8.41955555-18.31822222 18.432-18.31822222h12.17422222c10.12622222 0 18.20444445 8.192 18.20444445 18.31822222h0.11377777c2.61688889 49.94844445-36.63644445 91.36355555-85.10577777 91.36355555h-410.73777778v-0.56888889c-13.312 2.048-26.85155555-1.93422222-37.20533333-11.37777778L14.22222222 650.24c-10.80888889-10.01244445-15.70133333-24.34844445-13.42577777-38.34311111h-0.5688889v-651.49155556c0-47.78666667 38.22933333-86.69866667 85.21955556-86.69866666h626.34666667c46.99022222 0 85.21955555 38.912 85.21955555 86.69866666V236.31644444999995c0 0.56888889-0.11377778 1.13777778-0.34133333 1.70666666-1.93422222 11.37777778-11.60533333 20.02488889-23.32444445 20.02488889zM38.45688889 616.10666667c-0.68266667 1.59288889-1.25155555 4.55111111 1.59288889 7.168L289.792 853.90222222c1.47911111 1.36533333 3.072 1.82044445 4.43733333 1.82044445 1.13777778 0 2.16177778-0.34133333 2.84444445-0.56888889 1.47911111-0.68266667 4.096-2.27555555 4.096-6.03022223v-230.4c0-3.64088889-3.072-6.71288889-6.82666667-6.71288888H44.71466667c-3.98222222 0-5.57511111 2.50311111-6.25777778 4.096z"  horiz-adv-x="1024" />

    
    <glyph glyph-name="xiaoxifasongchenggong" unicode="&#58940;" d="M841.3 704.2H182.6C117.2 704.2 64 652 64 587.9v-407.2c0-64.2 53.2-116.3 118.6-116.3h658.7c65.4 0 118.6 52.2 118.6 116.3V587.9c0 64.1-53.2 116.3-118.6 116.3z m74.3-523.6c0-13-3.5-25.2-9.6-35.7l-184.4 165c-9 8.1-23.1 7.5-31.3-1.4-8.3-8.9-7.6-22.6 1.4-30.7L873.6 115c-9.8-4.7-20.7-7.3-32.3-7.3H182.6c-11.4 0-22.2 2.5-31.8 7l181.5 162.5c9 8.1 9.7 21.8 1.4 30.7-8.3 8.9-22.3 9.5-31.3 1.4L118.1 144.4c-6.3 10.7-9.8 23-9.8 36.2V587.9c0 14.3 4.2 27.6 11.5 38.9L310.9 474c9.5-7.6 23.5-6.2 31.2 3.1 7.7 9.3 6.3 23-3.2 30.6L154.3 655.3c8.7 3.5 18.3 5.5 28.3 5.5h658.7c10.2 0 19.9-2 28.8-5.7l-185-147.8c-9.5-7.6-10.9-21.3-3.2-30.6s21.7-10.7 31.2-3.1l191.2 152.9c7.1-11.2 11.3-24.4 11.3-38.5v-407.4zM627 490.5c-12.4 12.2-34.3 12.2-46.7 0l-87.5-86c-7-6.9-18.5-6.9-25.5 0l-25.8 25.3c-12.4 12.2-34.3 12.2-46.7 0L371.6 407c-6.1-6-9.7-14.4-9.7-22.9 0-8.5 3.5-16.9 9.6-22.9l85.1-83.4c6.1-6 14.6-9.5 23.4-9.5 8.7 0 17.2 3.5 23.3 9.5l146.9 144.1c6.1 6 9.6 14.4 9.6 22.9 0 8.5-3.5 16.9-9.6 22.9L627 490.5z"  horiz-adv-x="1024" />

    
    <glyph glyph-name="gongkaihoushen" unicode="&#58941;" d="M868.92088889 791.89333333H655.81511111c-21.39022222 59.16444445-77.48266667 101.94488889-143.81511111 101.94488889s-122.31111111-42.78044445-143.81511111-101.94488889H155.07911111c-56.09244445 0-101.94488889-45.85244445-101.94488889-101.94488888v-713.84177778c0-56.09244445 45.85244445-101.94488889 101.94488889-101.94488889h713.84177778c56.09244445 0 101.94488889 45.85244445 101.94488889 101.94488889V689.94844445c0 56.09244445-45.85244445 101.94488889-101.94488889 101.94488888zM455.11111111 118.32888889000003h-109.22666666v370.91555556h109.22666666v-370.91555556z m56.88888889 571.61955556c-27.98933333 0-50.97244445 22.98311111-50.97244445 50.97244444 0 27.98933333 22.98311111 50.97244445 50.97244445 50.97244444s50.97244445-22.98311111 50.97244445-50.97244444c0-27.98933333-22.98311111-50.97244445-50.97244445-50.97244444z m166.11555555-571.61955556h-109.22666666v370.91555556h109.22666666v-370.91555556z"  horiz-adv-x="1024" />

    
    <glyph glyph-name="daochu1" unicode="&#58943;" d="M960-42.666667H64c-36.266667 0-64 27.733333-64 64V746.666667c0 36.266667 27.733333 64 64 64h315.733333c17.066667 0 34.133333-6.4 44.8-19.2l68.266667-68.266667c12.8-12.8 27.733333-19.2 44.8-19.2H960c36.266667 0 64-27.733333 64-64v-618.666667c0-36.266667-27.733333-64-64-64z m21.333333 682.666667c0 12.8-8.533333 21.333333-21.333333 21.333333H537.6c-27.733333 0-55.466667 10.666667-74.666667 32l-68.266666 68.266667c-4.266667 4.266667-10.666667 6.4-14.933334 6.4H64c-12.8 0-21.333333-8.533333-21.333333-21.333333v-725.333334c0-12.8 8.533333-21.333333 21.333333-21.333333h896c12.8 0 21.333333 8.533333 21.333333 21.333333V640z m-441.6-98.133333c-8.533333 8.533333-19.2 12.8-32 12.8-10.666667 0-23.466667-4.266667-32-12.8l-179.2-192c-25.6-27.733333-6.4-70.4 32-70.4H426.666667v-128c0-23.466667 19.2-42.666667 42.666666-42.666667h85.333334c23.466667 0 42.666667 19.2 42.666666 42.666667v128h89.6c36.266667 0 55.466667 44.8 32 70.4l-179.2 192zM554.666667 320v-170.666667h-85.333334v170.666667h-138.666666l179.2 192 179.2-192H554.666667z"  horiz-adv-x="1024" />

    
    <glyph glyph-name="shijian" unicode="&#58918;" d="M512-96C247.33538469-96 32 119.33538468999996 32 384S247.33538469 864 512 864a36.92307656 36.92307656 0 0 0 0-73.84615406A406.59692344 406.59692344 0 0 1 105.84615406 384C105.84615406 160.09846125 288.02461531-22.153845939999997 512-22.153845939999997 735.90153875-22.153845939999997 918.15384594 160.09846125 918.15384594 384a36.92307656 36.92307656 0 0 0 73.84615406 0c0-264.66461531-215.33538469-480-480-480zM511.26153875 716.30769188a36.92307656 36.92307656 0 0 1-36.9230775-36.92307657v-295.38461531a36.92307656 36.92307656 0 0 1 73.84615406 0v295.38461531a36.92307656 36.92307656 0 0 1-36.92307656 36.92307657zM732.8 420.92307656h-221.53846125a36.92307656 36.92307656 0 0 1 0-73.84615312h221.53846125a36.92307656 36.92307656 0 0 1 0 73.84615312z"  horiz-adv-x="1024" />

    
    <glyph glyph-name="daochu" unicode="&#58945;" d="M970.26654815 878.31134815c-9.22358518 0-18.44717037-3.51952592-25.48622223-10.55857778L378.25801482 301.35182222000003c-14.0781037-14.0781037-14.0781037-36.89434075 0-50.97244444 7.03905185-7.03905185 16.26263703-10.55857778 25.48622221-10.55857778s18.44717037 3.51952592 25.48622222 10.55857778l566.40094816 566.40094814c14.0781037 14.0781037 14.0781037 36.89434075 0 50.97244445-6.91768889 7.03905185-16.14127408 10.55857778-25.36485926 10.55857778zM944.78032592-48.780325919999996H79.21967408V816.78032592h324.52456295c9.22358518 0 18.44717037 3.51952592 25.48622222 10.55857778 7.03905185 7.03905185 10.55857778 16.26263703 10.55857778 25.48622222s-3.51952592 18.44717037-10.55857778 25.48622223c-7.03905185 7.03905185-16.26263703 10.55857778-25.48622222 10.55857777H79.21967408C39.41262222 888.86992592 7.13007408 856.58737778 7.13007408 816.78032592v-865.43928889c0-39.80705185 32.28254815-72.0896 72.0896-72.0896h865.43928889c39.80705185 0 72.0896 32.28254815 72.0896 72.0896V275.8656c0 9.22358518-3.51952592 18.44717037-10.55857779 25.48622222-7.03905185 7.03905185-16.26263703 10.55857778-25.48622221 10.55857778s-18.44717037-3.51952592-25.48622222-10.55857778c-7.03905185-7.03905185-10.55857778-16.26263703-10.55857778-25.48622222v-324.64592592zM944.78032592 888.86992592h-252.43496295c-9.22358518 0-18.44717037-3.51952592-25.48622222-10.55857777-7.03905185-7.03905185-10.55857778-16.26263703-10.55857778-25.48622223s3.51952592-18.44717037 10.55857778-25.48622222c7.03905185-7.03905185 16.26263703-10.55857778 25.48622222-10.55857778h252.43496295v-252.43496295c0-9.22358518 3.51952592-18.44717037 10.55857778-25.48622222 7.03905185-7.03905185 16.26263703-10.55857778 25.48622222-10.55857778s18.44717037 3.51952592 25.48622223 10.55857778c7.03905185 7.03905185 10.55857778 16.26263703 10.55857777 25.48622222v252.43496295c0 39.80705185-32.28254815 72.0896-72.0896 72.0896z"  horiz-adv-x="1024" />

    
    <glyph glyph-name="shenhe" unicode="&#58881;" d="M609.28 764.16a33.92 33.81333333 0 1 1 67.84 0 33.92 33.81333333 0 1 1-67.84 0ZM854.50666667 247.57333332999997h-1.70666667S717.01333333 248.96000000000004 651.73333333 364.69333333c-39.57333333 80.64-4.8 136.74666667 9.92 155.30666667 1.92 2.13333333 3.84 4.26666667 5.65333334 6.50666667l0.21333333 0.21333333c24.32 29.01333333 40.74666667 64.96 45.76 104.42666667 0.32 1.81333333 0.42666667 3.62666667 0.42666667 5.54666666 0 18.56-15.14666667 33.6-33.81333334 33.6-17.92 0-32.64-13.97333333-33.70666666-31.46666666-4.16-30.82666667-18.66666667-58.34666667-39.89333334-78.93333334-0.53333333-0.42666667-1.38666667-1.6-1.38666666-1.6-1.81333333-2.56-12.26666667-17.28-19.84-31.46666666-37.86666667-77.65333333-17.06666667-175.78666667 39.46666666-243.09333334 35.09333333-37.12 84.8-82.56 198.61333334-104.32v-0.10666666c17.70666667-1.28 31.68-16.10666667 31.68-34.02666667v-32.96c0-0.53333333-0.42666667-1.06666667-1.06666667-1.06666667H171.94666667c-0.53333333 0-1.06666667 0.42666667-1.06666667 1.06666667v32.96c0 17.17333333 12.8 31.46666667 29.44 33.81333333l-0.10666667 0.21333334c114.24 21.76 164.05333333 67.2 199.25333334 104.42666666 56.53333333 67.30666667 77.33333333 165.44 39.46666666 243.09333334-5.22666667 11.94666667-10.24 19.84-20.05333333 31.78666666l-0.32 0.32c0.10666667-0.10666667 0.21333333-0.21333333 0.42666667-0.32 0 0-6.93333333 7.14666667-2.13333334 2.02666667-24.96 24.53333333-40.42666667 58.77333333-40.42666666 96.64 0 74.88 60.69333333 135.57333333 135.57333333 135.57333333 3.2 0 6.4-0.10666667 9.49333333-0.32 1.28-0.10666667 2.56-0.21333333 3.84-0.21333333 18.77333333 0 33.92 15.14666667 33.92 33.81333333s-15.14666667 33.81333333-33.92 33.81333334c-4.37333333 0.32-8.85333333 0.42666667-13.33333333 0.42666666-112.10666667 0-202.98666667-90.88-202.98666667-202.98666666 0-53.54666667 20.69333333-102.18666667 54.61333334-138.45333334 15.25333333-19.84 47.46666667-75.2 8.85333333-153.92C307.2 249.06666667000002 171.41333333 247.57333332999997 171.41333333 247.57333332999997c-37.54666667 0-68.26666667-30.72-68.26666666-68.26666666v-135.25333334c0-0.53333333 0.53333333-1.06666667 1.06666666-1.06666666H240c-0.64 0-1.06666667-0.53333333-1.06666667-1.06666667v-66.98666667c0-37.54666667 30.72-68.26666667 68.26666667-68.26666666h409.70666667c37.54666667 0 68.26666667 30.72 68.26666666 68.26666666v66.98666667c0 0.53333333-0.42666667 1.06666667-1.06666666 1.06666667h137.6c0.53333333 0 1.06666667 0.53333333 1.06666666 1.06666666V179.30666667000003c0 37.54666667-30.72 68.26666667-68.26666666 68.26666666z m-136.53333334-238.61333333c0-18.77333333-15.36-34.13333333-34.13333333-34.13333333H340.26666667c-18.77333333 0-34.13333333 15.36-34.13333334 34.13333333v34.02666667h411.84v-34.02666667z"  horiz-adv-x="1024" />

    
    <glyph glyph-name="jianchajihua" unicode="&#58915;" d="M1016.288-80.928l-284.064 284.064a413.184 413.184 0 0 1 106.496 277.056C838.72 709.664 652.672 895.648 423.2 895.648 193.792 895.648 7.808 709.664 7.712 480.192c0.096-229.472 186.08-415.488 415.488-415.488 98.464 0 188.736 34.368 259.968 91.616l283.84-283.936 49.28 46.688zM72.064 479.616c0.416 194.24 157.44 351.36 351.648 351.712a352.192 352.192 0 0 0 351.68-351.712A352 352 0 0 0 423.712 128c-194.208 0.32-351.232 157.376-351.648 351.616zM622.688 721.344H217.44c-19.456 0-35.2-15.744-35.2-35.136v-405.344c0-19.424 15.712-35.136 35.2-35.136h405.248c19.424 0 35.168 15.68 35.168 35.136V686.208a35.2 35.2 0 0 1-35.168 35.136z m7.616-440.096a7.904 7.904 0 0 0-7.968-7.936H217.824a7.904 7.904 0 0 0-8 7.936V685.792c0 4.416 3.52 8 8 8h404.544c4.416 0 7.968-3.552 7.968-8v-404.544z m0 0M600.96 627.872a18.016 18.016 0 0 1-25.472 25.44l-23.712-23.68 25.472-25.44 23.712 23.68z m-217.728-166.816l-11.264-37.728 36.672 12.288 17.536 17.536-25.44 25.44-17.504-17.536z m0 0M399.584 477.472l139.136 139.168 25.472-25.472-139.168-139.136-25.44 25.44z m-150.4-92.992h250.08v-27.52H249.184v27.52z m0 81.312h113.12v-27.584H249.184v27.584z m0 82.24h158.912v-27.52H249.184v27.52z m0 69.92h250.08v-27.552H249.184v27.552z m0 0"  horiz-adv-x="1024" />

    
    <glyph glyph-name="huabi" unicode="&#59204;" d="M286.17692358 274.43709284s-133.98648319-72.76110576-139.1710802-186.80309234c-5.18312412-114.04345947-114.04198656-196.98522846-150.32827406-207.35147668s530.47412086-33.83391418 489.00470927 209.80532289l-199.50388211 184.34777325zM535.24231273 197.02163293c20.64412265-20.03287043 25.87143367-48.12690549 11.67859934-62.75424438-14.19136142-14.62586599-42.43415906-10.2425249-63.073863 9.79034555l-136.63622466 130.37788586c-20.64264974 20.03139755-25.87143367 48.12690549-11.67859934 62.75277146 14.19283431 14.62586599 42.43415906 10.2439978 63.07533588-9.78887265l136.63475178-130.37788584zM1009.12331686 882.04093162c-37.03451909 25.12025625-70.31756986 2.59671719-84.65769386-5.60437263-42.85688046-28.69939566-349.43447401-326.64434062-482.65357793-464.24825854-16.35651982-21.79887379-27.38115296-38.72835051 51.05502449-117.16305505 66.20671467-66.20671467 97.05801267-61.87934364 130.5870372-33.29188813 55.83162907 55.83162907 293.54687487 387.26288452 381.36245963 513.61828898 14.42260622 20.75606282 43.9674447 79.78682387 4.30675047 106.68928537z"  horiz-adv-x="1024" />

    
    <glyph glyph-name="icon--" unicode="&#59219;" d="M695.46666667 820.90666667h-327.68c-57.344 0-109.22666667-51.88266667-109.22666667-109.22666667h-32.768c-57.344 0-103.76533333-51.88266667-103.76533333-109.22666667v-546.13333333c0-57.344 51.88266667-109.22666667 109.22666667-109.22666667h409.6c57.344 0 109.22666667 51.88266667 109.22666666 109.22666667h27.30666667c57.344 0 109.22666667 51.88266667 109.22666667 109.22666667V602.4533333300001l-191.14666667 218.45333334z m-54.61333333-819.2h-409.6c-27.30666667 0-54.61333333 27.30666667-54.61333334 54.61333333V602.4533333300001c0 27.30666667 24.576 54.61333333 51.88266667 54.61333334h30.03733333v-491.52c0-57.344 51.88266667-109.22666667 109.22666667-109.22666667h327.68c0-27.30666667-27.30666667-54.61333333-54.61333333-54.61333333z m191.14666666 163.84c0-27.30666667-27.30666667-54.61333333-54.61333333-54.61333334h-409.6c-27.30666667 0-54.61333333 27.30666667-54.61333333 54.61333334V711.6800000000001c0 27.30666667 27.30666667 54.61333333 54.61333333 54.61333333h273.06666667v-109.22666666c0-57.344 51.88266667-109.22666667 109.22666666-109.22666667h81.92v-382.29333333z m-81.92 436.90666666c-30.03733333 0-54.61333333 51.88266667-54.61333333 81.92V766.29333333l136.53333333-163.84h-81.92z m-54.61333333-163.84h-245.76c-16.384 0-27.30666667-10.92266667-27.30666667-27.30666666s10.92266667-27.30666667 27.30666667-27.30666667h245.76c16.384 0 27.30666667 10.92266667 27.30666667 27.30666667 0 13.65333333-10.92266667 27.30666667-27.30666667 27.30666666z m0-136.53333333h-245.76c-16.384 0-27.30666667-10.92266667-27.30666667-27.30666667s10.92266667-27.30666667 27.30666667-27.30666666h245.76c16.384 0 27.30666667 10.92266667 27.30666667 27.30666666 0 13.65333333-10.92266667 27.30666667-27.30666667 27.30666667z"  horiz-adv-x="1024" />

    
    <glyph glyph-name="dabingtu" unicode="&#58880;" d="M568.889 827.733h56.889v-369.777h-56.89zM568.889 497.778h364.089v-56.89h-364.09zM455.11 782.222H512V384h-56.889z m0-398.222h455.111v-56.889h-455.11zM512-14.22199999999998c-221.867 0-398.222 176.355-398.222 398.222S290.133 782.222 512 782.222v56.89c-250.311 0-455.111-204.8-455.111-455.112S261.689-71.11099999999999 512-71.11099999999999 967.111 133.68899999999996 967.111 384h-56.889c0-221.867-176.355-398.222-398.222-398.222zM568.889 839.111v-56.889c187.733 0 341.333-153.6 341.333-341.333h56.89c0 221.867-176.356 398.222-398.223 398.222z"  horiz-adv-x="1024" />

    
    <glyph glyph-name="guanliyuan" unicode="&#58903;" d="M512 327.111c-159.289 0-284.444 125.156-284.444 284.445S352.71 896 512 896s284.444-125.156 284.444-284.444S671.29 327.11 512 327.11zM512 384c125.156 0 227.556 102.4 227.556 227.556S637.156 839.11 512 839.11s-227.556-102.4-227.556-227.555S386.844 384 512 384z m312.889-512c-79.645 0-142.222 62.578-142.222 142.222s62.577 142.222 142.222 142.222S967.11 93.867 967.11 14.222 904.533-128 824.89-128z m0 56.889c45.511 0 85.333 39.822 85.333 85.333s-39.822 85.334-85.333 85.334-85.333-39.823-85.333-85.334 39.822-85.333 85.333-85.333zM796.444 440.889h56.89v-284.445h-56.89z m56.89 0H967.11V384H853.333z m0-113.778H967.11v-56.889H853.333zM512 384l-51.2-62.578C261.689 298.667 113.778 133.69 113.778-71.11h-56.89v56.889h5.69C91.022 207.644 278.756 384 512 384z m0 0l-51.2-62.578C261.689 298.667 113.778 133.69 113.778-71.11h-56.89v56.889h5.69C91.022 207.644 278.756 384 512 384z"  horiz-adv-x="1024" />

    
    <glyph glyph-name="yulan" unicode="&#58883;" d="M642.844 213.33299999999997l39.823 39.823L910.222 25.600000000000023 870.4-14.22199999999998 642.844 213.33299999999997z m210.49 568.89h56.888v-568.89h-56.889v568.89z m-682.667 0h682.666v-56.89H170.667v56.89z m0-739.556h512v-56.89h-568.89V782.223h56.89v-739.555zM512 156.44399999999996c-125.156 0-227.556 102.4-227.556 227.556S386.844 611.556 512 611.556 739.556 509.156 739.556 384 637.156 156.44399999999996 512 156.44399999999996z m0 56.89c96.711 0 170.667 73.955 170.667 170.666S608.71 554.6669999999999 512 554.6669999999999 341.333 480.71 341.333 384 415.29 213.33299999999997 512 213.33299999999997z"  horiz-adv-x="1024" />

    
    <glyph glyph-name="xiaoxi" unicode="&#59115;" d="M861.40397037 178.5325037c8.49540741 0.24272592 16.99081482-1.45635555 25.12213333-6.79632592-29.4912 18.93262222-48.90927408 51.94334815-48.90927407 89.68722963V471.98814815c0 154.25232592-111.53256297 283.01842963-260.56628148 314.69416296V794.20681482c0 39.3216-31.7970963 70.99733333-70.99733333 70.99733333s-70.99733333-31.7970963-70.99733334-70.99733333v-7.52450371c-149.03371852-31.67573333-260.56628148-160.32047408-260.56628148-314.69416296V261.42340741c0-37.74388148-19.53943703-70.75460741-48.90927408-89.68722963 8.25268148 5.33997037 16.62672592 7.16041482 25.12213333 6.79632592-26.09303703-0.12136297-47.21019259-21.11715555-47.21019258-47.33155555s21.11715555-47.33155555 47.33155555-47.33155556h710.33742223c26.2144 0 47.33155555 21.11715555 47.33155555 47.33155556 0.12136297 25.97167408-20.99579259 47.21019259-47.08882963 47.33155555zM506.17457778-82.03377778000004c65.41463703 0 118.45025185 53.03561482 118.45025185 118.45025186H387.72432592c0-65.41463703 52.91425185-118.45025185 118.45025186-118.45025186z"  horiz-adv-x="1024" />

    
    </font>
</defs>
</svg>
